solid body_base
facet normal 0.0 0.0 -1.0
outer loop
vertex 245.529080802939 236.253523255293 1.9375
vertex 243.455124613993 232.406576815864 1.9375
vertex 241.996787845852 236.960255720949 1.9375
endloop
endfacet
facet normal 0.0 0.0 -1.0
outer loop
vertex 243.455124613993 232.406576815864 1.9375
vertex 245.529080802939 236.253523255293 1.9375
vertex 244.656244740296 227.75887274846 1.9375
endloop
endfacet
facet normal 0.0 0.0 -1.0
outer loop
vertex 244.656244740296 227.75887274846 1.9375
vertex 245.529080802939 236.253523255293 1.9375
vertex 245.59540455421 223.035499032411 1.9375
endloop
endfacet
facet normal 0.0 0.0 -1.0
outer loop
vertex 245.59540455421 223.035499032411 1.9375
vertex 245.529080802939 236.253523255293 1.9375
vertex 248.992343278691 235.199849900263 1.9375
endloop
endfacet
facet normal 0.0 0.0 -1.0
outer loop
vertex 245.59540455421 223.035499032411 1.9375
vertex 248.992343278691 235.199849900263 1.9375
vertex 246.268894963987 218.255110029006 1.9375
endloop
endfacet
facet normal 0.0 0.0 -1.0
outer loop
vertex 246.268894963987 218.255110029006 1.9375
vertex 248.992343278691 235.199849900263 1.9375
vertex 246.674056105263 213.43658527413 1.9375
endloop
endfacet
facet normal 0.0 0.0 -1.0
outer loop
vertex 246.674056105263 213.43658527413 1.9375
vertex 248.992343278691 235.199849900263 1.9375
vertex 246.809287845852 208.598954915949 1.9375
endloop
endfacet
facet normal 0.0 0.0 -1.0
outer loop
vertex 246.809287845852 208.598954915949 1.9375
vertex 248.992343278691 235.199849900263 1.9375
vertex 248.737304847165 182.594567096788 1.9375
endloop
endfacet
facet normal 0.0 0.0 -1.0
outer loop
vertex 248.737304847165 182.594567096788 1.9375
vertex 248.992343278691 235.199849900263 1.9375
vertex 251.977321728182 184.175071226146 1.9375
endloop
endfacet
facet normal 0.0 0.0 -1.0
outer loop
vertex 251.977321728182 184.175071226146 1.9375
vertex 248.992343278691 235.199849900263 1.9375
vertex 252.359686993217 233.807416226715 1.9375
endloop
endfacet
facet normal 0.0 0.0 -1.0
outer loop
vertex 251.977321728182 184.175071226146 1.9375
vertex 252.359686993217 233.807416226715 1.9375
vertex 255.108040855645 186.013181328179 1.9375
endloop
endfacet
facet normal 0.0 0.0 -1.0
outer loop
vertex 255.108040855645 186.013181328179 1.9375
vertex 252.359686993217 233.807416226715 1.9375
vertex 255.604968366314 232.087032892697 1.9375
endloop
endfacet
facet normal 0.0 0.0 -1.0
outer loop
vertex 255.108040855645 186.013181328179 1.9375
vertex 255.604968366314 232.087032892697 1.9375
vertex 258.113293702105 188.099404525235 1.9375
endloop
endfacet
facet normal 0.0 0.0 -1.0
outer loop
vertex 258.113293702105 188.099404525235 1.9375
vertex 255.604968366314 232.087032892697 1.9375
vertex 258.702991492531 230.05205671102 1.9375
endloop
endfacet
facet normal 0.0 0.0 -1.0
outer loop
vertex 258.113293702105 188.099404525235 1.9375
vertex 258.702991492531 230.05205671102 1.9375
vertex 260.97755970786 190.422966565252 1.9375
endloop
endfacet
facet normal 0.0 0.0 -1.0
outer loop
vertex 260.97755970786 190.422966565252 1.9375
vertex 258.702991492531 230.05205671102 1.9375
vertex 261.629703758612 227.718286948858 1.9375
endloop
endfacet
facet normal 0.0 0.0 -1.0
outer loop
vertex 260.97755970786 190.422966565252 1.9375
vertex 261.629703758612 227.718286948858 1.9375
vertex 263.686046436527 192.97186746513 1.9375
endloop
endfacet
facet normal 0.0 0.0 -1.0
outer loop
vertex 263.686046436527 192.97186746513 1.9375
vertex 261.629703758612 227.718286948858 1.9375
vertex 264.362382584584 225.103842664473 1.9375
endloop
endfacet
facet normal 0.0 0.0 -1.0
outer loop
vertex 263.686046436527 192.97186746513 1.9375
vertex 264.362382584584 225.103842664473 1.9375
vertex 266.22476597024 195.732943484373 1.9375
endloop
endfacet
facet normal 0.0 0.0 -1.0
outer loop
vertex 266.22476597024 195.732943484373 1.9375
vertex 264.362382584584 225.103842664473 1.9375
vertex 266.87981183865 222.229022033407 1.9375
endloop
endfacet
facet normal 0.0 0.0 -1.0
outer loop
vertex 266.22476597024 195.732943484373 1.9375
vertex 266.87981183865 222.229022033407 1.9375
vertex 268.580607149938 198.691935108926 1.9375
endloop
endfacet
facet normal 0.0 0.0 -1.0
outer loop
vertex 268.580607149938 198.691935108926 1.9375
vertex 266.87981183865 222.229022033407 1.9375
vertex 269.162446556236 219.116144756322 1.9375
endloop
endfacet
facet normal 0.0 0.0 -1.0
outer loop
vertex 268.580607149938 198.691935108926 1.9375
vertex 269.162446556236 219.116144756322 1.9375
vertex 270.741403287641 201.833560694111 1.9375
endloop
endfacet
facet normal 0.0 0.0 -1.0
outer loop
vertex 270.741403287641 201.833560694111 1.9375
vertex 269.162446556236 219.116144756322 1.9375
vertex 271.192564684334 215.789378771999 1.9375
endloop
endfacet
facet normal 0.0 0.0 -1.0
outer loop
vertex 270.741403287641 201.833560694111 1.9375
vertex 271.192564684334 215.789378771999 1.9375
vertex 272.695995001037 205.141595386329 1.9375
endloop
endfacet
facet normal 0.0 0.0 -1.0
outer loop
vertex 272.695995001037 205.141595386329 1.9375
vertex 271.192564684334 215.789378771999 1.9375
vertex 272.954404673011 212.274552620884 1.9375
endloop
endfacet
facet normal 0.0 0.0 -1.0
outer loop
vertex 272.695995001037 205.141595386329 1.9375
vertex 272.954404673011 212.274552620884 1.9375
vertex 274.434287845852 208.598954915949 1.9375
endloop
endfacet
facet normal 0.0 0.0 -1.0
outer loop
vertex 243.455124613993 184.791333016033 1.9375
vertex 245.404723205791 181.27983141759 1.9375
vertex 241.996787845852 180.237654110949 1.9375
endloop
endfacet
facet normal 0.0 0.0 -1.0
outer loop
vertex 245.404723205791 181.27983141759 1.9375
vertex 243.455124613993 184.791333016033 1.9375
vertex 244.656244740296 189.439037083437 1.9375
endloop
endfacet
facet normal 0.0 0.0 -1.0
outer loop
vertex 245.404723205791 181.27983141759 1.9375
vertex 244.656244740296 189.439037083437 1.9375
vertex 245.59540455421 194.162410799486 1.9375
endloop
endfacet
facet normal 0.0 0.0 -1.0
outer loop
vertex 245.404723205791 181.27983141759 1.9375
vertex 245.59540455421 194.162410799486 1.9375
vertex 248.737304847165 182.594567096788 1.9375
endloop
endfacet
facet normal 0.0 0.0 -1.0
outer loop
vertex 248.737304847165 182.594567096788 1.9375
vertex 245.59540455421 194.162410799486 1.9375
vertex 246.268894963987 198.942799802891 1.9375
endloop
endfacet
facet normal 0.0 0.0 -1.0
outer loop
vertex 248.737304847165 182.594567096788 1.9375
vertex 246.268894963987 198.942799802891 1.9375
vertex 246.674056105263 203.761324557767 1.9375
endloop
endfacet
facet normal 0.0 0.0 -1.0
outer loop
vertex 248.737304847165 182.594567096788 1.9375
vertex 246.674056105263 203.761324557767 1.9375
vertex 246.809287845852 208.598954915949 1.9375
endloop
endfacet
facet normal -0.889616202710308 -0.456708891828583 0.0
outer loop
vertex 253.534697577538 199.082361365192 7.375
vertex 254.041250687068 198.339945742591 5.625
vertex 254.041250687068 198.339945742591 7.375
endloop
endfacet
facet normal -0.747295416162771 -0.664491957048474 0.0
outer loop
vertex 254.041250687068 198.339945742591 5.625
vertex 253.534697577538 199.082361365192 7.375
vertex 253.534697577538 199.082361365192 5.625
endloop
endfacet
facet normal -0.972770242665621 -0.231771557755192 0.0
outer loop
vertex 253.216264980804 199.946922669094 7.375
vertex 253.534697577538 199.082361365192 5.625
vertex 253.534697577538 199.082361365192 7.375
endloop
endfacet
facet normal -0.889616202710308 -0.456708891828583 0.0
outer loop
vertex 253.534697577538 199.082361365192 5.625
vertex 253.216264980804 199.946922669094 7.375
vertex 253.216264980804 199.946922669094 5.625
endloop
endfacet
facet normal -1.0 0.0 0.0
outer loop
vertex 253.107653552101 200.874711230192 7.375
vertex 253.216264980804 199.946922669094 5.625
vertex 253.216264980804 199.946922669094 7.375
endloop
endfacet
facet normal -0.972770242665621 -0.231771557755192 0.0
outer loop
vertex 253.216264980804 199.946922669094 5.625
vertex 253.107653552101 200.874711230192 7.375
vertex 253.107653552101 200.874711230192 5.625
endloop
endfacet
facet normal -0.972770242665621 0.231771557755192 0.0
outer loop
vertex 253.216264980804 201.80249979129 7.375
vertex 253.107653552101 200.874711230192 5.625
vertex 253.107653552101 200.874711230192 7.375
endloop
endfacet
facet normal -1.0 0.0 0.0
outer loop
vertex 253.107653552101 200.874711230192 5.625
vertex 253.216264980804 201.80249979129 7.375
vertex 253.216264980804 201.80249979129 5.625
endloop
endfacet
facet normal -0.889616202710308 0.456708891828583 0.0
outer loop
vertex 253.534697577538 202.667061095192 7.375
vertex 253.216264980804 201.80249979129 5.625
vertex 253.216264980804 201.80249979129 7.375
endloop
endfacet
facet normal -0.972770242665621 0.231771557755192 0.0
outer loop
vertex 253.216264980804 201.80249979129 5.625
vertex 253.534697577538 202.667061095192 7.375
vertex 253.534697577538 202.667061095192 5.625
endloop
endfacet
facet normal -0.747295416162771 0.664491957048474 0.0
outer loop
vertex 254.041250687068 203.409476717793 7.375
vertex 253.534697577538 202.667061095192 5.625
vertex 253.534697577538 202.667061095192 7.375
endloop
endfacet
facet normal -0.889616202710308 0.456708891828583 0.0
outer loop
vertex 253.534697577538 202.667061095192 5.625
vertex 254.041250687068 203.409476717793 7.375
vertex 254.041250687068 203.409476717793 5.625
endloop
endfacet
facet normal -0.747295416162771 0.664491957048474 0.0
outer loop
vertex 254.041250687068 203.409476717793 7.375
vertex 254.701403552101 203.979152261311 5.625
vertex 254.041250687068 203.409476717793 5.625
endloop
endfacet
facet normal -0.544572526953974 0.838713755036224 0.0
outer loop
vertex 254.701403552101 203.979152261311 5.625
vertex 254.041250687068 203.409476717793 7.375
vertex 254.701403552101 203.979152261311 7.375
endloop
endfacet
facet normal -0.544572526953974 0.838713755036224 0.0
outer loop
vertex 254.701403552101 203.979152261311 7.375
vertex 255.470167845836 204.33726527889 5.625
vertex 254.701403552101 203.979152261311 5.625
endloop
endfacet
facet normal -0.288523683978011 0.957472758768497 0.0
outer loop
vertex 255.470167845836 204.33726527889 5.625
vertex 254.701403552101 203.979152261311 7.375
vertex 255.470167845836 204.33726527889 7.375
endloop
endfacet
facet normal -0.288523683978011 0.957472758768497 0.0
outer loop
vertex 255.470167845836 204.33726527889 7.375
vertex 256.295153552101 204.459410960192 5.625
vertex 255.470167845836 204.33726527889 5.625
endloop
endfacet
facet normal 0.0 1.0 0.0
outer loop
vertex 256.295153552101 204.459410960192 5.625
vertex 255.470167845836 204.33726527889 7.375
vertex 256.295153552101 204.459410960192 7.375
endloop
endfacet
facet normal 0.0 1.0 0.0
outer loop
vertex 256.295153552101 204.459410960192 7.375
vertex 257.120139258365 204.33726527889 5.625
vertex 256.295153552101 204.459410960192 5.625
endloop
endfacet
facet normal 0.288523683978011 0.957472758768497 0.0
outer loop
vertex 257.120139258365 204.33726527889 5.625
vertex 256.295153552101 204.459410960192 7.375
vertex 257.120139258365 204.33726527889 7.375
endloop
endfacet
facet normal 0.288523683978011 0.957472758768497 0.0
outer loop
vertex 257.120139258365 204.33726527889 7.375
vertex 257.888903552101 203.979152261311 5.625
vertex 257.120139258365 204.33726527889 5.625
endloop
endfacet
facet normal 0.544572526953974 0.838713755036224 0.0
outer loop
vertex 257.888903552101 203.979152261311 5.625
vertex 257.120139258365 204.33726527889 7.375
vertex 257.888903552101 203.979152261311 7.375
endloop
endfacet
facet normal 0.544572526953974 0.838713755036224 0.0
outer loop
vertex 257.888903552101 203.979152261311 7.375
vertex 258.549056417133 203.409476717793 5.625
vertex 257.888903552101 203.979152261311 5.625
endloop
endfacet
facet normal 0.747295416162771 0.664491957048474 0.0
outer loop
vertex 258.549056417133 203.409476717793 5.625
vertex 257.888903552101 203.979152261311 7.375
vertex 258.549056417133 203.409476717793 7.375
endloop
endfacet
facet normal 0.747295416162771 0.664491957048474 0.0
outer loop
vertex 258.549056417133 203.409476717793 5.625
vertex 259.055609526663 202.667061095192 7.375
vertex 259.055609526663 202.667061095192 5.625
endloop
endfacet
facet normal 0.889616202710308 0.456708891828583 0.0
outer loop
vertex 259.055609526663 202.667061095192 7.375
vertex 258.549056417133 203.409476717793 5.625
vertex 258.549056417133 203.409476717793 7.375
endloop
endfacet
facet normal 0.889616202710308 0.456708891828583 0.0
outer loop
vertex 259.055609526663 202.667061095192 5.625
vertex 259.374042123397 201.80249979129 7.375
vertex 259.374042123397 201.80249979129 5.625
endloop
endfacet
facet normal 0.972770242665621 0.231771557755192 0.0
outer loop
vertex 259.374042123397 201.80249979129 7.375
vertex 259.055609526663 202.667061095192 5.625
vertex 259.055609526663 202.667061095192 7.375
endloop
endfacet
facet normal 0.972770242665621 0.231771557755192 0.0
outer loop
vertex 259.374042123397 201.80249979129 5.625
vertex 259.482653552101 200.874711230192 7.375
vertex 259.482653552101 200.874711230192 5.625
endloop
endfacet
facet normal 1.0 0.0 0.0
outer loop
vertex 259.482653552101 200.874711230192 7.375
vertex 259.374042123397 201.80249979129 5.625
vertex 259.374042123397 201.80249979129 7.375
endloop
endfacet
facet normal 1.0 0.0 0.0
outer loop
vertex 259.482653552101 200.874711230192 5.625
vertex 259.374042123397 199.946922669094 7.375
vertex 259.374042123397 199.946922669094 5.625
endloop
endfacet
facet normal 0.972770242665621 -0.231771557755192 0.0
outer loop
vertex 259.374042123397 199.946922669094 7.375
vertex 259.482653552101 200.874711230192 5.625
vertex 259.482653552101 200.874711230192 7.375
endloop
endfacet
facet normal 0.972770242665621 -0.231771557755192 0.0
outer loop
vertex 259.374042123397 199.946922669094 5.625
vertex 259.055609526663 199.082361365192 7.375
vertex 259.055609526663 199.082361365192 5.625
endloop
endfacet
facet normal 0.889616202710308 -0.456708891828583 0.0
outer loop
vertex 259.055609526663 199.082361365192 7.375
vertex 259.374042123397 199.946922669094 5.625
vertex 259.374042123397 199.946922669094 7.375
endloop
endfacet
facet normal 0.889616202710308 -0.456708891828583 0.0
outer loop
vertex 259.055609526663 199.082361365192 5.625
vertex 258.549056417133 198.339945742591 7.375
vertex 258.549056417133 198.339945742591 5.625
endloop
endfacet
facet normal 0.747295416162771 -0.664491957048474 0.0
outer loop
vertex 258.549056417133 198.339945742591 7.375
vertex 259.055609526663 199.082361365192 5.625
vertex 259.055609526663 199.082361365192 7.375
endloop
endfacet
facet normal -0.544572526953974 -0.838713755036224 0.0
outer loop
vertex 254.701403552101 197.770270199073 7.375
vertex 254.041250687068 198.339945742591 5.625
vertex 254.701403552101 197.770270199073 5.625
endloop
endfacet
facet normal -0.747295416162771 -0.664491957048474 0.0
outer loop
vertex 254.041250687068 198.339945742591 5.625
vertex 254.701403552101 197.770270199073 7.375
vertex 254.041250687068 198.339945742591 7.375
endloop
endfacet
facet normal -0.288523683978011 -0.957472758768497 0.0
outer loop
vertex 255.470167845836 197.412157181493 7.375
vertex 254.701403552101 197.770270199073 5.625
vertex 255.470167845836 197.412157181493 5.625
endloop
endfacet
facet normal -0.544572526953974 -0.838713755036224 0.0
outer loop
vertex 254.701403552101 197.770270199073 5.625
vertex 255.470167845836 197.412157181493 7.375
vertex 254.701403552101 197.770270199073 7.375
endloop
endfacet
facet normal 0.0 -1.0 0.0
outer loop
vertex 256.295153552101 197.290011500192 7.375
vertex 255.470167845836 197.412157181493 5.625
vertex 256.295153552101 197.290011500192 5.625
endloop
endfacet
facet normal -0.288523683978011 -0.957472758768497 0.0
outer loop
vertex 255.470167845836 197.412157181493 5.625
vertex 256.295153552101 197.290011500192 7.375
vertex 255.470167845836 197.412157181493 7.375
endloop
endfacet
facet normal 0.0 0.0 1.0
outer loop
vertex 253.216264980804 199.946922669094 7.375
vertex 253.216264980804 201.80249979129 7.375
vertex 253.107653552101 200.874711230192 7.375
endloop
endfacet
facet normal 0.0 0.0 1.0
outer loop
vertex 253.216264980804 201.80249979129 7.375
vertex 253.216264980804 199.946922669094 7.375
vertex 253.534697577538 199.082361365192 7.375
endloop
endfacet
facet normal 0.0 0.0 1.0
outer loop
vertex 253.216264980804 201.80249979129 7.375
vertex 253.534697577538 199.082361365192 7.375
vertex 253.534697577538 202.667061095192 7.375
endloop
endfacet
facet normal 0.0 0.0 1.0
outer loop
vertex 253.534697577538 202.667061095192 7.375
vertex 253.534697577538 199.082361365192 7.375
vertex 254.041250687068 198.339945742591 7.375
endloop
endfacet
facet normal 0.0 0.0 1.0
outer loop
vertex 253.534697577538 202.667061095192 7.375
vertex 254.041250687068 198.339945742591 7.375
vertex 254.041250687068 203.409476717793 7.375
endloop
endfacet
facet normal 0.0 0.0 1.0
outer loop
vertex 254.041250687068 203.409476717793 7.375
vertex 254.041250687068 198.339945742591 7.375
vertex 254.701403552101 197.770270199073 7.375
endloop
endfacet
facet normal 0.0 0.0 1.0
outer loop
vertex 254.041250687068 203.409476717793 7.375
vertex 254.701403552101 197.770270199073 7.375
vertex 254.701403552101 203.979152261311 7.375
endloop
endfacet
facet normal 0.0 0.0 1.0
outer loop
vertex 254.701403552101 203.979152261311 7.375
vertex 254.701403552101 197.770270199073 7.375
vertex 255.470167845836 197.412157181493 7.375
endloop
endfacet
facet normal 0.0 0.0 1.0
outer loop
vertex 254.701403552101 203.979152261311 7.375
vertex 255.470167845836 197.412157181493 7.375
vertex 255.470167845836 204.33726527889 7.375
endloop
endfacet
facet normal 0.0 0.0 1.0
outer loop
vertex 255.470167845836 204.33726527889 7.375
vertex 255.470167845836 197.412157181493 7.375
vertex 256.295153552101 197.290011500192 7.375
endloop
endfacet
facet normal 0.0 0.0 1.0
outer loop
vertex 255.470167845836 204.33726527889 7.375
vertex 256.295153552101 197.290011500192 7.375
vertex 256.295153552101 204.459410960192 7.375
endloop
endfacet
facet normal 0.0 0.0 1.0
outer loop
vertex 256.295153552101 204.459410960192 7.375
vertex 256.295153552101 197.290011500192 7.375
vertex 257.120139258365 197.412157181493 7.375
endloop
endfacet
facet normal 0.0 0.0 1.0
outer loop
vertex 256.295153552101 204.459410960192 7.375
vertex 257.120139258365 197.412157181493 7.375
vertex 257.120139258365 204.33726527889 7.375
endloop
endfacet
facet normal 0.0 0.0 1.0
outer loop
vertex 257.120139258365 204.33726527889 7.375
vertex 257.120139258365 197.412157181493 7.375
vertex 257.888903552101 197.770270199073 7.375
endloop
endfacet
facet normal 0.0 0.0 1.0
outer loop
vertex 257.120139258365 204.33726527889 7.375
vertex 257.888903552101 197.770270199073 7.375
vertex 257.888903552101 203.979152261311 7.375
endloop
endfacet
facet normal 0.0 0.0 1.0
outer loop
vertex 257.888903552101 203.979152261311 7.375
vertex 257.888903552101 197.770270199073 7.375
vertex 258.549056417133 198.339945742591 7.375
endloop
endfacet
facet normal 0.0 0.0 1.0
outer loop
vertex 257.888903552101 203.979152261311 7.375
vertex 258.549056417133 198.339945742591 7.375
vertex 258.549056417133 203.409476717793 7.375
endloop
endfacet
facet normal 0.0 0.0 1.0
outer loop
vertex 258.549056417133 203.409476717793 7.375
vertex 258.549056417133 198.339945742591 7.375
vertex 259.055609526663 199.082361365192 7.375
endloop
endfacet
facet normal 0.0 0.0 1.0
outer loop
vertex 258.549056417133 203.409476717793 7.375
vertex 259.055609526663 199.082361365192 7.375
vertex 259.055609526663 202.667061095192 7.375
endloop
endfacet
facet normal 0.0 0.0 1.0
outer loop
vertex 259.055609526663 202.667061095192 7.375
vertex 259.055609526663 199.082361365192 7.375
vertex 259.374042123397 199.946922669094 7.375
endloop
endfacet
facet normal 0.0 0.0 1.0
outer loop
vertex 259.055609526663 202.667061095192 7.375
vertex 259.374042123397 199.946922669094 7.375
vertex 259.374042123397 201.80249979129 7.375
endloop
endfacet
facet normal 0.0 0.0 1.0
outer loop
vertex 259.374042123397 201.80249979129 7.375
vertex 259.374042123397 199.946922669094 7.375
vertex 259.482653552101 200.874711230192 7.375
endloop
endfacet
facet normal 0.288523683978011 -0.957472758768497 0.0
outer loop
vertex 257.120139258365 197.412157181493 7.375
vertex 256.295153552101 197.290011500192 5.625
vertex 257.120139258365 197.412157181493 5.625
endloop
endfacet
facet normal 0.0 -1.0 0.0
outer loop
vertex 256.295153552101 197.290011500192 5.625
vertex 257.120139258365 197.412157181493 7.375
vertex 256.295153552101 197.290011500192 7.375
endloop
endfacet
facet normal 0.544572526953974 -0.838713755036224 0.0
outer loop
vertex 257.888903552101 197.770270199073 7.375
vertex 257.120139258365 197.412157181493 5.625
vertex 257.888903552101 197.770270199073 5.625
endloop
endfacet
facet normal 0.288523683978011 -0.957472758768497 0.0
outer loop
vertex 257.120139258365 197.412157181493 5.625
vertex 257.888903552101 197.770270199073 7.375
vertex 257.120139258365 197.412157181493 7.375
endloop
endfacet
facet normal 0.747295416162771 -0.664491957048474 0.0
outer loop
vertex 258.549056417133 198.339945742591 7.375
vertex 257.888903552101 197.770270199073 5.625
vertex 258.549056417133 198.339945742591 5.625
endloop
endfacet
facet normal 0.544572526953974 -0.838713755036224 0.0
outer loop
vertex 257.888903552101 197.770270199073 5.625
vertex 258.549056417133 198.339945742591 7.375
vertex 257.888903552101 197.770270199073 7.375
endloop
endfacet
facet normal 0.0 0.0 1.0
outer loop
vertex 243.455124613993 232.406576815864 5.625
vertex 245.529080802939 236.253523255293 5.625
vertex 241.996787845852 236.960255720949 5.625
endloop
endfacet
facet normal 0.0 0.0 1.0
outer loop
vertex 245.529080802939 236.253523255293 5.625
vertex 243.455124613993 232.406576815864 5.625
vertex 244.656244740296 227.75887274846 5.625
endloop
endfacet
facet normal 0.0 0.0 1.0
outer loop
vertex 245.529080802939 236.253523255293 5.625
vertex 244.656244740296 227.75887274846 5.625
vertex 245.59540455421 223.035499032411 5.625
endloop
endfacet
facet normal 0.0 0.0 1.0
outer loop
vertex 245.529080802939 236.253523255293 5.625
vertex 245.59540455421 223.035499032411 5.625
vertex 248.992343278691 235.199849900263 5.625
endloop
endfacet
facet normal 0.0 0.0 1.0
outer loop
vertex 248.992343278691 235.199849900263 5.625
vertex 245.59540455421 223.035499032411 5.625
vertex 246.268894963987 218.255110029006 5.625
endloop
endfacet
facet normal 0.0 0.0 1.0
outer loop
vertex 248.992343278691 235.199849900263 5.625
vertex 246.268894963987 218.255110029006 5.625
vertex 246.674056105263 213.43658527413 5.625
endloop
endfacet
facet normal 0.0 0.0 1.0
outer loop
vertex 248.992343278691 235.199849900263 5.625
vertex 246.674056105263 213.43658527413 5.625
vertex 246.809287845852 208.598954915949 5.625
endloop
endfacet
facet normal 0.0 0.0 1.0
outer loop
vertex 248.992343278691 235.199849900263 5.625
vertex 246.809287845852 208.598954915949 5.625
vertex 248.737304847165 182.594567096788 5.625
endloop
endfacet
facet normal 0.0 0.0 1.0
outer loop
vertex 248.992343278691 235.199849900263 5.625
vertex 248.737304847165 182.594567096788 5.625
vertex 251.977321728182 184.175071226146 5.625
endloop
endfacet
facet normal 0.0 0.0 1.0
outer loop
vertex 248.992343278691 235.199849900263 5.625
vertex 251.977321728182 184.175071226146 5.625
vertex 252.359686993217 233.807416226715 5.625
endloop
endfacet
facet normal 0.0 0.0 1.0
outer loop
vertex 252.359686993217 233.807416226715 5.625
vertex 251.977321728182 184.175071226146 5.625
vertex 253.107653552101 200.874711230192 5.625
endloop
endfacet
facet normal 0.0 0.0 1.0
outer loop
vertex 253.107653552101 200.874711230192 5.625
vertex 251.977321728182 184.175071226146 5.625
vertex 253.216264980804 199.946922669094 5.625
endloop
endfacet
facet normal 0.0 0.0 1.0
outer loop
vertex 253.216264980804 199.946922669094 5.625
vertex 251.977321728182 184.175071226146 5.625
vertex 255.108040855645 186.013181328179 5.625
endloop
endfacet
facet normal 0.0 0.0 1.0
outer loop
vertex 253.216264980804 199.946922669094 5.625
vertex 255.108040855645 186.013181328179 5.625
vertex 253.534697577538 199.082361365192 5.625
endloop
endfacet
facet normal 0.0 0.0 1.0
outer loop
vertex 253.534697577538 199.082361365192 5.625
vertex 255.108040855645 186.013181328179 5.625
vertex 254.041250687068 198.339945742591 5.625
endloop
endfacet
facet normal 0.0 0.0 1.0
outer loop
vertex 254.041250687068 198.339945742591 5.625
vertex 255.108040855645 186.013181328179 5.625
vertex 254.701403552101 197.770270199073 5.625
endloop
endfacet
facet normal 0.0 0.0 1.0
outer loop
vertex 254.701403552101 197.770270199073 5.625
vertex 255.108040855645 186.013181328179 5.625
vertex 255.470167845836 197.412157181493 5.625
endloop
endfacet
facet normal 0.0 0.0 1.0
outer loop
vertex 255.470167845836 197.412157181493 5.625
vertex 255.108040855645 186.013181328179 5.625
vertex 258.113293702105 188.099404525235 5.625
endloop
endfacet
facet normal 0.0 0.0 1.0
outer loop
vertex 255.470167845836 197.412157181493 5.625
vertex 258.113293702105 188.099404525235 5.625
vertex 256.295153552101 197.290011500192 5.625
endloop
endfacet
facet normal 0.0 0.0 1.0
outer loop
vertex 256.295153552101 197.290011500192 5.625
vertex 258.113293702105 188.099404525235 5.625
vertex 257.120139258365 197.412157181493 5.625
endloop
endfacet
facet normal 0.0 0.0 1.0
outer loop
vertex 257.120139258365 197.412157181493 5.625
vertex 258.113293702105 188.099404525235 5.625
vertex 257.888903552101 197.770270199073 5.625
endloop
endfacet
facet normal 0.0 0.0 1.0
outer loop
vertex 257.888903552101 197.770270199073 5.625
vertex 258.113293702105 188.099404525235 5.625
vertex 258.549056417133 198.339945742591 5.625
endloop
endfacet
facet normal 0.0 0.0 1.0
outer loop
vertex 258.549056417133 198.339945742591 5.625
vertex 258.113293702105 188.099404525235 5.625
vertex 260.97755970786 190.422966565252 5.625
endloop
endfacet
facet normal 0.0 0.0 1.0
outer loop
vertex 258.549056417133 198.339945742591 5.625
vertex 260.97755970786 190.422966565252 5.625
vertex 259.055609526663 199.082361365192 5.625
endloop
endfacet
facet normal 0.0 0.0 1.0
outer loop
vertex 259.055609526663 199.082361365192 5.625
vertex 260.97755970786 190.422966565252 5.625
vertex 259.374042123397 199.946922669094 5.625
endloop
endfacet
facet normal 0.0 0.0 1.0
outer loop
vertex 259.374042123397 199.946922669094 5.625
vertex 260.97755970786 190.422966565252 5.625
vertex 259.482653552101 200.874711230192 5.625
endloop
endfacet
facet normal 0.0 0.0 1.0
outer loop
vertex 253.107653552101 200.874711230192 5.625
vertex 255.604968366314 232.087032892697 5.625
vertex 252.359686993217 233.807416226715 5.625
endloop
endfacet
facet normal 0.0 0.0 1.0
outer loop
vertex 255.604968366314 232.087032892697 5.625
vertex 253.107653552101 200.874711230192 5.625
vertex 253.216264980804 201.80249979129 5.625
endloop
endfacet
facet normal 0.0 0.0 1.0
outer loop
vertex 255.604968366314 232.087032892697 5.625
vertex 253.216264980804 201.80249979129 5.625
vertex 253.534697577538 202.667061095192 5.625
endloop
endfacet
facet normal 0.0 0.0 1.0
outer loop
vertex 255.604968366314 232.087032892697 5.625
vertex 253.534697577538 202.667061095192 5.625
vertex 254.041250687068 203.409476717793 5.625
endloop
endfacet
facet normal 0.0 0.0 1.0
outer loop
vertex 255.604968366314 232.087032892697 5.625
vertex 254.041250687068 203.409476717793 5.625
vertex 254.701403552101 203.979152261311 5.625
endloop
endfacet
facet normal 0.0 0.0 1.0
outer loop
vertex 255.604968366314 232.087032892697 5.625
vertex 254.701403552101 203.979152261311 5.625
vertex 255.470167845836 204.33726527889 5.625
endloop
endfacet
facet normal 0.0 0.0 1.0
outer loop
vertex 255.604968366314 232.087032892697 5.625
vertex 255.470167845836 204.33726527889 5.625
vertex 256.295153552101 204.459410960192 5.625
endloop
endfacet
facet normal 0.0 0.0 1.0
outer loop
vertex 255.604968366314 232.087032892697 5.625
vertex 256.295153552101 204.459410960192 5.625
vertex 258.702991492531 230.05205671102 5.625
endloop
endfacet
facet normal 0.0 0.0 1.0
outer loop
vertex 258.702991492531 230.05205671102 5.625
vertex 256.295153552101 204.459410960192 5.625
vertex 257.120139258365 204.33726527889 5.625
endloop
endfacet
facet normal 0.0 0.0 1.0
outer loop
vertex 258.702991492531 230.05205671102 5.625
vertex 257.120139258365 204.33726527889 5.625
vertex 257.888903552101 203.979152261311 5.625
endloop
endfacet
facet normal 0.0 0.0 1.0
outer loop
vertex 258.702991492531 230.05205671102 5.625
vertex 257.888903552101 203.979152261311 5.625
vertex 258.549056417133 203.409476717793 5.625
endloop
endfacet
facet normal 0.0 0.0 1.0
outer loop
vertex 258.702991492531 230.05205671102 5.625
vertex 258.549056417133 203.409476717793 5.625
vertex 259.055609526663 202.667061095192 5.625
endloop
endfacet
facet normal 0.0 0.0 1.0
outer loop
vertex 258.702991492531 230.05205671102 5.625
vertex 259.055609526663 202.667061095192 5.625
vertex 261.629703758612 227.718286948858 5.625
endloop
endfacet
facet normal 0.0 0.0 1.0
outer loop
vertex 261.629703758612 227.718286948858 5.625
vertex 259.055609526663 202.667061095192 5.625
vertex 259.374042123397 201.80249979129 5.625
endloop
endfacet
facet normal 0.0 0.0 1.0
outer loop
vertex 261.629703758612 227.718286948858 5.625
vertex 259.374042123397 201.80249979129 5.625
vertex 259.482653552101 200.874711230192 5.625
endloop
endfacet
facet normal 0.0 0.0 1.0
outer loop
vertex 261.629703758612 227.718286948858 5.625
vertex 259.482653552101 200.874711230192 5.625
vertex 260.97755970786 190.422966565252 5.625
endloop
endfacet
facet normal 0.0 0.0 1.0
outer loop
vertex 261.629703758612 227.718286948858 5.625
vertex 260.97755970786 190.422966565252 5.625
vertex 263.686046436527 192.97186746513 5.625
endloop
endfacet
facet normal 0.0 0.0 1.0
outer loop
vertex 261.629703758612 227.718286948858 5.625
vertex 263.686046436527 192.97186746513 5.625
vertex 264.362382584584 225.103842664473 5.625
endloop
endfacet
facet normal 0.0 0.0 1.0
outer loop
vertex 264.362382584584 225.103842664473 5.625
vertex 263.686046436527 192.97186746513 5.625
vertex 266.22476597024 195.732943484373 5.625
endloop
endfacet
facet normal 0.0 0.0 1.0
outer loop
vertex 264.362382584584 225.103842664473 5.625
vertex 266.22476597024 195.732943484373 5.625
vertex 266.87981183865 222.229022033407 5.625
endloop
endfacet
facet normal 0.0 0.0 1.0
outer loop
vertex 266.87981183865 222.229022033407 5.625
vertex 266.22476597024 195.732943484373 5.625
vertex 268.580607149938 198.691935108926 5.625
endloop
endfacet
facet normal 0.0 0.0 1.0
outer loop
vertex 266.87981183865 222.229022033407 5.625
vertex 268.580607149938 198.691935108926 5.625
vertex 269.162446556236 219.116144756322 5.625
endloop
endfacet
facet normal 0.0 0.0 1.0
outer loop
vertex 269.162446556236 219.116144756322 5.625
vertex 268.580607149938 198.691935108926 5.625
vertex 270.741403287641 201.833560694111 5.625
endloop
endfacet
facet normal 0.0 0.0 1.0
outer loop
vertex 269.162446556236 219.116144756322 5.625
vertex 270.741403287641 201.833560694111 5.625
vertex 271.192564684334 215.789378771999 5.625
endloop
endfacet
facet normal 0.0 0.0 1.0
outer loop
vertex 271.192564684334 215.789378771999 5.625
vertex 270.741403287641 201.833560694111 5.625
vertex 272.695995001037 205.141595386329 5.625
endloop
endfacet
facet normal 0.0 0.0 1.0
outer loop
vertex 271.192564684334 215.789378771999 5.625
vertex 272.695995001037 205.141595386329 5.625
vertex 272.954404673011 212.274552620884 5.625
endloop
endfacet
facet normal 0.0 0.0 1.0
outer loop
vertex 272.954404673011 212.274552620884 5.625
vertex 272.695995001037 205.141595386329 5.625
vertex 274.434287845852 208.598954915949 5.625
endloop
endfacet
facet normal 0.0 0.0 1.0
outer loop
vertex 245.404723205791 181.27983141759 5.625
vertex 243.455124613993 184.791333016033 5.625
vertex 241.996787845852 180.237654110949 5.625
endloop
endfacet
facet normal 0.0 0.0 1.0
outer loop
vertex 243.455124613993 184.791333016033 5.625
vertex 245.404723205791 181.27983141759 5.625
vertex 244.656244740296 189.439037083437 5.625
endloop
endfacet
facet normal 0.0 0.0 1.0
outer loop
vertex 244.656244740296 189.439037083437 5.625
vertex 245.404723205791 181.27983141759 5.625
vertex 245.59540455421 194.162410799486 5.625
endloop
endfacet
facet normal 0.0 0.0 1.0
outer loop
vertex 245.59540455421 194.162410799486 5.625
vertex 245.404723205791 181.27983141759 5.625
vertex 248.737304847165 182.594567096788 5.625
endloop
endfacet
facet normal 0.0 0.0 1.0
outer loop
vertex 245.59540455421 194.162410799486 5.625
vertex 248.737304847165 182.594567096788 5.625
vertex 246.268894963987 198.942799802891 5.625
endloop
endfacet
facet normal 0.0 0.0 1.0
outer loop
vertex 246.268894963987 198.942799802891 5.625
vertex 248.737304847165 182.594567096788 5.625
vertex 246.674056105263 203.761324557767 5.625
endloop
endfacet
facet normal 0.0 0.0 1.0
outer loop
vertex 246.674056105263 203.761324557767 5.625
vertex 248.737304847165 182.594567096788 5.625
vertex 246.809287845852 208.598954915949 5.625
endloop
endfacet
facet normal 0.425908315375924 0.90476632723242 0.0
outer loop
vertex 252.359686993217 233.807416226715 5.625
vertex 255.604968366314 232.087032892697 1.9375
vertex 252.359686993217 233.807416226715 1.9375
endloop
endfacet
facet normal 0.509437318469937 0.860507767861604 0.0
outer loop
vertex 255.604968366314 232.087032892697 1.9375
vertex 252.359686993217 233.807416226715 5.625
vertex 255.604968366314 232.087032892697 5.625
endloop
endfacet
facet normal 0.509437318469937 0.860507767861604 0.0
outer loop
vertex 255.604968366314 232.087032892697 5.625
vertex 258.702991492531 230.05205671102 1.9375
vertex 255.604968366314 232.087032892697 1.9375
endloop
endfacet
facet normal 0.587039156774966 0.809558539213155 0.0
outer loop
vertex 258.702991492531 230.05205671102 1.9375
vertex 255.604968366314 232.087032892697 5.625
vertex 258.702991492531 230.05205671102 5.625
endloop
endfacet
facet normal 0.587039156774966 0.809558539213155 0.0
outer loop
vertex 258.702991492531 230.05205671102 5.625
vertex 261.629703758612 227.718286948858 1.9375
vertex 258.702991492531 230.05205671102 1.9375
endloop
endfacet
facet normal 0.658221798585649 0.752824059038148 0.0
outer loop
vertex 261.629703758612 227.718286948858 1.9375
vertex 258.702991492531 230.05205671102 5.625
vertex 261.629703758612 227.718286948858 5.625
endloop
endfacet
facet normal 0.658221798585649 0.752824059038148 0.0
outer loop
vertex 261.629703758612 227.718286948858 5.625
vertex 264.362382584584 225.103842664473 1.9375
vertex 261.629703758612 227.718286948858 1.9375
endloop
endfacet
facet normal 0.722674286038205 0.691188741444166 0.0
outer loop
vertex 264.362382584584 225.103842664473 1.9375
vertex 261.629703758612 227.718286948858 5.625
vertex 264.362382584584 225.103842664473 5.625
endloop
endfacet
facet normal 0.722674286038205 0.691188741444166 0.0
outer loop
vertex 264.362382584584 225.103842664473 1.9375
vertex 266.87981183865 222.229022033407 5.625
vertex 266.87981183865 222.229022033407 1.9375
endloop
endfacet
facet normal 0.780238766651427 0.625481787915731 0.0
outer loop
vertex 266.87981183865 222.229022033407 5.625
vertex 264.362382584584 225.103842664473 1.9375
vertex 264.362382584584 225.103842664473 5.625
endloop
endfacet
facet normal -0.952353729627605 -0.3049956945014 0.0
outer loop
vertex 241.996787845852 236.960255720949 5.625
vertex 243.455124613993 232.406576815864 1.9375
vertex 243.455124613993 232.406576815864 5.625
endloop
endfacet
facet normal -0.960678553157414 -0.277662956663971 0.0
outer loop
vertex 243.455124613993 232.406576815864 1.9375
vertex 241.996787845852 236.960255720949 5.625
vertex 241.996787845852 236.960255720949 1.9375
endloop
endfacet
facet normal 0.196189238061338 0.980566052272315 0.0
outer loop
vertex 241.996787845852 236.960255720949 5.625
vertex 245.529080802939 236.253523255293 1.9375
vertex 241.996787845852 236.960255720949 1.9375
endloop
endfacet
facet normal 0.244037969524986 0.969765677589242 0.0
outer loop
vertex 245.529080802939 236.253523255293 1.9375
vertex 241.996787845852 236.960255720949 5.625
vertex 245.529080802939 236.253523255293 5.625
endloop
endfacet
facet normal 0.244037969524986 0.969765677589242 0.0
outer loop
vertex 245.529080802939 236.253523255293 5.625
vertex 248.992343278691 235.199849900263 1.9375
vertex 245.529080802939 236.253523255293 1.9375
endloop
endfacet
facet normal 0.337143627653277 0.941453224718461 0.0
outer loop
vertex 248.992343278691 235.199849900263 1.9375
vertex 245.529080802939 236.253523255293 5.625
vertex 248.992343278691 235.199849900263 5.625
endloop
endfacet
facet normal 0.337143627653277 0.941453224718461 0.0
outer loop
vertex 248.992343278691 235.199849900263 5.625
vertex 252.359686993217 233.807416226715 1.9375
vertex 248.992343278691 235.199849900263 1.9375
endloop
endfacet
facet normal 0.425908315375924 0.90476632723242 0.0
outer loop
vertex 252.359686993217 233.807416226715 1.9375
vertex 248.992343278691 235.199849900263 5.625
vertex 252.359686993217 233.807416226715 5.625
endloop
endfacet
facet normal 0.780238766651427 0.625481787915731 0.0
outer loop
vertex 266.87981183865 222.229022033407 1.9375
vertex 269.162446556236 219.116144756322 5.625
vertex 269.162446556236 219.116144756322 1.9375
endloop
endfacet
facet normal 0.830877843049112 0.556454858843066 0.0
outer loop
vertex 269.162446556236 219.116144756322 5.625
vertex 266.87981183865 222.229022033407 1.9375
vertex 266.87981183865 222.229022033407 5.625
endloop
endfacet
facet normal 0.830877843049112 0.556454858843066 0.0
outer loop
vertex 269.162446556236 219.116144756322 1.9375
vertex 271.192564684334 215.789378771999 5.625
vertex 271.192564684334 215.789378771999 1.9375
endloop
endfacet
facet normal 0.87464129895314 0.48477066553739 0.0
outer loop
vertex 271.192564684334 215.789378771999 5.625
vertex 269.162446556236 219.116144756322 1.9375
vertex 269.162446556236 219.116144756322 5.625
endloop
endfacet
facet normal 0.87464129895314 0.48477066553739 0.0
outer loop
vertex 271.192564684334 215.789378771999 1.9375
vertex 272.954404673011 212.274552620884 5.625
vertex 272.954404673011 212.274552620884 1.9375
endloop
endfacet
facet normal 0.911635072596601 0.411000601473756 0.0
outer loop
vertex 272.954404673011 212.274552620884 5.625
vertex 271.192564684334 215.789378771999 1.9375
vertex 271.192564684334 215.789378771999 5.625
endloop
endfacet
facet normal 0.911635072596601 0.411000601473756 0.0
outer loop
vertex 272.954404673011 212.274552620884 1.9375
vertex 274.434287845852 208.598954915949 5.625
vertex 274.434287845852 208.598954915949 1.9375
endloop
endfacet
facet normal 0.92763502922993 0.373487955020758 0.0
outer loop
vertex 274.434287845852 208.598954915949 5.625
vertex 272.954404673011 212.274552620884 1.9375
vertex 272.954404673011 212.274552620884 5.625
endloop
endfacet
facet normal 0.89343132004533 -0.449199817856219 0.0
outer loop
vertex 274.434287845852 208.598954915949 1.9375
vertex 272.695995001037 205.141595386329 5.625
vertex 272.695995001037 205.141595386329 1.9375
endloop
endfacet
facet normal 0.877749933974444 -0.479119038870152 0.0
outer loop
vertex 272.695995001037 205.141595386329 5.625
vertex 274.434287845852 208.598954915949 1.9375
vertex 274.434287845852 208.598954915949 5.625
endloop
endfacet
facet normal 0.877749933974444 -0.479119038870152 0.0
outer loop
vertex 272.695995001037 205.141595386329 1.9375
vertex 270.741403287641 201.833560694111 5.625
vertex 270.741403287641 201.833560694111 1.9375
endloop
endfacet
facet normal 0.84300617117774 -0.537903890445354 0.0
outer loop
vertex 270.741403287641 201.833560694111 5.625
vertex 272.695995001037 205.141595386329 1.9375
vertex 272.695995001037 205.141595386329 5.625
endloop
endfacet
facet normal 0.84300617117774 -0.537903890445354 0.0
outer loop
vertex 270.741403287641 201.833560694111 1.9375
vertex 268.580607149938 198.691935108926 5.625
vertex 268.580607149938 198.691935108926 1.9375
endloop
endfacet
facet normal 0.80370451530019 -0.595028614510332 0.0
outer loop
vertex 268.580607149938 198.691935108926 5.625
vertex 270.741403287641 201.833560694111 1.9375
vertex 270.741403287641 201.833560694111 5.625
endloop
endfacet
facet normal 0.80370451530019 -0.595028614510332 0.0
outer loop
vertex 268.580607149938 198.691935108926 1.9375
vertex 266.22476597024 195.732943484373 5.625
vertex 266.22476597024 195.732943484373 1.9375
endloop
endfacet
facet normal 0.759804669080019 -0.650151416859337 0.0
outer loop
vertex 266.22476597024 195.732943484373 5.625
vertex 268.580607149938 198.691935108926 1.9375
vertex 268.580607149938 198.691935108926 5.625
endloop
endfacet
facet normal 0.759804669080019 -0.650151416859337 0.0
outer loop
vertex 266.22476597024 195.732943484373 5.625
vertex 263.686046436527 192.97186746513 1.9375
vertex 266.22476597024 195.732943484373 1.9375
endloop
endfacet
facet normal 0.711298507513796 -0.702890057696541 0.0
outer loop
vertex 263.686046436527 192.97186746513 1.9375
vertex 266.22476597024 195.732943484373 5.625
vertex 263.686046436527 192.97186746513 5.625
endloop
endfacet
facet normal 0.711298507513796 -0.702890057696541 0.0
outer loop
vertex 263.686046436527 192.97186746513 5.625
vertex 260.97755970786 190.422966565252 1.9375
vertex 263.686046436527 192.97186746513 1.9375
endloop
endfacet
facet normal 0.658221798585644 -0.752824059038152 0.0
outer loop
vertex 260.97755970786 190.422966565252 1.9375
vertex 263.686046436527 192.97186746513 5.625
vertex 260.97755970786 190.422966565252 5.625
endloop
endfacet
facet normal 0.658221798585644 -0.752824059038152 0.0
outer loop
vertex 260.97755970786 190.422966565252 5.625
vertex 258.113293702105 188.099404525235 1.9375
vertex 260.97755970786 190.422966565252 1.9375
endloop
endfacet
facet normal 0.600666346275621 -0.799499806411419 0.0
outer loop
vertex 258.113293702105 188.099404525235 1.9375
vertex 260.97755970786 190.422966565252 5.625
vertex 258.113293702105 188.099404525235 5.625
endloop
endfacet
facet normal 0.600666346275621 -0.799499806411419 0.0
outer loop
vertex 258.113293702105 188.099404525235 5.625
vertex 255.108040855645 186.013181328179 1.9375
vertex 258.113293702105 188.099404525235 1.9375
endloop
endfacet
facet normal 0.538791784591755 -0.842438966843552 0.0
outer loop
vertex 255.108040855645 186.013181328179 1.9375
vertex 258.113293702105 188.099404525235 5.625
vertex 255.108040855645 186.013181328179 5.625
endloop
endfacet
facet normal 0.538791784591755 -0.842438966843552 0.0
outer loop
vertex 255.108040855645 186.013181328179 5.625
vertex 251.977321728182 184.175071226146 1.9375
vertex 255.108040855645 186.013181328179 1.9375
endloop
endfacet
facet normal 0.472836017075049 -0.88115044172752 0.0
outer loop
vertex 251.977321728182 184.175071226146 1.9375
vertex 255.108040855645 186.013181328179 5.625
vertex 251.977321728182 184.175071226146 5.625
endloop
endfacet
facet normal 0.472836017075049 -0.88115044172752 0.0
outer loop
vertex 251.977321728182 184.175071226146 5.625
vertex 248.737304847165 182.594567096788 1.9375
vertex 251.977321728182 184.175071226146 1.9375
endloop
endfacet
facet normal 0.403123119141978 -0.915145753862871 0.0
outer loop
vertex 248.737304847165 182.594567096788 1.9375
vertex 251.977321728182 184.175071226146 5.625
vertex 248.737304847165 182.594567096788 5.625
endloop
endfacet
facet normal 0.403123119141978 -0.915145753862871 0.0
outer loop
vertex 248.737304847165 182.594567096788 5.625
vertex 245.404723205791 181.27983141759 1.9375
vertex 248.737304847165 182.594567096788 1.9375
endloop
endfacet
facet normal 0.330067460281729 -0.943957346315589 0.0
outer loop
vertex 245.404723205791 181.27983141759 1.9375
vertex 248.737304847165 182.594567096788 5.625
vertex 245.404723205791 181.27983141759 5.625
endloop
endfacet
facet normal 0.330067460281729 -0.943957346315589 0.0
outer loop
vertex 245.404723205791 181.27983141759 5.625
vertex 241.996787845852 180.237654110949 1.9375
vertex 245.404723205791 181.27983141759 1.9375
endloop
endfacet
facet normal 0.292440197184498 -0.956283813033919 0.0
outer loop
vertex 241.996787845852 180.237654110949 1.9375
vertex 245.404723205791 181.27983141759 5.625
vertex 241.996787845852 180.237654110949 5.625
endloop
endfacet
facet normal -0.960678553157414 0.277662956663971 0.0
outer loop
vertex 243.455124613993 184.791333016033 5.625
vertex 241.996787845852 180.237654110949 1.9375
vertex 241.996787845852 180.237654110949 5.625
endloop
endfacet
facet normal -0.952353729627605 0.3049956945014 0.0
outer loop
vertex 241.996787845852 180.237654110949 1.9375
vertex 243.455124613993 184.791333016033 5.625
vertex 243.455124613993 184.791333016033 1.9375
endloop
endfacet
facet normal -0.974896473134155 0.222658632598391 0.0
outer loop
vertex 244.656244740296 189.439037083437 5.625
vertex 243.455124613993 184.791333016033 1.9375
vertex 243.455124613993 184.791333016033 5.625
endloop
endfacet
facet normal -0.960678553157414 0.277662956663971 0.0
outer loop
vertex 243.455124613993 184.791333016033 1.9375
vertex 244.656244740296 189.439037083437 5.625
vertex 244.656244740296 189.439037083437 1.9375
endloop
endfacet
facet normal -0.98590704019979 0.167294076656914 0.0
outer loop
vertex 245.59540455421 194.162410799486 5.625
vertex 244.656244740296 189.439037083437 1.9375
vertex 244.656244740296 189.439037083437 5.625
endloop
endfacet
facet normal -0.974896473134155 0.222658632598391 0.0
outer loop
vertex 244.656244740296 189.439037083437 1.9375
vertex 245.59540455421 194.162410799486 5.625
vertex 245.59540455421 194.162410799486 1.9375
endloop
endfacet
facet normal -0.99374541157235 0.111669409324581 0.0
outer loop
vertex 246.268894963987 198.942799802891 5.625
vertex 245.59540455421 194.162410799486 1.9375
vertex 245.59540455421 194.162410799486 5.625
endloop
endfacet
facet normal -0.98590704019979 0.167294076656914 0.0
outer loop
vertex 245.59540455421 194.162410799486 1.9375
vertex 246.268894963987 198.942799802891 5.625
vertex 246.268894963987 198.942799802891 1.9375
endloop
endfacet
facet normal -0.998437708368538 0.0558761354048567 0.0
outer loop
vertex 246.674056105263 203.761324557767 5.625
vertex 246.268894963987 198.942799802891 1.9375
vertex 246.268894963987 198.942799802891 5.625
endloop
endfacet
facet normal -0.99374541157235 0.111669409324581 0.0
outer loop
vertex 246.268894963987 198.942799802891 1.9375
vertex 246.674056105263 203.761324557767 5.625
vertex 246.674056105263 203.761324557767 1.9375
endloop
endfacet
facet normal -1.0 0.0 0.0
outer loop
vertex 246.809287845852 208.598954915949 5.625
vertex 246.674056105263 203.761324557767 1.9375
vertex 246.674056105263 203.761324557767 5.625
endloop
endfacet
facet normal -0.998437708368538 0.0558761354048567 0.0
outer loop
vertex 246.674056105263 203.761324557767 1.9375
vertex 246.809287845852 208.598954915949 5.625
vertex 246.809287845852 208.598954915949 1.9375
endloop
endfacet
facet normal -0.998437708368538 -0.0558761354048567 0.0
outer loop
vertex 246.674056105263 213.43658527413 5.625
vertex 246.809287845852 208.598954915949 1.9375
vertex 246.809287845852 208.598954915949 5.625
endloop
endfacet
facet normal -1.0 0.0 0.0
outer loop
vertex 246.809287845852 208.598954915949 1.9375
vertex 246.674056105263 213.43658527413 5.625
vertex 246.674056105263 213.43658527413 1.9375
endloop
endfacet
facet normal -0.99374541157235 -0.111669409324581 0.0
outer loop
vertex 246.268894963987 218.255110029006 5.625
vertex 246.674056105263 213.43658527413 1.9375
vertex 246.674056105263 213.43658527413 5.625
endloop
endfacet
facet normal -0.998437708368538 -0.0558761354048567 0.0
outer loop
vertex 246.674056105263 213.43658527413 1.9375
vertex 246.268894963987 218.255110029006 5.625
vertex 246.268894963987 218.255110029006 1.9375
endloop
endfacet
facet normal -0.98590704019979 -0.167294076656914 0.0
outer loop
vertex 245.59540455421 223.035499032411 5.625
vertex 246.268894963987 218.255110029006 1.9375
vertex 246.268894963987 218.255110029006 5.625
endloop
endfacet
facet normal -0.99374541157235 -0.111669409324581 0.0
outer loop
vertex 246.268894963987 218.255110029006 1.9375
vertex 245.59540455421 223.035499032411 5.625
vertex 245.59540455421 223.035499032411 1.9375
endloop
endfacet
facet normal -0.974896473134155 -0.222658632598391 0.0
outer loop
vertex 244.656244740296 227.75887274846 5.625
vertex 245.59540455421 223.035499032411 1.9375
vertex 245.59540455421 223.035499032411 5.625
endloop
endfacet
facet normal -0.98590704019979 -0.167294076656914 0.0
outer loop
vertex 245.59540455421 223.035499032411 1.9375
vertex 244.656244740296 227.75887274846 5.625
vertex 244.656244740296 227.75887274846 1.9375
endloop
endfacet
facet normal -0.960678553157414 -0.277662956663971 0.0
outer loop
vertex 243.455124613993 232.406576815864 5.625
vertex 244.656244740296 227.75887274846 1.9375
vertex 244.656244740296 227.75887274846 5.625
endloop
endfacet
facet normal -0.974896473134155 -0.222658632598391 0.0
outer loop
vertex 244.656244740296 227.75887274846 1.9375
vertex 243.455124613993 232.406576815864 5.625
vertex 243.455124613993 232.406576815864 1.9375
endloop
endfacet
facet normal 0.0 0.0 1.0
outer loop
vertex 128.973835968229 188.864487150055 5.68750000000001
vertex 124.491907433925 191.442556843105 5.68750000000001
vertex 122.814589742402 188.153188773839 5.68750000000001
endloop
endfacet
facet normal 0.0 0.0 1.0
outer loop
vertex 124.491907433925 191.442556843105 5.68750000000001
vertex 128.973835968229 188.864487150055 5.68750000000001
vertex 125.877834957932 194.834719671505 5.68750000000001
endloop
endfacet
facet normal 0.0 0.0 1.0
outer loop
vertex 125.877834957932 194.834719671505 5.68750000000001
vertex 128.973835968229 188.864487150055 5.68750000000001
vertex 126.964271036823 198.309848767103 5.68750000000001
endloop
endfacet
facet normal 0.0 0.0 1.0
outer loop
vertex 126.964271036823 198.309848767103 5.68750000000001
vertex 128.973835968229 188.864487150055 5.68750000000001
vertex 127.744865035291 201.847630668335 5.68750000000001
endloop
endfacet
facet normal 0.0 0.0 1.0
outer loop
vertex 127.744865035291 201.847630668335 5.68750000000001
vertex 128.973835968229 188.864487150055 5.68750000000001
vertex 128.215054082218 205.427385683971 5.68750000000001
endloop
endfacet
facet normal 0.0 0.0 1.0
outer loop
vertex 128.215054082218 205.427385683971 5.68750000000001
vertex 128.973835968229 188.864487150055 5.68750000000001
vertex 128.372089742402 209.028188773839 5.68750000000001
endloop
endfacet
facet normal 0.0 0.0 1.0
outer loop
vertex 124.491907433925 226.613820704573 5.68750000000001
vertex 128.973835968229 229.191890397623 5.68750000000001
vertex 122.814589742402 229.903188773839 5.68750000000001
endloop
endfacet
facet normal 0.0 0.0 1.0
outer loop
vertex 128.973835968229 229.191890397623 5.68750000000001
vertex 124.491907433925 226.613820704573 5.68750000000001
vertex 125.877834957932 223.221657876174 5.68750000000001
endloop
endfacet
facet normal 0.0 0.0 1.0
outer loop
vertex 128.973835968229 229.191890397623 5.68750000000001
vertex 125.877834957932 223.221657876174 5.68750000000001
vertex 126.964271036823 219.746528780575 5.68750000000001
endloop
endfacet
facet normal 0.0 0.0 1.0
outer loop
vertex 128.973835968229 229.191890397623 5.68750000000001
vertex 126.964271036823 219.746528780575 5.68750000000001
vertex 127.744865035291 216.208746879343 5.68750000000001
endloop
endfacet
facet normal 0.0 0.0 1.0
outer loop
vertex 128.973835968229 229.191890397623 5.68750000000001
vertex 127.744865035291 216.208746879343 5.68750000000001
vertex 128.215054082218 212.628991863708 5.68750000000001
endloop
endfacet
facet normal 0.0 0.0 1.0
outer loop
vertex 128.973835968229 229.191890397623 5.68750000000001
vertex 128.215054082218 212.628991863708 5.68750000000001
vertex 128.372089742402 209.028188773839 5.68750000000001
endloop
endfacet
facet normal 0.0 0.0 1.0
outer loop
vertex 128.973835968229 229.191890397623 5.68750000000001
vertex 128.372089742402 209.028188773839 5.68750000000001
vertex 128.973835968229 188.864487150055 5.68750000000001
endloop
endfacet
facet normal 0.0 0.0 1.0
outer loop
vertex 128.973835968229 229.191890397623 5.68750000000001
vertex 128.973835968229 188.864487150055 5.68750000000001
vertex 134.713339742402 190.949908469839 5.68750000000001
endloop
endfacet
facet normal 0.0 0.0 1.0
outer loop
vertex 128.973835968229 229.191890397623 5.68750000000001
vertex 134.713339742402 190.949908469839 5.68750000000001
vertex 134.713339742402 227.106469077839 5.68750000000001
endloop
endfacet
facet normal 0.0 0.0 1.0
outer loop
vertex 134.713339742402 227.106469077839 5.68750000000001
vertex 134.713339742402 190.949908469839 5.68750000000001
vertex 139.641963367689 194.26733471657 5.68750000000001
endloop
endfacet
facet normal 0.0 0.0 1.0
outer loop
vertex 134.713339742402 227.106469077839 5.68750000000001
vertex 139.641963367689 194.26733471657 5.68750000000001
vertex 139.641963367689 223.789042831108 5.68750000000001
endloop
endfacet
facet normal 0.0 0.0 1.0
outer loop
vertex 139.641963367689 223.789042831108 5.68750000000001
vertex 139.641963367689 194.26733471657 5.68750000000001
vertex 143.423829288962 198.590688773839 5.68750000000001
endloop
endfacet
facet normal 0.0 0.0 1.0
outer loop
vertex 139.641963367689 223.789042831108 5.68750000000001
vertex 143.423829288962 198.590688773839 5.68750000000001
vertex 143.423829288962 219.465688773839 5.68750000000001
endloop
endfacet
facet normal 0.0 0.0 1.0
outer loop
vertex 143.423829288962 219.465688773839 5.68750000000001
vertex 143.423829288962 198.590688773839 5.68750000000001
vertex 145.801209593516 203.625341207324 5.68750000000001
endloop
endfacet
facet normal 0.0 0.0 1.0
outer loop
vertex 143.423829288962 219.465688773839 5.68750000000001
vertex 145.801209593516 203.625341207324 5.68750000000001
vertex 145.801209593516 214.431036340354 5.68750000000001
endloop
endfacet
facet normal 0.0 0.0 1.0
outer loop
vertex 145.801209593516 214.431036340354 5.68750000000001
vertex 145.801209593516 203.625341207324 5.68750000000001
vertex 146.612089742402 209.028188773839 5.68750000000001
endloop
endfacet
facet normal 0.835307922019379 -0.549782389142893 0.0
outer loop
vertex 143.423829288962 198.590688773839 2.00000000000001
vertex 139.641963367689 194.26733471657 5.68750000000001
vertex 139.641963367689 194.26733471657 2.00000000000001
endloop
endfacet
facet normal 0.659437818308136 -0.751759112871275 0.0
outer loop
vertex 139.641963367689 194.26733471657 5.68750000000001
vertex 143.423829288962 198.590688773839 2.00000000000001
vertex 143.423829288962 198.590688773839 5.68750000000001
endloop
endfacet
facet normal 0.659437818308136 -0.751759112871275 0.0
outer loop
vertex 139.641963367689 194.26733471657 5.68750000000001
vertex 134.713339742402 190.949908469839 2.00000000000001
vertex 139.641963367689 194.26733471657 2.00000000000001
endloop
endfacet
facet normal 0.451809278425311 -0.892114553142588 0.0
outer loop
vertex 134.713339742402 190.949908469839 2.00000000000001
vertex 139.641963367689 194.26733471657 5.68750000000001
vertex 134.713339742402 190.949908469839 5.68750000000001
endloop
endfacet
facet normal 0.451809278425311 -0.892114553142588 0.0
outer loop
vertex 134.713339742402 190.949908469839 5.68750000000001
vertex 128.973835968229 188.864487150055 2.00000000000001
vertex 134.713339742402 190.949908469839 2.00000000000001
endloop
endfacet
facet normal 0.228807834783397 -0.973471609622866 0.0
outer loop
vertex 128.973835968229 188.864487150055 2.00000000000001
vertex 134.713339742402 190.949908469839 5.68750000000001
vertex 128.973835968229 188.864487150055 5.68750000000001
endloop
endfacet
facet normal 0.228807834783397 -0.973471609622866 0.0
outer loop
vertex 128.973835968229 188.864487150055 5.68750000000001
vertex 122.814589742402 188.153188773839 2.00000000000001
vertex 128.973835968229 188.864487150055 2.00000000000001
endloop
endfacet
facet normal 0.11472217299463 -0.993397615772954 0.0
outer loop
vertex 122.814589742402 188.153188773839 2.00000000000001
vertex 128.973835968229 188.864487150055 5.68750000000001
vertex 122.814589742402 188.153188773839 5.68750000000001
endloop
endfacet
facet normal -0.909019630676489 0.41675329758117 0.0
outer loop
vertex 124.491907433925 191.442556843105 5.68750000000001
vertex 122.814589742402 188.153188773839 2.00000000000001
vertex 122.814589742402 188.153188773839 5.68750000000001
endloop
endfacet
facet normal -0.890863956831118 0.454270195389488 0.0
outer loop
vertex 122.814589742402 188.153188773839 2.00000000000001
vertex 124.491907433925 191.442556843105 5.68750000000001
vertex 124.491907433925 191.442556843105 2.00000000000001
endloop
endfacet
facet normal -0.94088136375591 0.338736268115505 0.0
outer loop
vertex 125.877834957932 194.834719671505 5.68750000000001
vertex 124.491907433925 191.442556843105 2.00000000000001
vertex 124.491907433925 191.442556843105 5.68750000000001
endloop
endfacet
facet normal -0.909019630676489 0.41675329758117 0.0
outer loop
vertex 124.491907433925 191.442556843105 2.00000000000001
vertex 125.877834957932 194.834719671505 5.68750000000001
vertex 125.877834957932 194.834719671505 2.00000000000001
endloop
endfacet
facet normal -0.966340503480863 0.257266459788974 0.0
outer loop
vertex 126.964271036823 198.309848767103 5.68750000000001
vertex 125.877834957932 194.834719671505 2.00000000000001
vertex 125.877834957932 194.834719671505 5.68750000000001
endloop
endfacet
facet normal -0.94088136375591 0.338736268115505 0.0
outer loop
vertex 125.877834957932 194.834719671505 2.00000000000001
vertex 126.964271036823 198.309848767103 5.68750000000001
vertex 126.964271036823 198.309848767103 2.00000000000001
endloop
endfacet
facet normal -0.984907705631712 0.173080361067559 0.0
outer loop
vertex 127.744865035291 201.847630668335 5.68750000000001
vertex 126.964271036823 198.309848767103 2.00000000000001
vertex 126.964271036823 198.309848767103 5.68750000000001
endloop
endfacet
facet normal -0.966340503480863 0.257266459788974 0.0
outer loop
vertex 126.964271036823 198.309848767103 2.00000000000001
vertex 127.744865035291 201.847630668335 5.68750000000001
vertex 127.744865035291 201.847630668335 2.00000000000001
endloop
endfacet
facet normal -0.996206646765838 0.0870190607830506 0.0
outer loop
vertex 128.215054082218 205.427385683971 5.68750000000001
vertex 127.744865035291 201.847630668335 2.00000000000001
vertex 127.744865035291 201.847630668335 5.68750000000001
endloop
endfacet
facet normal -0.984907705631712 0.173080361067559 0.0
outer loop
vertex 127.744865035291 201.847630668335 2.00000000000001
vertex 128.215054082218 205.427385683971 5.68750000000001
vertex 128.215054082218 205.427385683971 2.00000000000001
endloop
endfacet
facet normal -1.0 4.49276940108205e-15 0.0
outer loop
vertex 128.372089742402 209.028188773839 5.68750000000001
vertex 128.215054082218 205.427385683971 2.00000000000001
vertex 128.215054082218 205.427385683971 5.68750000000001
endloop
endfacet
facet normal -0.996206646765838 0.0870190607830506 0.0
outer loop
vertex 128.215054082218 205.427385683971 2.00000000000001
vertex 128.372089742402 209.028188773839 5.68750000000001
vertex 128.372089742402 209.028188773839 2.00000000000001
endloop
endfacet
facet normal -0.996206646765838 -0.0870190607830506 0.0
outer loop
vertex 128.215054082218 212.628991863708 5.68750000000001
vertex 128.372089742402 209.028188773839 2.00000000000001
vertex 128.372089742402 209.028188773839 5.68750000000001
endloop
endfacet
facet normal -1.0 4.49276940108205e-15 0.0
outer loop
vertex 128.372089742402 209.028188773839 2.00000000000001
vertex 128.215054082218 212.628991863708 5.68750000000001
vertex 128.215054082218 212.628991863708 2.00000000000001
endloop
endfacet
facet normal -0.984907705631711 -0.173080361067568 0.0
outer loop
vertex 127.744865035291 216.208746879343 5.68750000000001
vertex 128.215054082218 212.628991863708 2.00000000000001
vertex 128.215054082218 212.628991863708 5.68750000000001
endloop
endfacet
facet normal -0.996206646765838 -0.0870190607830506 0.0
outer loop
vertex 128.215054082218 212.628991863708 2.00000000000001
vertex 127.744865035291 216.208746879343 5.68750000000001
vertex 127.744865035291 216.208746879343 2.00000000000001
endloop
endfacet
facet normal -0.966340503480863 -0.257266459788974 0.0
outer loop
vertex 126.964271036823 219.746528780575 5.68750000000001
vertex 127.744865035291 216.208746879343 2.00000000000001
vertex 127.744865035291 216.208746879343 5.68750000000001
endloop
endfacet
facet normal -0.984907705631711 -0.173080361067568 0.0
outer loop
vertex 127.744865035291 216.208746879343 2.00000000000001
vertex 126.964271036823 219.746528780575 5.68750000000001
vertex 126.964271036823 219.746528780575 2.00000000000001
endloop
endfacet
facet normal -0.940881363755911 -0.338736268115502 0.0
outer loop
vertex 125.877834957932 223.221657876174 5.68750000000001
vertex 126.964271036823 219.746528780575 2.00000000000001
vertex 126.964271036823 219.746528780575 5.68750000000001
endloop
endfacet
facet normal -0.966340503480863 -0.257266459788974 0.0
outer loop
vertex 126.964271036823 219.746528780575 2.00000000000001
vertex 125.877834957932 223.221657876174 5.68750000000001
vertex 125.877834957932 223.221657876174 2.00000000000001
endloop
endfacet
facet normal -0.909019630676489 -0.41675329758117 0.0
outer loop
vertex 124.491907433925 226.613820704573 5.68750000000001
vertex 125.877834957932 223.221657876174 2.00000000000001
vertex 125.877834957932 223.221657876174 5.68750000000001
endloop
endfacet
facet normal -0.940881363755911 -0.338736268115502 0.0
outer loop
vertex 125.877834957932 223.221657876174 2.00000000000001
vertex 124.491907433925 226.613820704573 5.68750000000001
vertex 124.491907433925 226.613820704573 2.00000000000001
endloop
endfacet
facet normal 0.95637655116826 -0.292136769981982 0.0
outer loop
vertex 145.801209593516 203.625341207324 2.00000000000001
vertex 143.423829288962 198.590688773839 5.68750000000001
vertex 143.423829288962 198.590688773839 2.00000000000001
endloop
endfacet
facet normal 0.835307922019379 -0.549782389142893 0.0
outer loop
vertex 143.423829288962 198.590688773839 5.68750000000001
vertex 145.801209593516 203.625341207324 2.00000000000001
vertex 145.801209593516 203.625341207324 5.68750000000001
endloop
endfacet
facet normal 0.451809278425311 0.892114553142588 0.0
outer loop
vertex 134.713339742402 227.106469077839 5.68750000000001
vertex 139.641963367689 223.789042831108 2.00000000000001
vertex 134.713339742402 227.106469077839 2.00000000000001
endloop
endfacet
facet normal 0.659437818308136 0.751759112871275 0.0
outer loop
vertex 139.641963367689 223.789042831108 2.00000000000001
vertex 134.713339742402 227.106469077839 5.68750000000001
vertex 139.641963367689 223.789042831108 5.68750000000001
endloop
endfacet
facet normal 0.659437818308136 0.751759112871275 0.0
outer loop
vertex 139.641963367689 223.789042831108 2.00000000000001
vertex 143.423829288962 219.465688773839 5.68750000000001
vertex 143.423829288962 219.465688773839 2.00000000000001
endloop
endfacet
facet normal 0.835307922019379 0.549782389142893 0.0
outer loop
vertex 143.423829288962 219.465688773839 5.68750000000001
vertex 139.641963367689 223.789042831108 2.00000000000001
vertex 139.641963367689 223.789042831108 5.68750000000001
endloop
endfacet
facet normal 0.835307922019379 0.549782389142893 0.0
outer loop
vertex 143.423829288962 219.465688773839 2.00000000000001
vertex 145.801209593516 214.431036340354 5.68750000000001
vertex 145.801209593516 214.431036340354 2.00000000000001
endloop
endfacet
facet normal 0.95637655116826 0.292136769981982 0.0
outer loop
vertex 145.801209593516 214.431036340354 5.68750000000001
vertex 143.423829288962 219.465688773839 2.00000000000001
vertex 143.423829288962 219.465688773839 5.68750000000001
endloop
endfacet
facet normal 0.95637655116826 0.292136769981982 0.0
outer loop
vertex 145.801209593516 214.431036340354 2.00000000000001
vertex 146.612089742402 209.028188773839 5.68750000000001
vertex 146.612089742402 209.028188773839 2.00000000000001
endloop
endfacet
facet normal 1.0 0.0 0.0
outer loop
vertex 146.612089742402 209.028188773839 5.68750000000001
vertex 145.801209593516 214.431036340354 2.00000000000001
vertex 145.801209593516 214.431036340354 5.68750000000001
endloop
endfacet
facet normal -0.890863956831118 -0.454270195389488 0.0
outer loop
vertex 122.814589742402 229.903188773839 5.68750000000001
vertex 124.491907433925 226.613820704573 2.00000000000001
vertex 124.491907433925 226.613820704573 5.68750000000001
endloop
endfacet
facet normal -0.909019630676489 -0.41675329758117 0.0
outer loop
vertex 124.491907433925 226.613820704573 2.00000000000001
vertex 122.814589742402 229.903188773839 5.68750000000001
vertex 122.814589742402 229.903188773839 2.00000000000001
endloop
endfacet
facet normal 0.11472217299463 0.993397615772954 0.0
outer loop
vertex 122.814589742402 229.903188773839 5.68750000000001
vertex 128.973835968229 229.191890397623 2.00000000000001
vertex 122.814589742402 229.903188773839 2.00000000000001
endloop
endfacet
facet normal 0.228807834783397 0.973471609622866 0.0
outer loop
vertex 128.973835968229 229.191890397623 2.00000000000001
vertex 122.814589742402 229.903188773839 5.68750000000001
vertex 128.973835968229 229.191890397623 5.68750000000001
endloop
endfacet
facet normal 0.228807834783397 0.973471609622866 0.0
outer loop
vertex 128.973835968229 229.191890397623 5.68750000000001
vertex 134.713339742402 227.106469077839 2.00000000000001
vertex 128.973835968229 229.191890397623 2.00000000000001
endloop
endfacet
facet normal 0.451809278425311 0.892114553142588 0.0
outer loop
vertex 134.713339742402 227.106469077839 2.00000000000001
vertex 128.973835968229 229.191890397623 5.68750000000001
vertex 134.713339742402 227.106469077839 5.68750000000001
endloop
endfacet
facet normal 1.0 0.0 0.0
outer loop
vertex 146.612089742402 209.028188773839 2.00000000000001
vertex 145.801209593516 203.625341207324 5.68750000000001
vertex 145.801209593516 203.625341207324 2.00000000000001
endloop
endfacet
facet normal 0.95637655116826 -0.292136769981982 0.0
outer loop
vertex 145.801209593516 203.625341207324 5.68750000000001
vertex 146.612089742402 209.028188773839 2.00000000000001
vertex 146.612089742402 209.028188773839 5.68750000000001
endloop
endfacet
facet normal 0.0 0.0 -1.0
outer loop
vertex 128.973835968229 229.191890397623 2.00000000000001
vertex 124.491907433925 226.613820704573 2.00000000000001
vertex 122.814589742402 229.903188773839 2.00000000000001
endloop
endfacet
facet normal 0.0 0.0 -1.0
outer loop
vertex 124.491907433925 226.613820704573 2.00000000000001
vertex 128.973835968229 229.191890397623 2.00000000000001
vertex 125.877834957932 223.221657876174 2.00000000000001
endloop
endfacet
facet normal 0.0 0.0 -1.0
outer loop
vertex 125.877834957932 223.221657876174 2.00000000000001
vertex 128.973835968229 229.191890397623 2.00000000000001
vertex 126.964271036823 219.746528780575 2.00000000000001
endloop
endfacet
facet normal 0.0 0.0 -1.0
outer loop
vertex 126.964271036823 219.746528780575 2.00000000000001
vertex 128.973835968229 229.191890397623 2.00000000000001
vertex 127.744865035291 216.208746879343 2.00000000000001
endloop
endfacet
facet normal 0.0 0.0 -1.0
outer loop
vertex 127.744865035291 216.208746879343 2.00000000000001
vertex 128.973835968229 229.191890397623 2.00000000000001
vertex 128.215054082218 212.628991863708 2.00000000000001
endloop
endfacet
facet normal 0.0 0.0 -1.0
outer loop
vertex 128.215054082218 212.628991863708 2.00000000000001
vertex 128.973835968229 229.191890397623 2.00000000000001
vertex 128.372089742402 209.028188773839 2.00000000000001
endloop
endfacet
facet normal 0.0 0.0 -1.0
outer loop
vertex 124.491907433925 191.442556843105 2.00000000000001
vertex 128.973835968229 188.864487150055 2.00000000000001
vertex 122.814589742402 188.153188773839 2.00000000000001
endloop
endfacet
facet normal 0.0 0.0 -1.0
outer loop
vertex 128.973835968229 188.864487150055 2.00000000000001
vertex 124.491907433925 191.442556843105 2.00000000000001
vertex 125.877834957932 194.834719671505 2.00000000000001
endloop
endfacet
facet normal 0.0 0.0 -1.0
outer loop
vertex 128.973835968229 188.864487150055 2.00000000000001
vertex 125.877834957932 194.834719671505 2.00000000000001
vertex 126.964271036823 198.309848767103 2.00000000000001
endloop
endfacet
facet normal 0.0 0.0 -1.0
outer loop
vertex 128.973835968229 188.864487150055 2.00000000000001
vertex 126.964271036823 198.309848767103 2.00000000000001
vertex 127.744865035291 201.847630668335 2.00000000000001
endloop
endfacet
facet normal 0.0 0.0 -1.0
outer loop
vertex 128.973835968229 188.864487150055 2.00000000000001
vertex 127.744865035291 201.847630668335 2.00000000000001
vertex 128.215054082218 205.427385683971 2.00000000000001
endloop
endfacet
facet normal 0.0 0.0 -1.0
outer loop
vertex 128.973835968229 188.864487150055 2.00000000000001
vertex 128.215054082218 205.427385683971 2.00000000000001
vertex 128.372089742402 209.028188773839 2.00000000000001
endloop
endfacet
facet normal 0.0 0.0 -1.0
outer loop
vertex 128.973835968229 188.864487150055 2.00000000000001
vertex 128.372089742402 209.028188773839 2.00000000000001
vertex 128.973835968229 229.191890397623 2.00000000000001
endloop
endfacet
facet normal 0.0 0.0 -1.0
outer loop
vertex 128.973835968229 188.864487150055 2.00000000000001
vertex 128.973835968229 229.191890397623 2.00000000000001
vertex 134.713339742402 227.106469077839 2.00000000000001
endloop
endfacet
facet normal 0.0 0.0 -1.0
outer loop
vertex 128.973835968229 188.864487150055 2.00000000000001
vertex 134.713339742402 227.106469077839 2.00000000000001
vertex 134.713339742402 190.949908469839 2.00000000000001
endloop
endfacet
facet normal 0.0 0.0 -1.0
outer loop
vertex 134.713339742402 190.949908469839 2.00000000000001
vertex 134.713339742402 227.106469077839 2.00000000000001
vertex 139.641963367689 223.789042831108 2.00000000000001
endloop
endfacet
facet normal 0.0 0.0 -1.0
outer loop
vertex 134.713339742402 190.949908469839 2.00000000000001
vertex 139.641963367689 223.789042831108 2.00000000000001
vertex 139.641963367689 194.26733471657 2.00000000000001
endloop
endfacet
facet normal 0.0 0.0 -1.0
outer loop
vertex 139.641963367689 194.26733471657 2.00000000000001
vertex 139.641963367689 223.789042831108 2.00000000000001
vertex 143.423829288962 219.465688773839 2.00000000000001
endloop
endfacet
facet normal 0.0 0.0 -1.0
outer loop
vertex 139.641963367689 194.26733471657 2.00000000000001
vertex 143.423829288962 219.465688773839 2.00000000000001
vertex 143.423829288962 198.590688773839 2.00000000000001
endloop
endfacet
facet normal 0.0 0.0 -1.0
outer loop
vertex 143.423829288962 198.590688773839 2.00000000000001
vertex 143.423829288962 219.465688773839 2.00000000000001
vertex 145.801209593516 214.431036340354 2.00000000000001
endloop
endfacet
facet normal 0.0 0.0 -1.0
outer loop
vertex 143.423829288962 198.590688773839 2.00000000000001
vertex 145.801209593516 214.431036340354 2.00000000000001
vertex 145.801209593516 203.625341207324 2.00000000000001
endloop
endfacet
facet normal 0.0 0.0 -1.0
outer loop
vertex 145.801209593516 203.625341207324 2.00000000000001
vertex 145.801209593516 214.431036340354 2.00000000000001
vertex 146.612089742402 209.028188773839 2.00000000000001
endloop
endfacet
facet normal 0.0 0.0 -1.0
outer loop
vertex 121.072445762083 267.540795930592 0.0
vertex 140.274639211509 217.809113708236 1.4210854715202e-14
vertex 121.072445762083 157.353295930592 0.0
endloop
endfacet
facet normal 0.0 0.0 -1.0
outer loop
vertex 140.274639211509 217.809113708236 1.4210854715202e-14
vertex 121.072445762083 267.540795930592 0.0
vertex 146.637047369773 226.564434585305 1.4210854715202e-14
endloop
endfacet
facet normal 0.0 0.0 -1.0
outer loop
vertex 146.637047369773 226.564434585305 1.4210854715202e-14
vertex 121.072445762083 267.540795930592 0.0
vertex 156.758177146476 234.082799067591 1.4210854715202e-14
endloop
endfacet
facet normal 0.0 0.0 -1.0
outer loop
vertex 156.758177146476 234.082799067591 1.4210854715202e-14
vertex 121.072445762083 267.540795930592 0.0
vertex 169.948290273294 239.851843040312 1.4210854715202e-14
endloop
endfacet
facet normal 0.0 0.0 -1.0
outer loop
vertex 169.948290273294 239.851843040312 1.4210854715202e-14
vertex 121.072445762083 267.540795930592 0.0
vertex 185.308502338327 243.478415690522 1.4210854715202e-14
endloop
endfacet
facet normal 0.0 0.0 -1.0
outer loop
vertex 185.308502338327 243.478415690522 1.4210854715202e-14
vertex 121.072445762083 267.540795930592 0.0
vertex 287.572445762083 267.540795930592 0.0
endloop
endfacet
facet normal 0.0 0.0 -1.0
outer loop
vertex 121.072445762083 157.353295930592 0.0
vertex 140.274639211509 217.809113708236 1.4210854715202e-14
vertex 138.104540273294 208.413497085305 1.4210854715202e-14
endloop
endfacet
facet normal 0.0 0.0 -1.0
outer loop
vertex 185.308502338327 243.478415690522 1.4210854715202e-14
vertex 287.572445762083 267.540795930592 0.0
vertex 201.792040273294 244.715372085305 1.4210854715202e-14
endloop
endfacet
facet normal 0.0 0.0 -1.0
outer loop
vertex 201.792040273294 244.715372085305 1.4210854715202e-14
vertex 287.572445762083 267.540795930592 0.0
vertex 218.275578208261 243.478415690522 1.4210854715202e-14
endloop
endfacet
facet normal 0.0 0.0 -1.0
outer loop
vertex 218.275578208261 243.478415690522 1.4210854715202e-14
vertex 287.572445762083 267.540795930592 0.0
vertex 233.635790273294 239.851843040312 1.4210854715202e-14
endloop
endfacet
facet normal 0.0 0.0 -1.0
outer loop
vertex 233.635790273294 239.851843040312 1.4210854715202e-14
vertex 287.572445762083 267.540795930592 0.0
vertex 246.825903400112 234.082799067591 1.4210854715202e-14
endloop
endfacet
facet normal 0.0 0.0 -1.0
outer loop
vertex 246.825903400112 234.082799067591 1.4210854715202e-14
vertex 287.572445762083 267.540795930592 0.0
vertex 256.947033176816 226.564434585305 1.4210854715202e-14
endloop
endfacet
facet normal 0.0 0.0 -1.0
outer loop
vertex 256.947033176816 226.564434585305 1.4210854715202e-14
vertex 287.572445762083 267.540795930592 0.0
vertex 263.309441335079 217.809113708236 1.4210854715202e-14
endloop
endfacet
facet normal 0.0 0.0 -1.0
outer loop
vertex 263.309441335079 217.809113708236 1.4210854715202e-14
vertex 287.572445762083 267.540795930592 0.0
vertex 265.479540273294 208.413497085305 1.4210854715202e-14
endloop
endfacet
facet normal 0.0 0.0 -1.0
outer loop
vertex 121.072445762083 157.353295930592 0.0
vertex 185.308502338327 173.348578480087 1.4210854715202e-14
vertex 287.572445762083 157.353295930592 0.0
endloop
endfacet
facet normal 0.0 0.0 -1.0
outer loop
vertex 185.308502338327 173.348578480087 1.4210854715202e-14
vertex 121.072445762083 157.353295930592 0.0
vertex 169.948290273294 176.975151130297 1.4210854715202e-14
endloop
endfacet
facet normal 0.0 0.0 -1.0
outer loop
vertex 169.948290273294 176.975151130297 1.4210854715202e-14
vertex 121.072445762083 157.353295930592 0.0
vertex 156.758177146476 182.744195103018 1.4210854715202e-14
endloop
endfacet
facet normal 0.0 0.0 -1.0
outer loop
vertex 156.758177146476 182.744195103018 1.4210854715202e-14
vertex 121.072445762083 157.353295930592 0.0
vertex 146.637047369773 190.262559585305 1.4210854715202e-14
endloop
endfacet
facet normal 0.0 0.0 -1.0
outer loop
vertex 146.637047369773 190.262559585305 1.4210854715202e-14
vertex 121.072445762083 157.353295930592 0.0
vertex 140.274639211509 199.017880462374 1.4210854715202e-14
endloop
endfacet
facet normal 0.0 0.0 -1.0
outer loop
vertex 140.274639211509 199.017880462374 1.4210854715202e-14
vertex 121.072445762083 157.353295930592 0.0
vertex 138.104540273294 208.413497085305 1.4210854715202e-14
endloop
endfacet
facet normal 0.0 0.0 -1.0
outer loop
vertex 287.572445762083 157.353295930592 0.0
vertex 185.308502338327 173.348578480087 1.4210854715202e-14
vertex 201.792040273294 172.111622085305 1.4210854715202e-14
endloop
endfacet
facet normal 0.0 0.0 -1.0
outer loop
vertex 287.572445762083 157.353295930592 0.0
vertex 201.792040273294 172.111622085305 1.4210854715202e-14
vertex 218.275578208261 173.348578480087 1.4210854715202e-14
endloop
endfacet
facet normal 0.0 0.0 -1.0
outer loop
vertex 287.572445762083 157.353295930592 0.0
vertex 218.275578208261 173.348578480087 1.4210854715202e-14
vertex 233.635790273294 176.975151130297 1.4210854715202e-14
endloop
endfacet
facet normal 0.0 0.0 -1.0
outer loop
vertex 287.572445762083 157.353295930592 0.0
vertex 233.635790273294 176.975151130297 1.4210854715202e-14
vertex 246.825903400112 182.744195103018 1.4210854715202e-14
endloop
endfacet
facet normal 0.0 0.0 -1.0
outer loop
vertex 287.572445762083 157.353295930592 0.0
vertex 246.825903400112 182.744195103018 1.4210854715202e-14
vertex 256.947033176816 190.262559585305 1.4210854715202e-14
endloop
endfacet
facet normal 0.0 0.0 -1.0
outer loop
vertex 287.572445762083 157.353295930592 0.0
vertex 256.947033176816 190.262559585305 1.4210854715202e-14
vertex 263.309441335079 199.017880462374 1.4210854715202e-14
endloop
endfacet
facet normal 0.0 0.0 -1.0
outer loop
vertex 287.572445762083 157.353295930592 0.0
vertex 263.309441335079 199.017880462374 1.4210854715202e-14
vertex 265.479540273294 208.413497085305 1.4210854715202e-14
endloop
endfacet
facet normal 0.0 0.0 -1.0
outer loop
vertex 287.572445762083 157.353295930592 0.0
vertex 265.479540273294 208.413497085305 1.4210854715202e-14
vertex 287.572445762083 267.540795930592 0.0
endloop
endfacet
facet normal 0.0 1.0 0.0
outer loop
vertex 121.072445762083 267.540795930592 2.0
vertex 287.572445762083 267.540795930592 0.0
vertex 121.072445762083 267.540795930592 0.0
endloop
endfacet
facet normal 0.0 1.0 0.0
outer loop
vertex 287.572445762083 267.540795930592 0.0
vertex 121.072445762083 267.540795930592 2.0
vertex 287.572445762083 267.540795930592 2.0
endloop
endfacet
facet normal 0.0 0.0 1.0
outer loop
vertex 121.072445762083 157.353295930592 2.0
vertex 140.274639211509 199.017880462374 2.00000000000001
vertex 121.072445762083 267.540795930592 2.0
endloop
endfacet
facet normal 0.0 0.0 1.0
outer loop
vertex 140.274639211509 199.017880462374 2.00000000000001
vertex 121.072445762083 157.353295930592 2.0
vertex 146.637047369773 190.262559585305 2.00000000000001
endloop
endfacet
facet normal 0.0 0.0 1.0
outer loop
vertex 146.637047369773 190.262559585305 2.00000000000001
vertex 121.072445762083 157.353295930592 2.0
vertex 156.758177146476 182.744195103018 2.00000000000001
endloop
endfacet
facet normal 0.0 0.0 1.0
outer loop
vertex 156.758177146476 182.744195103018 2.00000000000001
vertex 121.072445762083 157.353295930592 2.0
vertex 169.948290273294 176.975151130297 2.00000000000001
endloop
endfacet
facet normal 0.0 0.0 1.0
outer loop
vertex 169.948290273294 176.975151130297 2.00000000000001
vertex 121.072445762083 157.353295930592 2.0
vertex 185.308502338327 173.348578480087 2.00000000000001
endloop
endfacet
facet normal 0.0 0.0 1.0
outer loop
vertex 185.308502338327 173.348578480087 2.00000000000001
vertex 121.072445762083 157.353295930592 2.0
vertex 287.572445762083 157.353295930592 2.0
endloop
endfacet
facet normal 0.0 0.0 1.0
outer loop
vertex 121.072445762083 267.540795930592 2.0
vertex 140.274639211509 199.017880462374 2.00000000000001
vertex 138.104540273294 208.413497085305 2.00000000000001
endloop
endfacet
facet normal 0.0 0.0 1.0
outer loop
vertex 185.308502338327 173.348578480087 2.00000000000001
vertex 287.572445762083 157.353295930592 2.0
vertex 201.792040273294 172.111622085305 2.00000000000001
endloop
endfacet
facet normal 0.0 0.0 1.0
outer loop
vertex 201.792040273294 172.111622085305 2.00000000000001
vertex 287.572445762083 157.353295930592 2.0
vertex 218.275578208261 173.348578480087 2.00000000000001
endloop
endfacet
facet normal 0.0 0.0 1.0
outer loop
vertex 218.275578208261 173.348578480087 2.00000000000001
vertex 287.572445762083 157.353295930592 2.0
vertex 233.635790273294 176.975151130297 2.00000000000001
endloop
endfacet
facet normal 0.0 0.0 1.0
outer loop
vertex 233.635790273294 176.975151130297 2.00000000000001
vertex 287.572445762083 157.353295930592 2.0
vertex 246.825903400112 182.744195103018 2.00000000000001
endloop
endfacet
facet normal 0.0 0.0 1.0
outer loop
vertex 246.825903400112 182.744195103018 2.00000000000001
vertex 287.572445762083 157.353295930592 2.0
vertex 256.947033176816 190.262559585305 2.00000000000001
endloop
endfacet
facet normal 0.0 0.0 1.0
outer loop
vertex 256.947033176816 190.262559585305 2.00000000000001
vertex 287.572445762083 157.353295930592 2.0
vertex 263.309441335079 199.017880462374 2.00000000000001
endloop
endfacet
facet normal 0.0 0.0 1.0
outer loop
vertex 263.309441335079 199.017880462374 2.00000000000001
vertex 287.572445762083 157.353295930592 2.0
vertex 265.479540273294 208.413497085305 2.00000000000001
endloop
endfacet
facet normal 0.0 0.0 1.0
outer loop
vertex 121.072445762083 267.540795930592 2.0
vertex 185.308502338327 243.478415690522 2.00000000000001
vertex 287.572445762083 267.540795930592 2.0
endloop
endfacet
facet normal 0.0 0.0 1.0
outer loop
vertex 185.308502338327 243.478415690522 2.00000000000001
vertex 121.072445762083 267.540795930592 2.0
vertex 169.948290273294 239.851843040312 2.00000000000001
endloop
endfacet
facet normal 0.0 0.0 1.0
outer loop
vertex 169.948290273294 239.851843040312 2.00000000000001
vertex 121.072445762083 267.540795930592 2.0
vertex 156.758177146476 234.082799067591 2.00000000000001
endloop
endfacet
facet normal 0.0 0.0 1.0
outer loop
vertex 156.758177146476 234.082799067591 2.00000000000001
vertex 121.072445762083 267.540795930592 2.0
vertex 146.637047369773 226.564434585305 2.00000000000001
endloop
endfacet
facet normal 0.0 0.0 1.0
outer loop
vertex 146.637047369773 226.564434585305 2.00000000000001
vertex 121.072445762083 267.540795930592 2.0
vertex 140.274639211509 217.809113708236 2.00000000000001
endloop
endfacet
facet normal 0.0 0.0 1.0
outer loop
vertex 140.274639211509 217.809113708236 2.00000000000001
vertex 121.072445762083 267.540795930592 2.0
vertex 138.104540273294 208.413497085305 2.00000000000001
endloop
endfacet
facet normal 0.0 0.0 1.0
outer loop
vertex 287.572445762083 267.540795930592 2.0
vertex 185.308502338327 243.478415690522 2.00000000000001
vertex 201.792040273294 244.715372085305 2.00000000000001
endloop
endfacet
facet normal 0.0 0.0 1.0
outer loop
vertex 287.572445762083 267.540795930592 2.0
vertex 201.792040273294 244.715372085305 2.00000000000001
vertex 218.275578208261 243.478415690522 2.00000000000001
endloop
endfacet
facet normal 0.0 0.0 1.0
outer loop
vertex 287.572445762083 267.540795930592 2.0
vertex 218.275578208261 243.478415690522 2.00000000000001
vertex 233.635790273294 239.851843040312 2.00000000000001
endloop
endfacet
facet normal 0.0 0.0 1.0
outer loop
vertex 287.572445762083 267.540795930592 2.0
vertex 233.635790273294 239.851843040312 2.00000000000001
vertex 246.825903400112 234.082799067591 2.00000000000001
endloop
endfacet
facet normal 0.0 0.0 1.0
outer loop
vertex 287.572445762083 267.540795930592 2.0
vertex 246.825903400112 234.082799067591 2.00000000000001
vertex 256.947033176816 226.564434585305 2.00000000000001
endloop
endfacet
facet normal 0.0 0.0 1.0
outer loop
vertex 287.572445762083 267.540795930592 2.0
vertex 256.947033176816 226.564434585305 2.00000000000001
vertex 263.309441335079 217.809113708236 2.00000000000001
endloop
endfacet
facet normal 0.0 0.0 1.0
outer loop
vertex 287.572445762083 267.540795930592 2.0
vertex 263.309441335079 217.809113708236 2.00000000000001
vertex 265.479540273294 208.413497085305 2.00000000000001
endloop
endfacet
facet normal 0.0 0.0 1.0
outer loop
vertex 287.572445762083 267.540795930592 2.0
vertex 265.479540273294 208.413497085305 2.00000000000001
vertex 287.572445762083 157.353295930592 2.0
endloop
endfacet
facet normal -0.909921290056406 -0.414780961354407 0.0
outer loop
vertex 263.309441335079 217.809113708236 2.00000000000001
vertex 265.479540273294 208.413497085305 1.4210854715202e-14
vertex 265.479540273294 208.413497085305 2.00000000000001
endloop
endfacet
facet normal -1.0 -9.61151668561139e-16 0.0
outer loop
vertex 265.479540273294 208.413497085305 1.4210854715202e-14
vertex 263.309441335079 217.809113708236 2.00000000000001
vertex 263.309441335079 217.809113708236 1.4210854715202e-14
endloop
endfacet
facet normal 1.0 0.0 0.0
outer loop
vertex 287.572445762083 267.540795930592 0.0
vertex 287.572445762083 157.353295930592 2.0
vertex 287.572445762083 157.353295930592 0.0
endloop
endfacet
facet normal 1.0 0.0 0.0
outer loop
vertex 287.572445762083 157.353295930592 2.0
vertex 287.572445762083 267.540795930592 0.0
vertex 287.572445762083 267.540795930592 2.0
endloop
endfacet
facet normal -0.0 -1.0 -0.0
outer loop
vertex 287.572445762083 157.353295930592 2.0
vertex 121.072445762083 157.353295930592 0.0
vertex 287.572445762083 157.353295930592 0.0
endloop
endfacet
facet normal -0.0 -1.0 -0.0
outer loop
vertex 121.072445762083 157.353295930592 0.0
vertex 287.572445762083 157.353295930592 2.0
vertex 121.072445762083 157.353295930592 2.0
endloop
endfacet
facet normal -1.0 0.0 0.0
outer loop
vertex 121.072445762083 267.540795930592 2.0
vertex 121.072445762083 157.353295930592 0.0
vertex 121.072445762083 157.353295930592 2.0
endloop
endfacet
facet normal -1.0 0.0 0.0
outer loop
vertex 121.072445762083 157.353295930592 0.0
vertex 121.072445762083 267.540795930592 2.0
vertex 121.072445762083 267.540795930592 0.0
endloop
endfacet
facet normal -1.0 -9.61151668561139e-16 0.0
outer loop
vertex 265.479540273294 208.413497085305 2.00000000000001
vertex 263.309441335079 199.017880462374 1.4210854715202e-14
vertex 263.309441335079 199.017880462374 2.00000000000001
endloop
endfacet
facet normal -0.909921290056405 0.414780961354409 0.0
outer loop
vertex 263.309441335079 199.017880462374 1.4210854715202e-14
vertex 265.479540273294 208.413497085305 2.00000000000001
vertex 265.479540273294 208.413497085305 1.4210854715202e-14
endloop
endfacet
facet normal -0.71080461741532 -0.703389505083109 0.0
outer loop
vertex 256.947033176816 226.564434585305 2.00000000000001
vertex 263.309441335079 217.809113708236 1.4210854715202e-14
vertex 263.309441335079 217.809113708236 2.00000000000001
endloop
endfacet
facet normal -0.909921290056406 -0.414780961354407 0.0
outer loop
vertex 263.309441335079 217.809113708236 1.4210854715202e-14
vertex 256.947033176816 226.564434585305 2.00000000000001
vertex 256.947033176816 226.564434585305 1.4210854715202e-14
endloop
endfacet
facet normal -0.71080461741532 -0.703389505083109 0.0
outer loop
vertex 256.947033176816 226.564434585305 2.00000000000001
vertex 246.825903400112 234.082799067591 1.4210854715202e-14
vertex 256.947033176816 226.564434585305 1.4210854715202e-14
endloop
endfacet
facet normal -0.501735840114374 -0.865020893819752 0.0
outer loop
vertex 246.825903400112 234.082799067591 1.4210854715202e-14
vertex 256.947033176816 226.564434585305 2.00000000000001
vertex 246.825903400112 234.082799067591 2.00000000000001
endloop
endfacet
facet normal -0.501735840114374 -0.865020893819752 0.0
outer loop
vertex 246.825903400112 234.082799067591 2.00000000000001
vertex 233.635790273294 239.851843040312 1.4210854715202e-14
vertex 246.825903400112 234.082799067591 1.4210854715202e-14
endloop
endfacet
facet normal -0.316541452963067 -0.948578678105317 0.0
outer loop
vertex 233.635790273294 239.851843040312 1.4210854715202e-14
vertex 246.825903400112 234.082799067591 2.00000000000001
vertex 233.635790273294 239.851843040312 2.00000000000001
endloop
endfacet
facet normal -0.316541452963067 -0.948578678105317 0.0
outer loop
vertex 233.635790273294 239.851843040312 2.00000000000001
vertex 218.275578208261 243.478415690522 1.4210854715202e-14
vertex 233.635790273294 239.851843040312 1.4210854715202e-14
endloop
endfacet
facet normal -0.152777990666775 -0.988260535267812 0.0
outer loop
vertex 218.275578208261 243.478415690522 1.4210854715202e-14
vertex 233.635790273294 239.851843040312 2.00000000000001
vertex 218.275578208261 243.478415690522 2.00000000000001
endloop
endfacet
facet normal -0.152777990666775 -0.988260535267812 0.0
outer loop
vertex 218.275578208261 243.478415690522 2.00000000000001
vertex 201.792040273294 244.715372085305 1.4210854715202e-14
vertex 218.275578208261 243.478415690522 1.4210854715202e-14
endloop
endfacet
facet normal -1.64790700173362e-15 -1.0 0.0
outer loop
vertex 201.792040273294 244.715372085305 1.4210854715202e-14
vertex 218.275578208261 243.478415690522 2.00000000000001
vertex 201.792040273294 244.715372085305 2.00000000000001
endloop
endfacet
facet normal -1.64790700173362e-15 -1.0 0.0
outer loop
vertex 201.792040273294 244.715372085305 2.00000000000001
vertex 185.308502338327 243.478415690522 1.4210854715202e-14
vertex 201.792040273294 244.715372085305 1.4210854715202e-14
endloop
endfacet
facet normal 0.152777990666775 -0.988260535267812 0.0
outer loop
vertex 185.308502338327 243.478415690522 1.4210854715202e-14
vertex 201.792040273294 244.715372085305 2.00000000000001
vertex 185.308502338327 243.478415690522 2.00000000000001
endloop
endfacet
facet normal 0.152777990666775 -0.988260535267812 0.0
outer loop
vertex 185.308502338327 243.478415690522 2.00000000000001
vertex 169.948290273294 239.851843040312 1.4210854715202e-14
vertex 185.308502338327 243.478415690522 1.4210854715202e-14
endloop
endfacet
facet normal 0.316541452963069 -0.948578678105316 0.0
outer loop
vertex 169.948290273294 239.851843040312 1.4210854715202e-14
vertex 185.308502338327 243.478415690522 2.00000000000001
vertex 169.948290273294 239.851843040312 2.00000000000001
endloop
endfacet
facet normal 0.316541452963069 -0.948578678105316 0.0
outer loop
vertex 169.948290273294 239.851843040312 2.00000000000001
vertex 156.758177146476 234.082799067591 1.4210854715202e-14
vertex 169.948290273294 239.851843040312 1.4210854715202e-14
endloop
endfacet
facet normal 0.501735840114375 -0.865020893819752 0.0
outer loop
vertex 156.758177146476 234.082799067591 1.4210854715202e-14
vertex 169.948290273294 239.851843040312 2.00000000000001
vertex 156.758177146476 234.082799067591 2.00000000000001
endloop
endfacet
facet normal 0.501735840114375 -0.865020893819752 0.0
outer loop
vertex 156.758177146476 234.082799067591 2.00000000000001
vertex 146.637047369773 226.564434585305 1.4210854715202e-14
vertex 156.758177146476 234.082799067591 1.4210854715202e-14
endloop
endfacet
facet normal 0.710804617415318 -0.703389505083111 0.0
outer loop
vertex 146.637047369773 226.564434585305 1.4210854715202e-14
vertex 156.758177146476 234.082799067591 2.00000000000001
vertex 146.637047369773 226.564434585305 2.00000000000001
endloop
endfacet
facet normal 0.710804617415318 -0.703389505083111 0.0
outer loop
vertex 146.637047369773 226.564434585305 1.4210854715202e-14
vertex 140.274639211509 217.809113708236 2.00000000000001
vertex 140.274639211509 217.809113708236 1.4210854715202e-14
endloop
endfacet
facet normal 0.909921290056405 -0.414780961354409 0.0
outer loop
vertex 140.274639211509 217.809113708236 2.00000000000001
vertex 146.637047369773 226.564434585305 1.4210854715202e-14
vertex 146.637047369773 226.564434585305 2.00000000000001
endloop
endfacet
facet normal 0.909921290056405 -0.414780961354409 0.0
outer loop
vertex 140.274639211509 217.809113708236 1.4210854715202e-14
vertex 138.104540273294 208.413497085305 2.00000000000001
vertex 138.104540273294 208.413497085305 1.4210854715202e-14
endloop
endfacet
facet normal 1.0 -1.45079497141304e-15 0.0
outer loop
vertex 138.104540273294 208.413497085305 2.00000000000001
vertex 140.274639211509 217.809113708236 1.4210854715202e-14
vertex 140.274639211509 217.809113708236 2.00000000000001
endloop
endfacet
facet normal 1.0 -1.45079497141304e-15 0.0
outer loop
vertex 138.104540273294 208.413497085305 1.4210854715202e-14
vertex 140.274639211509 199.017880462374 2.00000000000001
vertex 140.274639211509 199.017880462374 1.4210854715202e-14
endloop
endfacet
facet normal 0.909921290056406 0.414780961354408 0.0
outer loop
vertex 140.274639211509 199.017880462374 2.00000000000001
vertex 138.104540273294 208.413497085305 1.4210854715202e-14
vertex 138.104540273294 208.413497085305 2.00000000000001
endloop
endfacet
facet normal 0.909921290056406 0.414780961354408 0.0
outer loop
vertex 140.274639211509 199.017880462374 1.4210854715202e-14
vertex 146.637047369773 190.262559585305 2.00000000000001
vertex 146.637047369773 190.262559585305 1.4210854715202e-14
endloop
endfacet
facet normal 0.710804617415319 0.70338950508311 0.0
outer loop
vertex 146.637047369773 190.262559585305 2.00000000000001
vertex 140.274639211509 199.017880462374 1.4210854715202e-14
vertex 140.274639211509 199.017880462374 2.00000000000001
endloop
endfacet
facet normal 0.710804617415319 0.70338950508311 0.0
outer loop
vertex 146.637047369773 190.262559585305 2.00000000000001
vertex 156.758177146476 182.744195103018 1.4210854715202e-14
vertex 146.637047369773 190.262559585305 1.4210854715202e-14
endloop
endfacet
facet normal 0.501735840114376 0.865020893819751 0.0
outer loop
vertex 156.758177146476 182.744195103018 1.4210854715202e-14
vertex 146.637047369773 190.262559585305 2.00000000000001
vertex 156.758177146476 182.744195103018 2.00000000000001
endloop
endfacet
facet normal 0.501735840114376 0.865020893819751 0.0
outer loop
vertex 156.758177146476 182.744195103018 2.00000000000001
vertex 169.948290273294 176.975151130297 1.4210854715202e-14
vertex 156.758177146476 182.744195103018 1.4210854715202e-14
endloop
endfacet
facet normal 0.316541452963068 0.948578678105317 0.0
outer loop
vertex 169.948290273294 176.975151130297 1.4210854715202e-14
vertex 156.758177146476 182.744195103018 2.00000000000001
vertex 169.948290273294 176.975151130297 2.00000000000001
endloop
endfacet
facet normal 0.316541452963068 0.948578678105317 0.0
outer loop
vertex 169.948290273294 176.975151130297 2.00000000000001
vertex 185.308502338327 173.348578480087 1.4210854715202e-14
vertex 169.948290273294 176.975151130297 1.4210854715202e-14
endloop
endfacet
facet normal 0.152777990666776 0.988260535267812 0.0
outer loop
vertex 185.308502338327 173.348578480087 1.4210854715202e-14
vertex 169.948290273294 176.975151130297 2.00000000000001
vertex 185.308502338327 173.348578480087 2.00000000000001
endloop
endfacet
facet normal 0.152777990666776 0.988260535267812 0.0
outer loop
vertex 185.308502338327 173.348578480087 2.00000000000001
vertex 201.792040273294 172.111622085305 1.4210854715202e-14
vertex 185.308502338327 173.348578480087 1.4210854715202e-14
endloop
endfacet
facet normal 6.64478629731298e-16 1.0 0.0
outer loop
vertex 201.792040273294 172.111622085305 1.4210854715202e-14
vertex 185.308502338327 173.348578480087 2.00000000000001
vertex 201.792040273294 172.111622085305 2.00000000000001
endloop
endfacet
facet normal 6.64478629731298e-16 1.0 0.0
outer loop
vertex 201.792040273294 172.111622085305 2.00000000000001
vertex 218.275578208261 173.348578480087 1.4210854715202e-14
vertex 201.792040273294 172.111622085305 1.4210854715202e-14
endloop
endfacet
facet normal -0.152777990666776 0.988260535267812 0.0
outer loop
vertex 218.275578208261 173.348578480087 1.4210854715202e-14
vertex 201.792040273294 172.111622085305 2.00000000000001
vertex 218.275578208261 173.348578480087 2.00000000000001
endloop
endfacet
facet normal -0.152777990666776 0.988260535267812 0.0
outer loop
vertex 218.275578208261 173.348578480087 2.00000000000001
vertex 233.635790273294 176.975151130297 1.4210854715202e-14
vertex 218.275578208261 173.348578480087 1.4210854715202e-14
endloop
endfacet
facet normal -0.316541452963067 0.948578678105317 0.0
outer loop
vertex 233.635790273294 176.975151130297 1.4210854715202e-14
vertex 218.275578208261 173.348578480087 2.00000000000001
vertex 233.635790273294 176.975151130297 2.00000000000001
endloop
endfacet
facet normal -0.316541452963067 0.948578678105317 0.0
outer loop
vertex 233.635790273294 176.975151130297 2.00000000000001
vertex 246.825903400112 182.744195103018 1.4210854715202e-14
vertex 233.635790273294 176.975151130297 1.4210854715202e-14
endloop
endfacet
facet normal -0.501735840114374 0.865020893819752 0.0
outer loop
vertex 246.825903400112 182.744195103018 1.4210854715202e-14
vertex 233.635790273294 176.975151130297 2.00000000000001
vertex 246.825903400112 182.744195103018 2.00000000000001
endloop
endfacet
facet normal -0.501735840114374 0.865020893819752 0.0
outer loop
vertex 246.825903400112 182.744195103018 2.00000000000001
vertex 256.947033176816 190.262559585305 1.4210854715202e-14
vertex 246.825903400112 182.744195103018 1.4210854715202e-14
endloop
endfacet
facet normal -0.710804617415319 0.70338950508311 0.0
outer loop
vertex 256.947033176816 190.262559585305 1.4210854715202e-14
vertex 246.825903400112 182.744195103018 2.00000000000001
vertex 256.947033176816 190.262559585305 2.00000000000001
endloop
endfacet
facet normal -0.909921290056405 0.414780961354409 0.0
outer loop
vertex 263.309441335079 199.017880462374 2.00000000000001
vertex 256.947033176816 190.262559585305 1.4210854715202e-14
vertex 256.947033176816 190.262559585305 2.00000000000001
endloop
endfacet
facet normal -0.710804617415319 0.70338950508311 0.0
outer loop
vertex 256.947033176816 190.262559585305 1.4210854715202e-14
vertex 263.309441335079 199.017880462374 2.00000000000001
vertex 263.309441335079 199.017880462374 1.4210854715202e-14
endloop
endfacet
endsolid body_base
