solid AnchorCenter4_v1_Jeeeun
facet normal -3.76570771730007e-18 2.29390630494889e-20 -1.0
outer loop
vertex 1028.39082380469 -1124.44031840025 -5.0
vertex 919.627249406594 -1279.45909631763 -5.0
vertex 919.627249406594 -1124.44031840025 -5.0
endloop
endfacet
facet normal -3.76570771730007e-18 2.29390630494889e-20 -1.0
outer loop
vertex 919.627249406594 -1279.45909631763 -5.0
vertex 1028.39082380469 -1124.44031840025 -5.0
vertex 919.627249406594 -1366.43927143602 -5.0
endloop
endfacet
facet normal -3.76570771730007e-18 2.29390630494889e-20 -1.0
outer loop
vertex 919.627249406594 -1366.43927143602 -5.0
vertex 1028.39082380469 -1124.44031840025 -5.0
vertex 919.627249406594 -1579.56790212049 -5.0
endloop
endfacet
facet normal -3.76570771730007e-18 2.29390630494889e-20 -1.0
outer loop
vertex 919.627249406594 -1579.56790212049 -5.0
vertex 1028.39082380469 -1124.44031840025 -5.0
vertex 1028.39082380469 -1579.56790212049 -5.0
endloop
endfacet
facet normal -3.76570771730007e-18 2.29390630494889e-20 -1.0
outer loop
vertex 919.627249406594 -1279.45909631763 -5.0
vertex 743.516475265833 -1366.43927143602 -5.0
vertex 743.516475265833 -1279.45909631763 -5.0
endloop
endfacet
facet normal -3.76570771730007e-18 2.29390630494889e-20 -1.0
outer loop
vertex 743.516475265833 -1366.43927143602 -5.0
vertex 919.627249406594 -1279.45909631763 -5.0
vertex 919.627249406594 -1366.43927143602 -5.0
endloop
endfacet
facet normal -3.76570771730007e-18 2.29390630494889e-20 -1.0
outer loop
vertex 1517.82690859614 -1074.58530018536 -5.0
vertex 1028.39082380469 -1124.44031840025 -5.0
vertex 1028.39082380469 -1074.58530018536 -5.0
endloop
endfacet
facet normal -3.76570771730007e-18 2.29390630494889e-20 -1.0
outer loop
vertex 1028.39082380469 -1124.44031840025 -5.0
vertex 1517.82690859614 -1074.58530018536 -5.0
vertex 1028.39082380469 -1579.56790212049 -5.0
endloop
endfacet
facet normal -3.76570771730007e-18 2.29390630494889e-20 -1.0
outer loop
vertex 1028.39082380469 -1579.56790212049 -5.0
vertex 1517.82690859614 -1074.58530018536 -5.0
vertex 1325.32602084737 -1279.42841191755 -5.0
endloop
endfacet
facet normal -3.76570771730007e-18 2.29390630494889e-20 -1.0
outer loop
vertex 1028.39082380469 -1579.56790212049 -5.0
vertex 1325.32602084737 -1279.42841191755 -5.0
vertex 1028.39082380469 -1851.57013140754 -5.0
endloop
endfacet
facet normal -3.76570771730007e-18 2.29390630494889e-20 -1.0
outer loop
vertex 1028.39082380469 -1851.57013140754 -5.0
vertex 1325.32602084737 -1279.42841191755 -5.0
vertex 1028.39082380469 -1852.64780018536 -5.0
endloop
endfacet
facet normal -3.76570771730007e-18 2.29390630494889e-20 -1.0
outer loop
vertex 1325.32602084737 -1279.42841191755 -5.0
vertex 1517.82690859614 -1074.58530018536 -5.0
vertex 1517.82690859614 -1279.42841191755 -5.0
endloop
endfacet
facet normal -3.76570771730007e-18 2.29390630494889e-20 -1.0
outer loop
vertex 1028.39082380469 -1852.64780018536 -5.0
vertex 1325.32602084737 -1366.43927143602 -5.0
vertex 1627.76647526583 -1852.64780018536 -5.0
endloop
endfacet
facet normal -3.76570771730007e-18 2.29390630494889e-20 -1.0
outer loop
vertex 1325.32602084737 -1366.43927143602 -5.0
vertex 1028.39082380469 -1852.64780018536 -5.0
vertex 1325.32602084737 -1279.42841191755 -5.0
endloop
endfacet
facet normal -3.76570771730007e-18 2.29390630494889e-20 -1.0
outer loop
vertex 1627.76647526583 -1852.64780018536 -5.0
vertex 1325.32602084737 -1366.43927143602 -5.0
vertex 1517.82690859614 -1575.12937981243 -5.0
endloop
endfacet
facet normal -3.76570771730007e-18 2.29390630494889e-20 -1.0
outer loop
vertex 1517.82690859614 -1575.12937981243 -5.0
vertex 1325.32602084737 -1366.43927143602 -5.0
vertex 1517.82690859614 -1366.43927143602 -5.0
endloop
endfacet
facet normal -3.76570771730007e-18 2.29390630494889e-20 -1.0
outer loop
vertex 1627.76647526583 -1852.64780018536 -5.0
vertex 1517.82690859614 -1575.12937981243 -5.0
vertex 1627.76647526583 -1575.12937981243 -5.0
endloop
endfacet
facet normal 0.0 1.0 0.0
outer loop
vertex 1028.39082380469 -1074.58530018536 -5.0
vertex 1517.82690859614 -1074.58530018536 0.0
vertex 1517.82690859614 -1074.58530018536 -5.0
endloop
endfacet
facet normal 0.0 1.0 0.0
outer loop
vertex 1517.82690859614 -1074.58530018536 0.0
vertex 1028.39082380469 -1074.58530018536 -5.0
vertex 1028.39082380469 -1074.58530018536 0.0
endloop
endfacet
facet normal 1.0 -0.0 -0.0
outer loop
vertex 1627.76647526583 -1575.12937981243 -5.0
vertex 1627.76647526583 -1852.64780018536 0.0
vertex 1627.76647526583 -1852.64780018536 -5.0
endloop
endfacet
facet normal 1.0 -0.0 -0.0
outer loop
vertex 1627.76647526583 -1852.64780018536 0.0
vertex 1627.76647526583 -1575.12937981243 -5.0
vertex 1627.76647526583 -1575.12937981243 0.0
endloop
endfacet
facet normal -1.0 0.0 0.0
outer loop
vertex 743.516475265833 -1279.45909631763 0.0
vertex 743.516475265833 -1366.43927143602 -5.0
vertex 743.516475265833 -1366.43927143602 0.0
endloop
endfacet
facet normal -1.0 0.0 0.0
outer loop
vertex 743.516475265833 -1366.43927143602 -5.0
vertex 743.516475265833 -1279.45909631763 0.0
vertex 743.516475265833 -1279.45909631763 -5.0
endloop
endfacet
facet normal 1.0 -0.0 -0.0
outer loop
vertex 1517.82690859614 -1366.43927143602 -5.0
vertex 1517.82690859614 -1575.12937981243 0.0
vertex 1517.82690859614 -1575.12937981243 -5.0
endloop
endfacet
facet normal 1.0 -0.0 -0.0
outer loop
vertex 1517.82690859614 -1575.12937981243 0.0
vertex 1517.82690859614 -1366.43927143602 -5.0
vertex 1517.82690859614 -1366.43927143602 0.0
endloop
endfacet
facet normal -0.0 1.0 -0.0
outer loop
vertex 1517.82690859614 -1575.12937981243 0.0
vertex 1627.76647526583 -1575.12937981243 -5.0
vertex 1517.82690859614 -1575.12937981243 -5.0
endloop
endfacet
facet normal -0.0 1.0 -0.0
outer loop
vertex 1627.76647526583 -1575.12937981243 -5.0
vertex 1517.82690859614 -1575.12937981243 0.0
vertex 1627.76647526583 -1575.12937981243 0.0
endloop
endfacet
facet normal -1.0 0.0 -0.0
outer loop
vertex 1028.39082380469 -1579.56790212049 0.0
vertex 1028.39082380469 -1851.57013140754 -5.0
vertex 1028.39082380469 -1851.57013140754 0.0
endloop
endfacet
facet normal -1.0 0.0 -0.0
outer loop
vertex 1028.39082380469 -1851.57013140754 -5.0
vertex 1028.39082380469 -1579.56790212049 0.0
vertex 1028.39082380469 -1579.56790212049 -5.0
endloop
endfacet
facet normal 0.0 -1.0 0.0
outer loop
vertex 1028.39082380469 -1579.56790212049 0.0
vertex 919.627249406594 -1579.56790212049 -5.0
vertex 1028.39082380469 -1579.56790212049 -5.0
endloop
endfacet
facet normal 0.0 -1.0 0.0
outer loop
vertex 919.627249406594 -1579.56790212049 -5.0
vertex 1028.39082380469 -1579.56790212049 0.0
vertex 919.627249406594 -1579.56790212049 0.0
endloop
endfacet
facet normal -1.0 0.0 0.0
outer loop
vertex 919.627249406594 -1366.43927143602 0.0
vertex 919.627249406594 -1579.56790212049 -5.0
vertex 919.627249406594 -1579.56790212049 0.0
endloop
endfacet
facet normal -1.0 0.0 0.0
outer loop
vertex 919.627249406594 -1579.56790212049 -5.0
vertex 919.627249406594 -1366.43927143602 0.0
vertex 919.627249406594 -1366.43927143602 -5.0
endloop
endfacet
facet normal 0.0 -1.0 0.0
outer loop
vertex 919.627249406594 -1366.43927143602 0.0
vertex 743.516475265833 -1366.43927143602 -5.0
vertex 919.627249406594 -1366.43927143602 -5.0
endloop
endfacet
facet normal 0.0 -1.0 0.0
outer loop
vertex 743.516475265833 -1366.43927143602 -5.0
vertex 919.627249406594 -1366.43927143602 0.0
vertex 743.516475265833 -1366.43927143602 0.0
endloop
endfacet
facet normal 0.0 1.0 0.0
outer loop
vertex 743.516475265833 -1279.45909631763 0.0
vertex 919.627249406594 -1279.45909631763 -5.0
vertex 743.516475265833 -1279.45909631763 -5.0
endloop
endfacet
facet normal 0.0 1.0 0.0
outer loop
vertex 919.627249406594 -1279.45909631763 -5.0
vertex 743.516475265833 -1279.45909631763 0.0
vertex 919.627249406594 -1279.45909631763 0.0
endloop
endfacet
facet normal -1.0 0.0 0.0
outer loop
vertex 919.627249406594 -1124.44031840025 0.0
vertex 919.627249406594 -1279.45909631763 -5.0
vertex 919.627249406594 -1279.45909631763 0.0
endloop
endfacet
facet normal -1.0 0.0 0.0
outer loop
vertex 919.627249406594 -1279.45909631763 -5.0
vertex 919.627249406594 -1124.44031840025 0.0
vertex 919.627249406594 -1124.44031840025 -5.0
endloop
endfacet
facet normal -0.0 -0.0 1.0
outer loop
vertex 1028.39082380469 -1579.56790212049 0.0
vertex 919.627249406594 -1366.43927143602 0.0
vertex 919.627249406594 -1579.56790212049 0.0
endloop
endfacet
facet normal -0.0 -0.0 1.0
outer loop
vertex 919.627249406594 -1366.43927143602 0.0
vertex 1028.39082380469 -1579.56790212049 0.0
vertex 919.627249406594 -1279.45909631763 0.0
endloop
endfacet
facet normal -0.0 -0.0 1.0
outer loop
vertex 919.627249406594 -1279.45909631763 0.0
vertex 1028.39082380469 -1579.56790212049 0.0
vertex 919.627249406594 -1124.44031840025 0.0
endloop
endfacet
facet normal -0.0 -0.0 1.0
outer loop
vertex 919.627249406594 -1124.44031840025 0.0
vertex 1028.39082380469 -1579.56790212049 0.0
vertex 1028.39082380469 -1124.44031840025 0.0
endloop
endfacet
facet normal -0.0 -0.0 1.0
outer loop
vertex 919.627249406594 -1366.43927143602 0.0
vertex 743.516475265833 -1279.45909631763 0.0
vertex 743.516475265833 -1366.43927143602 0.0
endloop
endfacet
facet normal -0.0 -0.0 1.0
outer loop
vertex 743.516475265833 -1279.45909631763 0.0
vertex 919.627249406594 -1366.43927143602 0.0
vertex 919.627249406594 -1279.45909631763 0.0
endloop
endfacet
facet normal -0.0 -0.0 1.0
outer loop
vertex 1627.76647526583 -1852.64780018536 0.0
vertex 1028.39082380469 -1851.57013140754 0.0
vertex 1028.39082380469 -1852.64780018536 0.0
endloop
endfacet
facet normal -0.0 -0.0 1.0
outer loop
vertex 1028.39082380469 -1851.57013140754 0.0
vertex 1627.76647526583 -1852.64780018536 0.0
vertex 1028.39082380469 -1579.56790212049 0.0
endloop
endfacet
facet normal -0.0 -0.0 1.0
outer loop
vertex 1028.39082380469 -1579.56790212049 0.0
vertex 1627.76647526583 -1852.64780018536 0.0
vertex 1028.39082380469 -1124.44031840025 0.0
endloop
endfacet
facet normal -0.0 -0.0 1.0
outer loop
vertex 1028.39082380469 -1124.44031840025 0.0
vertex 1627.76647526583 -1852.64780018536 0.0
vertex 1028.39082380469 -1074.58530018536 0.0
endloop
endfacet
facet normal -0.0 -0.0 1.0
outer loop
vertex 1028.39082380469 -1074.58530018536 0.0
vertex 1627.76647526583 -1852.64780018536 0.0
vertex 1325.32602084737 -1366.43927143602 0.0
endloop
endfacet
facet normal -0.0 -0.0 1.0
outer loop
vertex 1325.32602084737 -1366.43927143602 0.0
vertex 1627.76647526583 -1852.64780018536 0.0
vertex 1517.82690859614 -1575.12937981243 0.0
endloop
endfacet
facet normal -0.0 -0.0 1.0
outer loop
vertex 1517.82690859614 -1575.12937981243 0.0
vertex 1627.76647526583 -1852.64780018536 0.0
vertex 1627.76647526583 -1575.12937981243 0.0
endloop
endfacet
facet normal -0.0 -0.0 1.0
outer loop
vertex 1517.82690859614 -1366.43927143602 0.0
vertex 1325.32602084737 -1366.43927143602 0.0
vertex 1517.82690859614 -1575.12937981243 0.0
endloop
endfacet
facet normal -0.0 -0.0 1.0
outer loop
vertex 1028.39082380469 -1074.58530018536 0.0
vertex 1325.32602084737 -1279.42841191755 0.0
vertex 1517.82690859614 -1074.58530018536 0.0
endloop
endfacet
facet normal -0.0 -0.0 1.0
outer loop
vertex 1325.32602084737 -1279.42841191755 0.0
vertex 1028.39082380469 -1074.58530018536 0.0
vertex 1325.32602084737 -1366.43927143602 0.0
endloop
endfacet
facet normal -0.0 -0.0 1.0
outer loop
vertex 1517.82690859614 -1074.58530018536 0.0
vertex 1325.32602084737 -1279.42841191755 0.0
vertex 1517.82690859614 -1279.42841191755 0.0
endloop
endfacet
facet normal -0.0 1.0 -0.0
outer loop
vertex 919.627249406594 -1124.44031840025 0.0
vertex 1028.39082380469 -1124.44031840025 -5.0
vertex 919.627249406594 -1124.44031840025 -5.0
endloop
endfacet
facet normal -0.0 1.0 -0.0
outer loop
vertex 1028.39082380469 -1124.44031840025 -5.0
vertex 919.627249406594 -1124.44031840025 0.0
vertex 1028.39082380469 -1124.44031840025 0.0
endloop
endfacet
facet normal -1.0 0.0 0.0
outer loop
vertex 1028.39082380469 -1074.58530018536 0.0
vertex 1028.39082380469 -1124.44031840025 -5.0
vertex 1028.39082380469 -1124.44031840025 0.0
endloop
endfacet
facet normal -1.0 0.0 0.0
outer loop
vertex 1028.39082380469 -1124.44031840025 -5.0
vertex 1028.39082380469 -1074.58530018536 0.0
vertex 1028.39082380469 -1074.58530018536 -5.0
endloop
endfacet
facet normal 0.0 -1.0 0.0
outer loop
vertex 1627.76647526583 -1852.64780018536 0.0
vertex 1028.39082380469 -1852.64780018536 -5.0
vertex 1627.76647526583 -1852.64780018536 -5.0
endloop
endfacet
facet normal 0.0 -1.0 0.0
outer loop
vertex 1028.39082380469 -1852.64780018536 -5.0
vertex 1627.76647526583 -1852.64780018536 0.0
vertex 1028.39082380469 -1852.64780018536 0.0
endloop
endfacet
facet normal -1.0 0.0 0.0
outer loop
vertex 1028.39082380469 -1851.57013140754 0.0
vertex 1028.39082380469 -1852.64780018536 -5.0
vertex 1028.39082380469 -1852.64780018536 0.0
endloop
endfacet
facet normal -1.0 0.0 0.0
outer loop
vertex 1028.39082380469 -1852.64780018536 -5.0
vertex 1028.39082380469 -1851.57013140754 0.0
vertex 1028.39082380469 -1851.57013140754 -5.0
endloop
endfacet
facet normal 0.0 0.0 -1.0
outer loop
vertex 1506.95055115633 -1074.5917718641 0.0
vertex 1413.24925355691 -1074.6177511496 0.0
vertex 1176.0753238316 -1074.59173718188 0.0
endloop
endfacet
facet normal 0.0 0.0 -1.0
outer loop
vertex 1413.24925355691 -1074.6177511496 0.0
vertex 1506.95055115633 -1074.5917718641 0.0
vertex 1506.95055115633 -1074.6177511496 0.0
endloop
endfacet
facet normal 0.0 0.0 -1.0
outer loop
vertex 743.452917959673 -1279.42841191755 0.0
vertex 908.750891966783 -1366.43927143602 0.0
vertex 743.411172692743 -1366.43927143602 0.0
endloop
endfacet
facet normal 0.0 0.0 -1.0
outer loop
vertex 908.750891966783 -1366.43927143602 0.0
vertex 743.452917959673 -1279.42841191755 0.0
vertex 747.984733559594 -1279.42841191755 0.0
endloop
endfacet
facet normal 0.0 0.0 -1.0
outer loop
vertex 908.750891966783 -1366.43927143602 0.0
vertex 747.984733559594 -1279.42841191755 0.0
vertex 919.627249406594 -1279.42841191755 0.0
endloop
endfacet
facet normal 0.0 0.0 -1.0
outer loop
vertex 908.750891966783 -1366.43927143602 0.0
vertex 919.627249406594 -1279.42841191755 0.0
vertex 919.627249406594 -1366.43927143602 0.0
endloop
endfacet
facet normal 0.0 0.0 -1.0
outer loop
vertex 1028.39082380469 -1134.09713400017 0.0
vertex 919.627249406594 -1137.77222761872 0.0
vertex 919.627249406594 -1134.09713400017 0.0
endloop
endfacet
facet normal 0.0 0.0 -1.0
outer loop
vertex 919.627249406594 -1137.77222761872 0.0
vertex 1028.39082380469 -1134.09713400017 0.0
vertex 919.627249406594 -1219.28621565485 0.0
endloop
endfacet
facet normal 0.0 0.0 -1.0
outer loop
vertex 919.627249406594 -1219.28621565485 0.0
vertex 1028.39082380469 -1134.09713400017 0.0
vertex 919.627249406594 -1274.89659631763 0.0
endloop
endfacet
facet normal 0.0 0.0 -1.0
outer loop
vertex 919.627249406594 -1274.89659631763 0.0
vertex 1028.39082380469 -1134.09713400017 0.0
vertex 919.627249406594 -1279.42841191755 0.0
endloop
endfacet
facet normal 0.0 0.0 -1.0
outer loop
vertex 919.627249406594 -1279.42841191755 0.0
vertex 1028.39082380469 -1134.09713400017 0.0
vertex 919.627249406594 -1366.43927143602 0.0
endloop
endfacet
facet normal 0.0 0.0 -1.0
outer loop
vertex 919.627249406594 -1366.43927143602 0.0
vertex 1028.39082380469 -1134.09713400017 0.0
vertex 919.627249406594 -1569.44187981237 0.0
endloop
endfacet
facet normal 0.0 0.0 -1.0
outer loop
vertex 919.627249406594 -1569.44187981237 0.0
vertex 1028.39082380469 -1134.09713400017 0.0
vertex 955.881774205959 -1569.44187981237 0.0
endloop
endfacet
facet normal 0.0 0.0 -1.0
outer loop
vertex 955.881774205959 -1569.44187981237 0.0
vertex 1028.39082380469 -1134.09713400017 0.0
vertex 955.881774205959 -1579.6611954123 0.0
endloop
endfacet
facet normal 0.0 0.0 -1.0
outer loop
vertex 955.881774205959 -1579.6611954123 0.0
vertex 1028.39082380469 -1134.09713400017 0.0
vertex 992.136299005326 -1569.44187981237 0.0
endloop
endfacet
facet normal 0.0 0.0 -1.0
outer loop
vertex 992.136299005326 -1569.44187981237 0.0
vertex 1028.39082380469 -1134.09713400017 0.0
vertex 1028.39082380469 -1569.44187981237 0.0
endloop
endfacet
facet normal 0.0 0.0 -1.0
outer loop
vertex 1028.39082380469 -1569.44187981237 0.0
vertex 1028.39082380469 -1134.09713400017 0.0
vertex 1028.39082380469 -1366.43927143603 0.0
endloop
endfacet
facet normal 0.0 0.0 -1.0
outer loop
vertex 1028.39082380469 -1366.43927143603 0.0
vertex 1028.39082380469 -1134.09713400017 0.0
vertex 1028.39082380469 -1274.89659631762 0.0
endloop
endfacet
facet normal 0.0 0.0 -1.0
outer loop
vertex 1028.39082380469 -1366.43927143603 0.0
vertex 1028.39082380469 -1274.89659631762 0.0
vertex 1028.39082380469 -1279.42841191754 0.0
endloop
endfacet
facet normal 0.0 0.0 -1.0
outer loop
vertex 1028.39082380469 -1366.43927143603 0.0
vertex 1028.39082380469 -1279.42841191754 0.0
vertex 1032.92263940461 -1279.42841191754 0.0
endloop
endfacet
facet normal 0.0 0.0 -1.0
outer loop
vertex 1028.39082380469 -1366.43927143603 0.0
vertex 1032.92263940461 -1279.42841191754 0.0
vertex 1039.2671812445 -1366.43927143603 0.0
endloop
endfacet
facet normal 0.0 0.0 -1.0
outer loop
vertex 1039.2671812445 -1366.43927143603 0.0
vertex 1032.92263940461 -1279.42841191754 0.0
vertex 1220.87368134026 -1279.42841191754 0.0
endloop
endfacet
facet normal 0.0 0.0 -1.0
outer loop
vertex 1039.2671812445 -1366.43927143603 0.0
vertex 1220.87368134026 -1279.42841191754 0.0
vertex 1220.8703314804 -1366.43927143603 0.0
endloop
endfacet
facet normal 0.0 0.0 -1.0
outer loop
vertex 1220.8703314804 -1366.43927143603 0.0
vertex 1220.87368134026 -1279.42841191754 0.0
vertex 1220.8703314804 -1370.97108703595 0.0
endloop
endfacet
facet normal 0.0 0.0 -1.0
outer loop
vertex 1220.8703314804 -1370.97108703595 0.0
vertex 1220.87368134026 -1279.42841191754 0.0
vertex 1220.87368134026 -1370.97108703595 0.0
endloop
endfacet
facet normal 0.0 0.0 -1.0
outer loop
vertex 1220.87368134026 -1370.97108703595 0.0
vertex 1220.87368134026 -1279.42841191754 0.0
vertex 1220.87368134026 -1366.43927143603 0.0
endloop
endfacet
facet normal 0.0 0.0 -1.0
outer loop
vertex 992.136299005326 -1579.6611954123 0.0
vertex 955.881774205959 -1579.6611954123 0.0
vertex 992.136299005326 -1569.44187981237 0.0
endloop
endfacet
facet normal 0.0 0.0 -1.0
outer loop
vertex 1413.24925355691 -1074.6177511496 0.0
vertex 1344.3656564381 -1074.6177511496 0.0
vertex 1176.0753238316 -1074.59173718188 0.0
endloop
endfacet
facet normal 0.0 0.0 -1.0
outer loop
vertex 1028.39082380469 -1124.44031840025 0.0
vertex 919.627249406594 -1134.09713400017 0.0
vertex 919.627249406594 -1124.44031840025 0.0
endloop
endfacet
facet normal 0.0 0.0 -1.0
outer loop
vertex 919.627249406594 -1134.09713400017 0.0
vertex 1028.39082380469 -1124.44031840025 0.0
vertex 1028.39082380469 -1134.09713400017 0.0
endloop
endfacet
facet normal 0.0 0.0 -1.0
outer loop
vertex 1554.0814333955 -1585.34869541235 0.0
vertex 1517.82690859614 -1737.36837828953 0.0
vertex 1517.82690859614 -1585.34869541235 0.0
endloop
endfacet
facet normal 0.0 0.0 -1.0
outer loop
vertex 1590.33595819487 -1579.66119541235 0.0
vertex 1554.0814333955 -1585.34869541235 0.0
vertex 1554.0814333955 -1579.66119541235 0.0
endloop
endfacet
facet normal 0.0 0.0 -1.0
outer loop
vertex 1517.82690859614 -1737.36837828953 0.0
vertex 1028.39082380469 -1851.57013140754 0.0
vertex 1028.39082380469 -1737.36837828954 0.0
endloop
endfacet
facet normal 0.0 0.0 -1.0
outer loop
vertex 1028.39082380469 -1851.57013140754 0.0
vertex 1517.82690859614 -1737.36837828953 0.0
vertex 1626.59048299424 -1851.57013140754 0.0
endloop
endfacet
facet normal 0.0 0.0 -1.0
outer loop
vertex 1626.59048299424 -1851.57013140754 0.0
vertex 1517.82690859614 -1737.36837828953 0.0
vertex 1554.0814333955 -1585.34869541235 0.0
endloop
endfacet
facet normal 0.0 0.0 -1.0
outer loop
vertex 1626.59048299424 -1851.57013140754 0.0
vertex 1554.0814333955 -1585.34869541235 0.0
vertex 1590.33595819487 -1585.34869541235 0.0
endloop
endfacet
facet normal 0.0 0.0 -1.0
outer loop
vertex 1590.33595819487 -1585.34869541235 0.0
vertex 1554.0814333955 -1585.34869541235 0.0
vertex 1590.33595819487 -1579.66119541235 0.0
endloop
endfacet
facet normal 0.0 0.0 -1.0
outer loop
vertex 1626.59048299424 -1851.57013140754 0.0
vertex 1590.33595819487 -1585.34869541235 0.0
vertex 1626.59048299424 -1585.34869541235 0.0
endloop
endfacet
facet normal 0.0 0.0 -1.0
outer loop
vertex 1167.08063135473 -1085.46670424094 0.0
vertex 1039.2671812445 -1219.28621565485 0.0
vertex 1039.2671812445 -1085.46670424093 0.0
endloop
endfacet
facet normal 0.0 0.0 -1.0
outer loop
vertex 1220.8703314804 -1370.97108703595 0.0
vertex 1039.2671812445 -1585.0993741322 0.0
vertex 1039.2671812445 -1370.97108703595 0.0
endloop
endfacet
facet normal 0.0 0.0 -1.0
outer loop
vertex 1039.2671812445 -1585.0993741322 0.0
vertex 1220.8703314804 -1370.97108703595 0.0
vertex 1216.33851588048 -1415.38287991517 0.0
endloop
endfacet
facet normal 0.0 0.0 -1.0
outer loop
vertex 1216.33851588048 -1415.38287991517 0.0
vertex 1220.8703314804 -1370.97108703595 0.0
vertex 1220.8703314804 -1415.38287991517 0.0
endloop
endfacet
facet normal 0.0 0.0 -1.0
outer loop
vertex 1220.8703314804 -1415.38287991517 0.0
vertex 1220.8703314804 -1370.97108703595 0.0
vertex 1220.87368134026 -1370.97108703595 0.0
endloop
endfacet
facet normal 0.0 0.0 -1.0
outer loop
vertex 1220.8703314804 -1415.38287991517 0.0
vertex 1220.87368134026 -1370.97108703595 0.0
vertex 1220.8703314804 -1572.71408265285 0.0
endloop
endfacet
facet normal 0.0 0.0 -1.0
outer loop
vertex 1220.8703314804 -1572.71408265285 0.0
vertex 1220.87368134026 -1370.97108703595 0.0
vertex 1220.8703314804 -1574.06738590098 0.0
endloop
endfacet
facet normal 0.0 0.0 -1.0
outer loop
vertex 1220.8703314804 -1574.06738590098 0.0
vertex 1220.87368134026 -1370.97108703595 0.0
vertex 1220.8703314804 -1585.0993741322 0.0
endloop
endfacet
facet normal 0.0 0.0 -1.0
outer loop
vertex 1220.8703314804 -1585.0993741322 0.0
vertex 1220.87368134026 -1370.97108703595 0.0
vertex 1220.8703314804 -1589.63118973212 0.0
endloop
endfacet
facet normal 0.0 0.0 -1.0
outer loop
vertex 1298.19778501391 -1085.48697205638 0.0
vertex 1216.34186574034 -1218.70208287862 0.0
vertex 1167.08063135473 -1085.46670424094 0.0
endloop
endfacet
facet normal 0.0 0.0 -1.0
outer loop
vertex 1216.34186574034 -1218.70208287862 0.0
vertex 1298.19778501391 -1085.48697205638 0.0
vertex 1220.87368134026 -1218.70208287862 0.0
endloop
endfacet
facet normal 0.0 0.0 -1.0
outer loop
vertex 1220.87368134026 -1218.70208287862 0.0
vertex 1298.19778501391 -1085.48697205638 0.0
vertex 1271.06353910938 -1186.10133440669 0.0
endloop
endfacet
facet normal 0.0 0.0 -1.0
outer loop
vertex 1271.06353910938 -1186.10133440669 0.0
vertex 1298.19778501391 -1085.48697205638 0.0
vertex 1275.5953547093 -1186.10133440669 0.0
endloop
endfacet
facet normal 0.0 0.0 -1.0
outer loop
vertex 1275.5953547093 -1186.10133440669 0.0
vertex 1298.19778501391 -1085.48697205638 0.0
vertex 1298.19778501391 -1186.10133440669 0.0
endloop
endfacet
facet normal 0.0 0.0 -1.0
outer loop
vertex 1344.3656564381 -1085.49410858941 0.0
vertex 1302.72960061383 -1186.10133440669 0.0
vertex 1302.72960061383 -1085.48767257496 0.0
endloop
endfacet
facet normal 0.0 0.0 -1.0
outer loop
vertex 1302.72960061383 -1186.10133440669 0.0
vertex 1344.3656564381 -1085.49410858941 0.0
vertex 1325.33203091844 -1186.10133440669 0.0
endloop
endfacet
facet normal 0.0 0.0 -1.0
outer loop
vertex 1325.33203091844 -1186.10133440669 0.0
vertex 1344.3656564381 -1085.49410858941 0.0
vertex 1329.86384651836 -1186.10133440669 0.0
endloop
endfacet
facet normal 0.0 0.0 -1.0
outer loop
vertex 1329.86384651836 -1186.10133440669 0.0
vertex 1344.3656564381 -1085.49410858941 0.0
vertex 1329.86384651836 -1223.23389847854 0.0
endloop
endfacet
facet normal 0.0 0.0 -1.0
outer loop
vertex 1329.86384651836 -1223.23389847854 0.0
vertex 1220.87368134026 -1223.68708003853 0.0
vertex 1220.87368134026 -1223.23389847854 0.0
endloop
endfacet
facet normal 0.0 0.0 -1.0
outer loop
vertex 1220.87368134026 -1223.68708003853 0.0
vertex 1329.86384651836 -1223.23389847854 0.0
vertex 1220.87368134026 -1274.89659631762 0.0
endloop
endfacet
facet normal 0.0 0.0 -1.0
outer loop
vertex 1220.87368134026 -1274.89659631762 0.0
vertex 1329.86384651836 -1223.23389847854 0.0
vertex 1220.87368134026 -1279.42841191754 0.0
endloop
endfacet
facet normal 0.0 0.0 -1.0
outer loop
vertex 1220.87368134026 -1279.42841191754 0.0
vertex 1329.86384651836 -1223.23389847854 0.0
vertex 1220.87368134026 -1366.43927143603 0.0
endloop
endfacet
facet normal 0.0 0.0 -1.0
outer loop
vertex 1220.87368134026 -1366.43927143603 0.0
vertex 1329.86384651836 -1223.23389847854 0.0
vertex 1220.87368134026 -1370.97108703595 0.0
endloop
endfacet
facet normal 0.0 0.0 -1.0
outer loop
vertex 1220.87368134026 -1370.97108703595 0.0
vertex 1329.86384651836 -1223.23389847854 0.0
vertex 1270.84561666853 -1574.18065771103 0.0
endloop
endfacet
facet normal 0.0 0.0 -1.0
outer loop
vertex 1270.84561666853 -1574.18065771103 0.0
vertex 1329.86384651836 -1223.23389847854 0.0
vertex 1275.37743226845 -1574.18065771103 0.0
endloop
endfacet
facet normal 0.0 0.0 -1.0
outer loop
vertex 1275.37743226845 -1574.18065771103 0.0
vertex 1329.86384651836 -1223.23389847854 0.0
vertex 1275.37743226845 -1726.49202084974 0.0
endloop
endfacet
facet normal 0.0 0.0 -1.0
outer loop
vertex 1275.37743226845 -1726.49202084974 0.0
vertex 1329.86384651836 -1223.23389847854 0.0
vertex 1325.32602084737 -1274.89659631763 0.0
endloop
endfacet
facet normal 0.0 0.0 -1.0
outer loop
vertex 1325.32602084737 -1274.89659631763 0.0
vertex 1329.86384651836 -1223.23389847854 0.0
vertex 1513.29509299622 -1274.89659631763 0.0
endloop
endfacet
facet normal 0.0 0.0 -1.0
outer loop
vertex 1513.29509299622 -1274.89659631763 0.0
vertex 1329.86384651836 -1223.23389847854 0.0
vertex 1344.3656564381 -1085.49410858941 0.0
endloop
endfacet
facet normal 0.0 0.0 -1.0
outer loop
vertex 1513.29509299622 -1274.89659631763 0.0
vertex 1344.3656564381 -1085.49410858941 0.0
vertex 1506.95055115633 -1219.28621565485 0.0
endloop
endfacet
facet normal 0.0 0.0 -1.0
outer loop
vertex 1506.95055115633 -1219.28621565485 0.0
vertex 1344.3656564381 -1085.49410858941 0.0
vertex 1506.95055115633 -1085.49410858941 0.0
endloop
endfacet
facet normal 0.0 0.0 -1.0
outer loop
vertex 1513.29509299622 -1274.89659631763 0.0
vertex 1506.95055115633 -1219.28621565485 0.0
vertex 1513.29509299622 -1219.28621565485 0.0
endloop
endfacet
facet normal 0.0 0.0 -1.0
outer loop
vertex 1397.10058669035 -1370.97108703596 0.0
vertex 1329.85783644729 -1474.29007537818 0.0
vertex 1329.85783644729 -1370.97108703596 0.0
endloop
endfacet
facet normal 0.0 0.0 -1.0
outer loop
vertex 1506.95055115633 -1370.97108703596 0.0
vertex 1401.63240229028 -1429.50966066965 0.0
vertex 1401.63240229028 -1370.97108703596 0.0
endloop
endfacet
facet normal 0.0 0.0 -1.0
outer loop
vertex 1401.63240229028 -1429.50966066965 0.0
vertex 1506.95055115633 -1370.97108703596 0.0
vertex 1439.86428296557 -1506.91562037432 0.0
endloop
endfacet
facet normal 0.0 0.0 -1.0
outer loop
vertex 1439.86428296557 -1506.91562037432 0.0
vertex 1506.95055115633 -1370.97108703596 0.0
vertex 1439.86428296557 -1506.91816923451 0.0
endloop
endfacet
facet normal 0.0 0.0 -1.0
outer loop
vertex 1439.86428296557 -1506.91816923451 0.0
vertex 1506.95055115633 -1370.97108703596 0.0
vertex 1439.86568955959 -1506.92273374161 0.0
endloop
endfacet
facet normal 0.0 0.0 -1.0
outer loop
vertex 1439.86568955959 -1506.92273374161 0.0
vertex 1506.95055115633 -1370.97108703596 0.0
vertex 1478.28289747955 -1631.58956417194 0.0
endloop
endfacet
facet normal 0.0 0.0 -1.0
outer loop
vertex 1478.28289747955 -1631.58956417194 0.0
vertex 1506.95055115633 -1370.97108703596 0.0
vertex 1506.95055115633 -1631.58956417194 0.0
endloop
endfacet
facet normal 0.0 0.0 -1.0
outer loop
vertex 1329.85783644729 -1474.29007537818 0.0
vertex 1325.32602084737 -1506.91562037432 0.0
vertex 1325.32602084737 -1474.29007537818 0.0
endloop
endfacet
facet normal 0.0 0.0 -1.0
outer loop
vertex 1325.32602084737 -1506.91562037432 0.0
vertex 1329.85783644729 -1474.29007537818 0.0
vertex 1439.86428296557 -1506.91562037432 0.0
endloop
endfacet
facet normal 0.0 0.0 -1.0
outer loop
vertex 1439.86428296557 -1506.91562037432 0.0
vertex 1329.85783644729 -1474.29007537818 0.0
vertex 1397.10058669035 -1429.50966066965 0.0
endloop
endfacet
facet normal 0.0 0.0 -1.0
outer loop
vertex 1397.10058669035 -1429.50966066965 0.0
vertex 1329.85783644729 -1474.29007537818 0.0
vertex 1397.10058669035 -1370.97108703596 0.0
endloop
endfacet
facet normal 0.0 0.0 -1.0
outer loop
vertex 1439.86428296557 -1506.91562037432 0.0
vertex 1397.10058669035 -1429.50966066965 0.0
vertex 1401.63240229028 -1429.50966066965 0.0
endloop
endfacet
facet normal 0.0 0.0 -1.0
outer loop
vertex 1416.49877988456 -1511.44743597424 0.0
vertex 1329.85783644729 -1578.60803627235 0.0
vertex 1329.85783644729 -1511.44743597424 0.0
endloop
endfacet
facet normal 0.0 0.0 -1.0
outer loop
vertex 1275.37743226845 -1726.49202084974 0.0
vertex 1325.32602084737 -1578.60803627235 0.0
vertex 1506.95055115633 -1726.49202084972 0.0
endloop
endfacet
facet normal 0.0 0.0 -1.0
outer loop
vertex 1325.32602084737 -1578.60803627235 0.0
vertex 1275.37743226845 -1726.49202084974 0.0
vertex 1325.32602084737 -1274.89659631763 0.0
endloop
endfacet
facet normal 0.0 0.0 -1.0
outer loop
vertex 1325.32602084737 -1578.60803627235 0.0
vertex 1325.32602084737 -1274.89659631763 0.0
vertex 1325.32602084737 -1279.42841191755 0.0
endloop
endfacet
facet normal 0.0 0.0 -1.0
outer loop
vertex 1325.32602084737 -1578.60803627235 0.0
vertex 1325.32602084737 -1279.42841191755 0.0
vertex 1325.32602084737 -1366.43927143604 0.0
endloop
endfacet
facet normal 0.0 0.0 -1.0
outer loop
vertex 1325.32602084737 -1578.60803627235 0.0
vertex 1325.32602084737 -1366.43927143604 0.0
vertex 1325.32602084737 -1474.29007537818 0.0
endloop
endfacet
facet normal 0.0 0.0 -1.0
outer loop
vertex 1325.32602084737 -1578.60803627235 0.0
vertex 1325.32602084737 -1474.29007537818 0.0
vertex 1325.32602084737 -1506.91562037432 0.0
endloop
endfacet
facet normal 0.0 0.0 -1.0
outer loop
vertex 1506.95055115633 -1726.49202084972 0.0
vertex 1325.32602084737 -1578.60803627235 0.0
vertex 1329.85783644729 -1578.60803627235 0.0
endloop
endfacet
facet normal 0.0 0.0 -1.0
outer loop
vertex 1506.95055115633 -1726.49202084972 0.0
vertex 1329.85783644729 -1578.60803627235 0.0
vertex 1416.49877988456 -1578.5992015009 0.0
endloop
endfacet
facet normal 0.0 0.0 -1.0
outer loop
vertex 1416.49877988456 -1578.5992015009 0.0
vertex 1329.85783644729 -1578.60803627235 0.0
vertex 1416.49877988456 -1511.44743597424 0.0
endloop
endfacet
facet normal 0.0 0.0 -1.0
outer loop
vertex 1506.95055115633 -1726.49202084972 0.0
vertex 1416.49877988456 -1578.5992015009 0.0
vertex 1474.93730594314 -1636.12137977186 0.0
endloop
endfacet
facet normal 0.0 0.0 -1.0
outer loop
vertex 1474.93730594314 -1636.12137977186 0.0
vertex 1416.49877988456 -1578.5992015009 0.0
vertex 1457.21132805863 -1578.5992015009 0.0
endloop
endfacet
facet normal 0.0 0.0 -1.0
outer loop
vertex 1506.95055115633 -1726.49202084972 0.0
vertex 1474.93730594314 -1636.12137977186 0.0
vertex 1506.95055115633 -1636.12137977186 0.0
endloop
endfacet
facet normal 0.0 0.0 -1.0
outer loop
vertex 1271.06353910938 -1218.70208287862 0.0
vertex 1220.87368134026 -1218.70208287862 0.0
vertex 1271.06353910938 -1186.10133440669 0.0
endloop
endfacet
facet normal 0.0 0.0 -1.0
outer loop
vertex 1220.8703314804 -1589.63118973212 0.0
vertex 1039.2671812445 -1726.49202084973 0.0
vertex 1039.2671812445 -1589.63118973212 0.0
endloop
endfacet
facet normal 0.0 0.0 -1.0
outer loop
vertex 1039.2671812445 -1726.49202084973 0.0
vertex 1220.8703314804 -1589.63118973212 0.0
vertex 1270.84561666853 -1726.49202084974 0.0
endloop
endfacet
facet normal 0.0 0.0 -1.0
outer loop
vertex 1270.84561666853 -1726.49202084974 0.0
vertex 1220.8703314804 -1589.63118973212 0.0
vertex 1220.87368134026 -1370.97108703595 0.0
endloop
endfacet
facet normal 0.0 0.0 -1.0
outer loop
vertex 1270.84561666853 -1726.49202084974 0.0
vertex 1220.87368134026 -1370.97108703595 0.0
vertex 1270.84561666853 -1574.18065771103 0.0
endloop
endfacet
facet normal 0.0 0.0 -1.0
outer loop
vertex 1039.2671812445 -1219.28621565485 0.0
vertex 1032.92263940461 -1274.89659631762 0.0
vertex 1032.92263940461 -1219.28621565485 0.0
endloop
endfacet
facet normal 0.0 0.0 -1.0
outer loop
vertex 1032.92263940461 -1274.89659631762 0.0
vertex 1039.2671812445 -1219.28621565485 0.0
vertex 1220.87368134026 -1274.89659631762 0.0
endloop
endfacet
facet normal 0.0 0.0 -1.0
outer loop
vertex 1220.87368134026 -1274.89659631762 0.0
vertex 1039.2671812445 -1219.28621565485 0.0
vertex 1167.08063135473 -1085.46670424094 0.0
endloop
endfacet
facet normal 0.0 0.0 -1.0
outer loop
vertex 1220.87368134026 -1274.89659631762 0.0
vertex 1167.08063135473 -1085.46670424094 0.0
vertex 1216.34186574034 -1223.68708003853 0.0
endloop
endfacet
facet normal 0.0 0.0 -1.0
outer loop
vertex 1216.34186574034 -1223.68708003853 0.0
vertex 1167.08063135473 -1085.46670424094 0.0
vertex 1216.34186574034 -1218.70208287862 0.0
endloop
endfacet
facet normal 0.0 0.0 -1.0
outer loop
vertex 1220.87368134026 -1274.89659631762 0.0
vertex 1216.34186574034 -1223.68708003853 0.0
vertex 1220.87368134026 -1223.68708003853 0.0
endloop
endfacet
facet normal 0.0 0.0 -1.0
outer loop
vertex 1216.33851588048 -1585.0993741322 0.0
vertex 1039.2671812445 -1585.0993741322 0.0
vertex 1216.33851588048 -1415.38287991517 0.0
endloop
endfacet
facet normal 0.0 0.0 -1.0
outer loop
vertex 1220.8703314804 -1366.43927143603 72.0
vertex 1039.2671812445 -1370.97108703595 72.0
vertex 1039.2671812445 -1366.43927143603 72.0
endloop
endfacet
facet normal 0.0 0.0 -1.0
outer loop
vertex 1039.2671812445 -1370.97108703595 72.0
vertex 1220.8703314804 -1366.43927143603 72.0
vertex 1220.8703314804 -1370.97108703595 72.0
endloop
endfacet
facet normal 0.0 0.0 -1.0
outer loop
vertex 1220.8703314804 -1415.38287991517 72.0
vertex 1216.33851588048 -1585.0993741322 72.0
vertex 1216.33851588048 -1415.38287991517 72.0
endloop
endfacet
facet normal 0.0 0.0 -1.0
outer loop
vertex 1216.33851588048 -1585.0993741322 72.0
vertex 1039.2671812445 -1589.63118973212 72.0
vertex 1039.2671812445 -1585.0993741322 72.0
endloop
endfacet
facet normal 0.0 0.0 -1.0
outer loop
vertex 1039.2671812445 -1589.63118973212 72.0
vertex 1216.33851588048 -1585.0993741322 72.0
vertex 1220.8703314804 -1589.63118973212 72.0
endloop
endfacet
facet normal 0.0 0.0 -1.0
outer loop
vertex 1220.8703314804 -1589.63118973212 72.0
vertex 1216.33851588048 -1585.0993741322 72.0
vertex 1220.8703314804 -1415.38287991517 72.0
endloop
endfacet
facet normal 0.0 0.0 -1.0
outer loop
vertex 1220.8703314804 -1589.63118973212 72.0
vertex 1220.8703314804 -1415.38287991517 72.0
vertex 1220.8703314804 -1572.71408265285 72.0
endloop
endfacet
facet normal 0.0 0.0 -1.0
outer loop
vertex 1220.8703314804 -1589.63118973212 72.0
vertex 1220.8703314804 -1572.71408265285 72.0
vertex 1220.8703314804 -1574.06738590098 72.0
endloop
endfacet
facet normal 0.0 0.0 -1.0
outer loop
vertex 1220.8703314804 -1589.63118973212 72.0
vertex 1220.8703314804 -1574.06738590098 72.0
vertex 1220.8703314804 -1585.0993741322 72.0
endloop
endfacet
facet normal 0.0 0.0 -1.0
outer loop
vertex 1275.37743226845 -1574.18065771103 72.0
vertex 1270.84561666853 -1726.49202084974 72.0
vertex 1270.84561666853 -1574.18065771103 72.0
endloop
endfacet
facet normal 0.0 0.0 -1.0
outer loop
vertex 1325.32602084737 -1366.43927143604 72.0
vertex 1329.85783644729 -1370.97108703596 72.0
vertex 1325.32602084737 -1474.29007537818 72.0
endloop
endfacet
facet normal 0.0 0.0 -1.0
outer loop
vertex 1329.85783644729 -1370.97108703596 72.0
vertex 1325.32602084737 -1366.43927143604 72.0
vertex 1517.82690859614 -1366.43927143602 72.0
endloop
endfacet
facet normal 0.0 0.0 -1.0
outer loop
vertex 1329.85783644729 -1370.97108703596 72.0
vertex 1517.82690859614 -1366.43927143602 72.0
vertex 1397.10058669035 -1370.97108703596 72.0
endloop
endfacet
facet normal 0.0 0.0 -1.0
outer loop
vertex 1397.10058669035 -1370.97108703596 72.0
vertex 1517.82690859614 -1366.43927143602 72.0
vertex 1401.63240229028 -1370.97108703596 72.0
endloop
endfacet
facet normal 0.0 0.0 -1.0
outer loop
vertex 1397.10058669035 -1370.97108703596 72.0
vertex 1401.63240229028 -1370.97108703596 72.0
vertex 1397.10058669035 -1429.50966066965 72.0
endloop
endfacet
facet normal 0.0 0.0 -1.0
outer loop
vertex 1401.63240229028 -1370.97108703596 72.0
vertex 1517.82690859614 -1366.43927143602 72.0
vertex 1506.95055115633 -1370.97108703596 72.0
endloop
endfacet
facet normal 0.0 0.0 -1.0
outer loop
vertex 1506.95055115633 -1370.97108703596 72.0
vertex 1517.82690859614 -1366.43927143602 72.0
vertex 1506.95055115633 -1631.58956417194 72.0
endloop
endfacet
facet normal 0.0 0.0 -1.0
outer loop
vertex 1506.95055115633 -1631.58956417194 72.0
vertex 1517.82690859614 -1366.43927143602 72.0
vertex 1506.95055115633 -1636.12137977186 72.0
endloop
endfacet
facet normal 0.0 0.0 -1.0
outer loop
vertex 1506.95055115633 -1636.12137977186 72.0
vertex 1517.82690859614 -1366.43927143602 72.0
vertex 1506.95055115633 -1726.49202084972 72.0
endloop
endfacet
facet normal 0.0 0.0 -1.0
outer loop
vertex 1028.39082380469 -1366.43927143603 72.0
vertex 1028.39082380469 -1579.6611954123 72.0
vertex 1028.39082380469 -1569.44187981237 72.0
endloop
endfacet
facet normal 0.0 0.0 -1.0
outer loop
vertex 1028.39082380469 -1579.6611954123 72.0
vertex 1028.39082380469 -1366.43927143603 72.0
vertex 1028.39082380469 -1737.36837828954 72.0
endloop
endfacet
facet normal 0.0 0.0 -1.0
outer loop
vertex 1028.39082380469 -1737.36837828954 72.0
vertex 1028.39082380469 -1366.43927143603 72.0
vertex 1039.2671812445 -1366.43927143603 72.0
endloop
endfacet
facet normal 0.0 0.0 -1.0
outer loop
vertex 1028.39082380469 -1737.36837828954 72.0
vertex 1039.2671812445 -1366.43927143603 72.0
vertex 1039.2671812445 -1726.49202084973 72.0
endloop
endfacet
facet normal 0.0 0.0 -1.0
outer loop
vertex 1028.39082380469 -1737.36837828954 72.0
vertex 1039.2671812445 -1726.49202084973 72.0
vertex 1517.82690859614 -1737.36837828953 72.0
endloop
endfacet
facet normal 0.0 0.0 -1.0
outer loop
vertex 1039.2671812445 -1726.49202084973 72.0
vertex 1039.2671812445 -1366.43927143603 72.0
vertex 1039.2671812445 -1370.97108703595 72.0
endloop
endfacet
facet normal 0.0 0.0 -1.0
outer loop
vertex 1039.2671812445 -1726.49202084973 72.0
vertex 1039.2671812445 -1370.97108703595 72.0
vertex 1039.2671812445 -1585.0993741322 72.0
endloop
endfacet
facet normal 0.0 0.0 -1.0
outer loop
vertex 1039.2671812445 -1726.49202084973 72.0
vertex 1039.2671812445 -1585.0993741322 72.0
vertex 1039.2671812445 -1589.63118973212 72.0
endloop
endfacet
facet normal 0.0 0.0 -1.0
outer loop
vertex 1517.82690859614 -1737.36837828953 72.0
vertex 1039.2671812445 -1726.49202084973 72.0
vertex 1270.84561666853 -1726.49202084974 72.0
endloop
endfacet
facet normal 0.0 0.0 -1.0
outer loop
vertex 1517.82690859614 -1737.36837828953 72.0
vertex 1270.84561666853 -1726.49202084974 72.0
vertex 1275.37743226845 -1726.49202084974 72.0
endloop
endfacet
facet normal 0.0 0.0 -1.0
outer loop
vertex 1275.37743226845 -1726.49202084974 72.0
vertex 1270.84561666853 -1726.49202084974 72.0
vertex 1275.37743226845 -1574.18065771103 72.0
endloop
endfacet
facet normal 0.0 0.0 -1.0
outer loop
vertex 1517.82690859614 -1737.36837828953 72.0
vertex 1275.37743226845 -1726.49202084974 72.0
vertex 1506.95055115633 -1726.49202084972 72.0
endloop
endfacet
facet normal 0.0 0.0 -1.0
outer loop
vertex 1517.82690859614 -1737.36837828953 72.0
vertex 1506.95055115633 -1726.49202084972 72.0
vertex 1517.82690859614 -1585.34869541235 72.0
endloop
endfacet
facet normal 0.0 0.0 -1.0
outer loop
vertex 1517.82690859614 -1585.34869541235 72.0
vertex 1506.95055115633 -1726.49202084972 72.0
vertex 1517.82690859614 -1366.43927143602 72.0
endloop
endfacet
facet normal 0.0 0.0 -1.0
outer loop
vertex 1517.82690859614 -1585.34869541235 72.0
vertex 1517.82690859614 -1366.43927143602 72.0
vertex 1517.82690859614 -1575.12937981243 72.0
endloop
endfacet
facet normal 0.0 0.0 -1.0
outer loop
vertex 1401.63240229028 -1429.50966066965 72.0
vertex 1397.10058669035 -1429.50966066965 72.0
vertex 1401.63240229028 -1370.97108703596 72.0
endloop
endfacet
facet normal 0.0 0.0 -1.0
outer loop
vertex 1329.85783644729 -1474.29007537818 72.0
vertex 1325.32602084737 -1474.29007537818 72.0
vertex 1329.85783644729 -1370.97108703596 72.0
endloop
endfacet
facet normal -1.0 -0.0 -0.0
outer loop
vertex 1275.37743226845 -1574.18065771103 72.0
vertex 1275.37743226845 -1726.49202084974 0.0
vertex 1275.37743226845 -1726.49202084974 72.0
endloop
endfacet
facet normal -1.0 -0.0 -0.0
outer loop
vertex 1275.37743226845 -1726.49202084974 0.0
vertex 1275.37743226845 -1574.18065771103 72.0
vertex 1275.37743226845 -1574.18065771103 0.0
endloop
endfacet
facet normal 5.30207414958186e-14 -1.0 0.0
outer loop
vertex 1506.95055115633 -1726.49202084972 72.0
vertex 1275.37743226845 -1726.49202084974 0.0
vertex 1506.95055115633 -1726.49202084972 0.0
endloop
endfacet
facet normal 5.30207414958186e-14 -1.0 0.0
outer loop
vertex 1275.37743226845 -1726.49202084974 0.0
vertex 1506.95055115633 -1726.49202084972 72.0
vertex 1275.37743226845 -1726.49202084974 72.0
endloop
endfacet
facet normal 1.0 0.0 0.0
outer loop
vertex 1506.95055115633 -1636.12137977186 0.0
vertex 1506.95055115633 -1726.49202084972 72.0
vertex 1506.95055115633 -1726.49202084972 0.0
endloop
endfacet
facet normal 1.0 0.0 0.0
outer loop
vertex 1506.95055115633 -1726.49202084972 72.0
vertex 1506.95055115633 -1636.12137977186 0.0
vertex 1506.95055115633 -1636.12137977186 72.0
endloop
endfacet
facet normal 1.0 0.0 0.0
outer loop
vertex 1506.95055115633 -1370.97108703596 0.0
vertex 1506.95055115633 -1631.58956417194 72.0
vertex 1506.95055115633 -1631.58956417194 0.0
endloop
endfacet
facet normal 1.0 0.0 0.0
outer loop
vertex 1506.95055115633 -1631.58956417194 72.0
vertex 1506.95055115633 -1370.97108703596 0.0
vertex 1506.95055115633 -1370.97108703596 72.0
endloop
endfacet
facet normal 0.0 1.0 0.0
outer loop
vertex 1401.63240229028 -1370.97108703596 72.0
vertex 1506.95055115633 -1370.97108703596 0.0
vertex 1401.63240229028 -1370.97108703596 0.0
endloop
endfacet
facet normal 0.0 1.0 0.0
outer loop
vertex 1506.95055115633 -1370.97108703596 0.0
vertex 1401.63240229028 -1370.97108703596 72.0
vertex 1506.95055115633 -1370.97108703596 72.0
endloop
endfacet
facet normal -1.0 -0.0 -0.0
outer loop
vertex 1401.63240229028 -1370.97108703596 72.0
vertex 1401.63240229028 -1429.50966066965 0.0
vertex 1401.63240229028 -1429.50966066965 72.0
endloop
endfacet
facet normal -1.0 -0.0 -0.0
outer loop
vertex 1401.63240229028 -1429.50966066965 0.0
vertex 1401.63240229028 -1370.97108703596 72.0
vertex 1401.63240229028 -1370.97108703596 0.0
endloop
endfacet
facet normal 0.0 1.0 0.0
outer loop
vertex 1397.10058669035 -1429.50966066965 72.0
vertex 1401.63240229028 -1429.50966066965 0.0
vertex 1397.10058669035 -1429.50966066965 0.0
endloop
endfacet
facet normal 0.0 1.0 0.0
outer loop
vertex 1401.63240229028 -1429.50966066965 0.0
vertex 1397.10058669035 -1429.50966066965 72.0
vertex 1401.63240229028 -1429.50966066965 72.0
endloop
endfacet
facet normal 1.0 0.0 0.0
outer loop
vertex 1397.10058669035 -1370.97108703596 0.0
vertex 1397.10058669035 -1429.50966066965 72.0
vertex 1397.10058669035 -1429.50966066965 0.0
endloop
endfacet
facet normal 1.0 0.0 0.0
outer loop
vertex 1397.10058669035 -1429.50966066965 72.0
vertex 1397.10058669035 -1370.97108703596 0.0
vertex 1397.10058669035 -1370.97108703596 72.0
endloop
endfacet
facet normal 0.0 1.0 0.0
outer loop
vertex 1329.85783644729 -1370.97108703596 72.0
vertex 1397.10058669035 -1370.97108703596 0.0
vertex 1329.85783644729 -1370.97108703596 0.0
endloop
endfacet
facet normal 0.0 1.0 0.0
outer loop
vertex 1397.10058669035 -1370.97108703596 0.0
vertex 1329.85783644729 -1370.97108703596 72.0
vertex 1397.10058669035 -1370.97108703596 72.0
endloop
endfacet
facet normal -1.0 -0.0 -0.0
outer loop
vertex 1329.85783644729 -1370.97108703596 72.0
vertex 1329.85783644729 -1474.29007537818 0.0
vertex 1329.85783644729 -1474.29007537818 72.0
endloop
endfacet
facet normal -1.0 -0.0 -0.0
outer loop
vertex 1329.85783644729 -1474.29007537818 0.0
vertex 1329.85783644729 -1370.97108703596 72.0
vertex 1329.85783644729 -1370.97108703596 0.0
endloop
endfacet
facet normal 0.0 1.0 0.0
outer loop
vertex 1325.32602084737 -1474.29007537818 72.0
vertex 1329.85783644729 -1474.29007537818 0.0
vertex 1325.32602084737 -1474.29007537818 0.0
endloop
endfacet
facet normal 0.0 1.0 0.0
outer loop
vertex 1329.85783644729 -1474.29007537818 0.0
vertex 1325.32602084737 -1474.29007537818 72.0
vertex 1329.85783644729 -1474.29007537818 72.0
endloop
endfacet
facet normal 1.0 0.0 0.0
outer loop
vertex 1325.32602084737 -1366.43927143604 0.0
vertex 1325.32602084737 -1474.29007537818 72.0
vertex 1325.32602084737 -1474.29007537818 0.0
endloop
endfacet
facet normal 1.0 0.0 0.0
outer loop
vertex 1325.32602084737 -1474.29007537818 72.0
vertex 1325.32602084737 -1366.43927143604 0.0
vertex 1325.32602084737 -1366.43927143604 72.0
endloop
endfacet
facet normal 6.61447641812365e-14 -1.0 0.0
outer loop
vertex 1517.82690859614 -1366.43927143602 72.0
vertex 1325.32602084737 -1366.43927143604 0.0
vertex 1517.82690859614 -1366.43927143602 0.0
endloop
endfacet
facet normal 6.61447641812365e-14 -1.0 0.0
outer loop
vertex 1325.32602084737 -1366.43927143604 0.0
vertex 1517.82690859614 -1366.43927143602 72.0
vertex 1325.32602084737 -1366.43927143604 72.0
endloop
endfacet
facet normal -1.0 0.0 0.0
outer loop
vertex 1517.82690859614 -1366.43927143602 72.0
vertex 1517.82690859614 -1575.12937981243 0.0
vertex 1517.82690859614 -1575.12937981243 72.0
endloop
endfacet
facet normal -1.0 0.0 0.0
outer loop
vertex 1517.82690859614 -1575.12937981243 0.0
vertex 1517.82690859614 -1366.43927143602 72.0
vertex 1517.82690859614 -1366.43927143602 0.0
endloop
endfacet
facet normal -1.0 -1.78505355800934e-14 0.0
outer loop
vertex 1517.82690859614 -1585.34869541235 72.0
vertex 1517.82690859614 -1737.36837828953 0.0
vertex 1517.82690859614 -1737.36837828953 72.0
endloop
endfacet
facet normal -1.0 -1.78505355800934e-14 0.0
outer loop
vertex 1517.82690859614 -1737.36837828953 0.0
vertex 1517.82690859614 -1585.34869541235 72.0
vertex 1517.82690859614 -1585.34869541235 0.0
endloop
endfacet
facet normal -2.22990023833769e-14 1.0 0.0
outer loop
vertex 1028.39082380469 -1737.36837828954 72.0
vertex 1517.82690859614 -1737.36837828953 0.0
vertex 1028.39082380469 -1737.36837828954 0.0
endloop
endfacet
facet normal -2.22990023833769e-14 1.0 0.0
outer loop
vertex 1517.82690859614 -1737.36837828953 0.0
vertex 1028.39082380469 -1737.36837828954 72.0
vertex 1517.82690859614 -1737.36837828953 72.0
endloop
endfacet
facet normal 1.0 8.92526779004289e-15 0.0
outer loop
vertex 1028.39082380469 -1579.6611954123 0.0
vertex 1028.39082380469 -1737.36837828954 72.0
vertex 1028.39082380469 -1737.36837828954 0.0
endloop
endfacet
facet normal 1.0 8.92526779004289e-15 0.0
outer loop
vertex 1028.39082380469 -1737.36837828954 72.0
vertex 1028.39082380469 -1579.6611954123 0.0
vertex 1028.39082380469 -1579.6611954123 72.0
endloop
endfacet
facet normal 0.0 -1.0 0.0
outer loop
vertex 1039.2671812445 -1366.43927143603 72.0
vertex 1028.39082380469 -1366.43927143603 0.0
vertex 1039.2671812445 -1366.43927143603 0.0
endloop
endfacet
facet normal 0.0 -1.0 0.0
outer loop
vertex 1028.39082380469 -1366.43927143603 0.0
vertex 1039.2671812445 -1366.43927143603 72.0
vertex 1028.39082380469 -1366.43927143603 72.0
endloop
endfacet
facet normal 0.0 -1.0 0.0
outer loop
vertex 1220.8703314804 -1366.43927143603 72.0
vertex 1039.2671812445 -1366.43927143603 0.0
vertex 1220.8703314804 -1366.43927143603 0.0
endloop
endfacet
facet normal 0.0 -1.0 0.0
outer loop
vertex 1039.2671812445 -1366.43927143603 0.0
vertex 1220.8703314804 -1366.43927143603 72.0
vertex 1039.2671812445 -1366.43927143603 72.0
endloop
endfacet
facet normal -1.0 -0.0 -0.0
outer loop
vertex 1220.8703314804 -1366.43927143603 72.0
vertex 1220.8703314804 -1370.97108703595 0.0
vertex 1220.8703314804 -1370.97108703595 72.0
endloop
endfacet
facet normal -1.0 -0.0 -0.0
outer loop
vertex 1220.8703314804 -1370.97108703595 0.0
vertex 1220.8703314804 -1366.43927143603 72.0
vertex 1220.8703314804 -1366.43927143603 0.0
endloop
endfacet
facet normal 0.0 1.0 0.0
outer loop
vertex 1039.2671812445 -1370.97108703595 72.0
vertex 1220.8703314804 -1370.97108703595 0.0
vertex 1039.2671812445 -1370.97108703595 0.0
endloop
endfacet
facet normal 0.0 1.0 0.0
outer loop
vertex 1220.8703314804 -1370.97108703595 0.0
vertex 1039.2671812445 -1370.97108703595 72.0
vertex 1220.8703314804 -1370.97108703595 72.0
endloop
endfacet
facet normal -1.0 -0.0 -0.0
outer loop
vertex 1039.2671812445 -1370.97108703595 72.0
vertex 1039.2671812445 -1585.0993741322 0.0
vertex 1039.2671812445 -1585.0993741322 72.0
endloop
endfacet
facet normal -1.0 -0.0 -0.0
outer loop
vertex 1039.2671812445 -1585.0993741322 0.0
vertex 1039.2671812445 -1370.97108703595 72.0
vertex 1039.2671812445 -1370.97108703595 0.0
endloop
endfacet
facet normal 0.0 -1.0 0.0
outer loop
vertex 1216.33851588048 -1585.0993741322 72.0
vertex 1039.2671812445 -1585.0993741322 0.0
vertex 1216.33851588048 -1585.0993741322 0.0
endloop
endfacet
facet normal 0.0 -1.0 0.0
outer loop
vertex 1039.2671812445 -1585.0993741322 0.0
vertex 1216.33851588048 -1585.0993741322 72.0
vertex 1039.2671812445 -1585.0993741322 72.0
endloop
endfacet
facet normal 1.0 0.0 0.0
outer loop
vertex 1216.33851588048 -1415.38287991517 0.0
vertex 1216.33851588048 -1585.0993741322 72.0
vertex 1216.33851588048 -1585.0993741322 0.0
endloop
endfacet
facet normal 1.0 0.0 0.0
outer loop
vertex 1216.33851588048 -1585.0993741322 72.0
vertex 1216.33851588048 -1415.38287991517 0.0
vertex 1216.33851588048 -1415.38287991517 72.0
endloop
endfacet
facet normal 0.0 -1.0 0.0
outer loop
vertex 1220.8703314804 -1415.38287991517 72.0
vertex 1216.33851588048 -1415.38287991517 0.0
vertex 1220.8703314804 -1415.38287991517 0.0
endloop
endfacet
facet normal 0.0 -1.0 0.0
outer loop
vertex 1216.33851588048 -1415.38287991517 0.0
vertex 1220.8703314804 -1415.38287991517 72.0
vertex 1216.33851588048 -1415.38287991517 72.0
endloop
endfacet
facet normal -1.0 -0.0 -0.0
outer loop
vertex 1220.8703314804 -1415.38287991517 72.0
vertex 1220.8703314804 -1572.71408265285 0.0
vertex 1220.8703314804 -1572.71408265285 72.0
endloop
endfacet
facet normal -1.0 -0.0 -0.0
outer loop
vertex 1220.8703314804 -1572.71408265285 0.0
vertex 1220.8703314804 -1415.38287991517 72.0
vertex 1220.8703314804 -1415.38287991517 0.0
endloop
endfacet
facet normal -1.0 0.0 0.0
outer loop
vertex 1220.8703314804 -1572.71408265285 72.0
vertex 1220.8703314804 -1574.06738590098 0.0
vertex 1220.8703314804 -1574.06738590098 72.0
endloop
endfacet
facet normal -1.0 0.0 0.0
outer loop
vertex 1220.8703314804 -1574.06738590098 0.0
vertex 1220.8703314804 -1572.71408265285 72.0
vertex 1220.8703314804 -1572.71408265285 0.0
endloop
endfacet
facet normal -1.0 0.0 0.0
outer loop
vertex 1220.8703314804 -1574.06738590098 72.0
vertex 1220.8703314804 -1585.0993741322 0.0
vertex 1220.8703314804 -1585.0993741322 72.0
endloop
endfacet
facet normal -1.0 0.0 0.0
outer loop
vertex 1220.8703314804 -1585.0993741322 0.0
vertex 1220.8703314804 -1574.06738590098 72.0
vertex 1220.8703314804 -1574.06738590098 0.0
endloop
endfacet
facet normal -1.0 -0.0 -0.0
outer loop
vertex 1220.8703314804 -1585.0993741322 72.0
vertex 1220.8703314804 -1589.63118973212 0.0
vertex 1220.8703314804 -1589.63118973212 72.0
endloop
endfacet
facet normal -1.0 -0.0 -0.0
outer loop
vertex 1220.8703314804 -1589.63118973212 0.0
vertex 1220.8703314804 -1585.0993741322 72.0
vertex 1220.8703314804 -1585.0993741322 0.0
endloop
endfacet
facet normal 0.0 1.0 0.0
outer loop
vertex 1039.2671812445 -1589.63118973212 72.0
vertex 1220.8703314804 -1589.63118973212 0.0
vertex 1039.2671812445 -1589.63118973212 0.0
endloop
endfacet
facet normal 0.0 1.0 0.0
outer loop
vertex 1220.8703314804 -1589.63118973212 0.0
vertex 1039.2671812445 -1589.63118973212 72.0
vertex 1220.8703314804 -1589.63118973212 72.0
endloop
endfacet
facet normal -1.0 -0.0 -0.0
outer loop
vertex 1039.2671812445 -1589.63118973212 72.0
vertex 1039.2671812445 -1726.49202084973 0.0
vertex 1039.2671812445 -1726.49202084973 72.0
endloop
endfacet
facet normal -1.0 -0.0 -0.0
outer loop
vertex 1039.2671812445 -1726.49202084973 0.0
vertex 1039.2671812445 -1589.63118973212 72.0
vertex 1039.2671812445 -1589.63118973212 0.0
endloop
endfacet
facet normal -4.41829368792938e-14 -1.0 -0.0
outer loop
vertex 1270.84561666853 -1726.49202084974 72.0
vertex 1039.2671812445 -1726.49202084973 0.0
vertex 1270.84561666853 -1726.49202084974 0.0
endloop
endfacet
facet normal -4.41829368792938e-14 -1.0 -0.0
outer loop
vertex 1039.2671812445 -1726.49202084973 0.0
vertex 1270.84561666853 -1726.49202084974 72.0
vertex 1039.2671812445 -1726.49202084973 72.0
endloop
endfacet
facet normal 1.0 0.0 0.0
outer loop
vertex 1270.84561666853 -1574.18065771103 0.0
vertex 1270.84561666853 -1726.49202084974 72.0
vertex 1270.84561666853 -1726.49202084974 0.0
endloop
endfacet
facet normal 1.0 0.0 0.0
outer loop
vertex 1270.84561666853 -1726.49202084974 72.0
vertex 1270.84561666853 -1574.18065771103 0.0
vertex 1270.84561666853 -1574.18065771103 72.0
endloop
endfacet
facet normal 0.0 -1.0 0.0
outer loop
vertex 1275.37743226845 -1574.18065771103 72.0
vertex 1270.84561666853 -1574.18065771103 0.0
vertex 1275.37743226845 -1574.18065771103 0.0
endloop
endfacet
facet normal 0.0 -1.0 0.0
outer loop
vertex 1270.84561666853 -1574.18065771103 0.0
vertex 1275.37743226845 -1574.18065771103 72.0
vertex 1270.84561666853 -1574.18065771103 72.0
endloop
endfacet
facet normal 0.0 0.0 -1.0
outer loop
vertex 1275.5953547093 -1186.10133440669 72.0
vertex 1271.06353910938 -1218.70208287862 72.0
vertex 1271.06353910938 -1186.10133440669 72.0
endloop
endfacet
facet normal 0.0 0.0 -1.0
outer loop
vertex 1517.82690859614 -1074.5917718641 72.0
vertex 1506.95055115633 -1074.6177511496 72.0
vertex 1506.95055115633 -1074.5917718641 72.0
endloop
endfacet
facet normal 0.0 0.0 -1.0
outer loop
vertex 1506.95055115633 -1074.6177511496 72.0
vertex 1517.82690859614 -1074.5917718641 72.0
vertex 1506.95055115633 -1085.49410858941 72.0
endloop
endfacet
facet normal 0.0 0.0 -1.0
outer loop
vertex 1506.95055115633 -1085.49410858941 72.0
vertex 1517.82690859614 -1074.5917718641 72.0
vertex 1506.95055115633 -1219.28621565485 72.0
endloop
endfacet
facet normal 0.0 0.0 -1.0
outer loop
vertex 1506.95055115633 -1219.28621565485 72.0
vertex 1517.82690859614 -1074.5917718641 72.0
vertex 1513.29509299622 -1219.28621565485 72.0
endloop
endfacet
facet normal 0.0 0.0 -1.0
outer loop
vertex 1513.29509299622 -1219.28621565485 72.0
vertex 1517.82690859614 -1074.5917718641 72.0
vertex 1513.29509299622 -1274.89659631763 72.0
endloop
endfacet
facet normal 0.0 0.0 -1.0
outer loop
vertex 1513.29509299622 -1274.89659631763 72.0
vertex 1325.32602084737 -1279.42841191755 72.0
vertex 1325.32602084737 -1274.89659631763 72.0
endloop
endfacet
facet normal 0.0 0.0 -1.0
outer loop
vertex 1325.32602084737 -1279.42841191755 72.0
vertex 1513.29509299622 -1274.89659631763 72.0
vertex 1329.85783644729 -1279.42841191755 72.0
endloop
endfacet
facet normal 0.0 0.0 -1.0
outer loop
vertex 1329.85783644729 -1279.42841191755 72.0
vertex 1513.29509299622 -1274.89659631763 72.0
vertex 1517.82690859614 -1279.42841191755 72.0
endloop
endfacet
facet normal 0.0 0.0 -1.0
outer loop
vertex 1517.82690859614 -1279.42841191755 72.0
vertex 1513.29509299622 -1274.89659631763 72.0
vertex 1517.82690859614 -1074.5917718641 72.0
endloop
endfacet
facet normal 0.0 0.0 -1.0
outer loop
vertex 1517.82690859614 -1279.42841191755 72.0
vertex 1517.82690859614 -1074.5917718641 72.0
vertex 1517.82690859614 -1274.89659631763 72.0
endloop
endfacet
facet normal 0.0 0.0 -1.0
outer loop
vertex 1028.39082380469 -1074.59034680112 72.0
vertex 1039.2671812445 -1085.46670424093 72.0
vertex 1028.39082380469 -1124.44031840025 72.0
endloop
endfacet
facet normal 0.0 0.0 -1.0
outer loop
vertex 1039.2671812445 -1085.46670424093 72.0
vertex 1028.39082380469 -1074.59034680112 72.0
vertex 1176.0753238316 -1074.59173718188 72.0
endloop
endfacet
facet normal 0.0 0.0 -1.0
outer loop
vertex 1028.39082380469 -1124.44031840025 72.0
vertex 1039.2671812445 -1085.46670424093 72.0
vertex 1028.39082380469 -1134.09713400017 72.0
endloop
endfacet
facet normal 0.0 0.0 -1.0
outer loop
vertex 1028.39082380469 -1134.09713400017 72.0
vertex 1039.2671812445 -1085.46670424093 72.0
vertex 1028.39082380469 -1274.89659631762 72.0
endloop
endfacet
facet normal 0.0 0.0 -1.0
outer loop
vertex 1028.39082380469 -1274.89659631762 72.0
vertex 1039.2671812445 -1085.46670424093 72.0
vertex 1028.39082380469 -1279.42841191754 72.0
endloop
endfacet
facet normal 0.0 0.0 -1.0
outer loop
vertex 1028.39082380469 -1279.42841191754 72.0
vertex 1039.2671812445 -1085.46670424093 72.0
vertex 1032.92263940461 -1219.28621565485 72.0
endloop
endfacet
facet normal 0.0 0.0 -1.0
outer loop
vertex 1039.2671812445 -1085.46670424093 72.0
vertex 1176.0753238316 -1074.59173718188 72.0
vertex 1167.08063135473 -1085.46670424094 72.0
endloop
endfacet
facet normal 0.0 0.0 -1.0
outer loop
vertex 1167.08063135473 -1085.46670424094 72.0
vertex 1176.0753238316 -1074.59173718188 72.0
vertex 1298.19778501391 -1085.48697205638 72.0
endloop
endfacet
facet normal 0.0 0.0 -1.0
outer loop
vertex 1298.19778501391 -1085.48697205638 72.0
vertex 1176.0753238316 -1074.59173718188 72.0
vertex 1344.3656564381 -1074.6177511496 72.0
endloop
endfacet
facet normal 0.0 0.0 -1.0
outer loop
vertex 1298.19778501391 -1085.48697205638 72.0
vertex 1344.3656564381 -1074.6177511496 72.0
vertex 1302.72960061383 -1085.48767257496 72.0
endloop
endfacet
facet normal 0.0 0.0 -1.0
outer loop
vertex 1298.19778501391 -1085.48697205638 72.0
vertex 1302.72960061383 -1085.48767257496 72.0
vertex 1298.19778501391 -1186.10133440669 72.0
endloop
endfacet
facet normal 0.0 0.0 -1.0
outer loop
vertex 1302.72960061383 -1085.48767257496 72.0
vertex 1344.3656564381 -1074.6177511496 72.0
vertex 1344.3656564381 -1085.49410858941 72.0
endloop
endfacet
facet normal 0.0 0.0 -1.0
outer loop
vertex 1344.3656564381 -1085.49410858941 72.0
vertex 1344.3656564381 -1074.6177511496 72.0
vertex 1413.24925355691 -1074.6177511496 72.0
endloop
endfacet
facet normal 0.0 0.0 -1.0
outer loop
vertex 1344.3656564381 -1085.49410858941 72.0
vertex 1413.24925355691 -1074.6177511496 72.0
vertex 1506.95055115633 -1085.49410858941 72.0
endloop
endfacet
facet normal 0.0 0.0 -1.0
outer loop
vertex 1506.95055115633 -1085.49410858941 72.0
vertex 1413.24925355691 -1074.6177511496 72.0
vertex 1506.95055115633 -1074.6177511496 72.0
endloop
endfacet
facet normal 0.0 0.0 -1.0
outer loop
vertex 1271.06353910938 -1218.70208287862 72.0
vertex 1220.87368134026 -1223.23389847854 72.0
vertex 1220.87368134026 -1218.70208287862 72.0
endloop
endfacet
facet normal 0.0 0.0 -1.0
outer loop
vertex 1220.87368134026 -1223.23389847854 72.0
vertex 1271.06353910938 -1218.70208287862 72.0
vertex 1329.86384651836 -1223.23389847854 72.0
endloop
endfacet
facet normal 0.0 0.0 -1.0
outer loop
vertex 1329.86384651836 -1223.23389847854 72.0
vertex 1271.06353910938 -1218.70208287862 72.0
vertex 1275.5953547093 -1186.10133440669 72.0
endloop
endfacet
facet normal 0.0 0.0 -1.0
outer loop
vertex 1329.86384651836 -1223.23389847854 72.0
vertex 1275.5953547093 -1186.10133440669 72.0
vertex 1298.19778501391 -1186.10133440669 72.0
endloop
endfacet
facet normal 0.0 0.0 -1.0
outer loop
vertex 1329.86384651836 -1223.23389847854 72.0
vertex 1298.19778501391 -1186.10133440669 72.0
vertex 1302.72960061383 -1186.10133440669 72.0
endloop
endfacet
facet normal 0.0 0.0 -1.0
outer loop
vertex 1302.72960061383 -1186.10133440669 72.0
vertex 1298.19778501391 -1186.10133440669 72.0
vertex 1302.72960061383 -1085.48767257496 72.0
endloop
endfacet
facet normal 0.0 0.0 -1.0
outer loop
vertex 1329.86384651836 -1223.23389847854 72.0
vertex 1302.72960061383 -1186.10133440669 72.0
vertex 1325.33203091844 -1186.10133440669 72.0
endloop
endfacet
facet normal 0.0 0.0 -1.0
outer loop
vertex 1329.86384651836 -1223.23389847854 72.0
vertex 1325.33203091844 -1186.10133440669 72.0
vertex 1329.86384651836 -1186.10133440669 72.0
endloop
endfacet
facet normal 0.0 0.0 -1.0
outer loop
vertex 1220.87368134026 -1218.70208287862 72.0
vertex 1216.34186574034 -1223.68708003853 72.0
vertex 1216.34186574034 -1218.70208287862 72.0
endloop
endfacet
facet normal 0.0 0.0 -1.0
outer loop
vertex 1216.34186574034 -1223.68708003853 72.0
vertex 1220.87368134026 -1218.70208287862 72.0
vertex 1220.87368134026 -1223.68708003853 72.0
endloop
endfacet
facet normal 0.0 0.0 -1.0
outer loop
vertex 1220.87368134026 -1223.68708003853 72.0
vertex 1220.87368134026 -1218.70208287862 72.0
vertex 1220.87368134026 -1223.23389847854 72.0
endloop
endfacet
facet normal 0.0 0.0 -1.0
outer loop
vertex 1039.2671812445 -1219.28621565485 72.0
vertex 1032.92263940461 -1219.28621565485 72.0
vertex 1039.2671812445 -1085.46670424093 72.0
endloop
endfacet
facet normal 0.0 0.0 -1.0
outer loop
vertex 1032.92263940461 -1219.28621565485 72.0
vertex 1032.92263940461 -1279.42841191754 72.0
vertex 1028.39082380469 -1279.42841191754 72.0
endloop
endfacet
facet normal 0.0 0.0 -1.0
outer loop
vertex 1032.92263940461 -1279.42841191754 72.0
vertex 1032.92263940461 -1219.28621565485 72.0
vertex 1032.92263940461 -1274.89659631762 72.0
endloop
endfacet
facet normal 0.0 0.0 -1.0
outer loop
vertex 1032.92263940461 -1279.42841191754 72.0
vertex 1032.92263940461 -1274.89659631762 72.0
vertex 1220.87368134026 -1274.89659631762 72.0
endloop
endfacet
facet normal 0.0 0.0 -1.0
outer loop
vertex 1032.92263940461 -1279.42841191754 72.0
vertex 1220.87368134026 -1274.89659631762 72.0
vertex 1220.87368134026 -1279.42841191754 72.0
endloop
endfacet
facet normal 0.0 -1.0 0.0
outer loop
vertex 1220.87368134026 -1274.89659631762 72.0
vertex 1032.92263940461 -1274.89659631762 0.0
vertex 1220.87368134026 -1274.89659631762 0.0
endloop
endfacet
facet normal 0.0 -1.0 0.0
outer loop
vertex 1032.92263940461 -1274.89659631762 0.0
vertex 1220.87368134026 -1274.89659631762 72.0
vertex 1032.92263940461 -1274.89659631762 72.0
endloop
endfacet
facet normal -1.0 -0.0 -0.0
outer loop
vertex 1220.87368134026 -1274.89659631762 72.0
vertex 1220.87368134026 -1279.42841191754 0.0
vertex 1220.87368134026 -1279.42841191754 72.0
endloop
endfacet
facet normal -1.0 -0.0 -0.0
outer loop
vertex 1220.87368134026 -1279.42841191754 0.0
vertex 1220.87368134026 -1274.89659631762 72.0
vertex 1220.87368134026 -1274.89659631762 0.0
endloop
endfacet
facet normal 0.0 1.0 0.0
outer loop
vertex 1032.92263940461 -1279.42841191754 72.0
vertex 1220.87368134026 -1279.42841191754 0.0
vertex 1032.92263940461 -1279.42841191754 0.0
endloop
endfacet
facet normal 0.0 1.0 0.0
outer loop
vertex 1220.87368134026 -1279.42841191754 0.0
vertex 1032.92263940461 -1279.42841191754 72.0
vertex 1220.87368134026 -1279.42841191754 72.0
endloop
endfacet
facet normal 0.0 1.0 0.0
outer loop
vertex 1028.39082380469 -1279.42841191754 72.0
vertex 1032.92263940461 -1279.42841191754 0.0
vertex 1028.39082380469 -1279.42841191754 0.0
endloop
endfacet
facet normal 0.0 1.0 0.0
outer loop
vertex 1032.92263940461 -1279.42841191754 0.0
vertex 1028.39082380469 -1279.42841191754 72.0
vertex 1032.92263940461 -1279.42841191754 72.0
endloop
endfacet
facet normal 1.0 0.0 0.0
outer loop
vertex 1028.39082380469 -1274.89659631762 0.0
vertex 1028.39082380469 -1279.42841191754 72.0
vertex 1028.39082380469 -1279.42841191754 0.0
endloop
endfacet
facet normal 1.0 0.0 0.0
outer loop
vertex 1028.39082380469 -1279.42841191754 72.0
vertex 1028.39082380469 -1274.89659631762 0.0
vertex 1028.39082380469 -1274.89659631762 72.0
endloop
endfacet
facet normal 1.0 0.0 0.0
outer loop
vertex 1028.39082380469 -1134.09713400017 0.0
vertex 1028.39082380469 -1274.89659631762 72.0
vertex 1028.39082380469 -1274.89659631762 0.0
endloop
endfacet
facet normal 1.0 0.0 0.0
outer loop
vertex 1028.39082380469 -1274.89659631762 72.0
vertex 1028.39082380469 -1134.09713400017 0.0
vertex 1028.39082380469 -1134.09713400017 72.0
endloop
endfacet
facet normal 1.0 0.0 0.0
outer loop
vertex 1028.39082380469 -1074.59034680112 0.0
vertex 1028.39082380469 -1124.44031840025 72.0
vertex 1028.39082380469 -1124.44031840025 0.0
endloop
endfacet
facet normal 1.0 0.0 0.0
outer loop
vertex 1028.39082380469 -1124.44031840025 72.0
vertex 1028.39082380469 -1074.59034680112 0.0
vertex 1028.39082380469 -1074.59034680112 72.0
endloop
endfacet
facet normal 0.0 -1.0 0.0
outer loop
vertex 1506.95055115633 -1074.6177511496 72.0
vertex 1413.24925355691 -1074.6177511496 0.0
vertex 1506.95055115633 -1074.6177511496 0.0
endloop
endfacet
facet normal 0.0 -1.0 0.0
outer loop
vertex 1413.24925355691 -1074.6177511496 0.0
vertex 1506.95055115633 -1074.6177511496 72.0
vertex 1413.24925355691 -1074.6177511496 72.0
endloop
endfacet
facet normal 1.0 0.0 0.0
outer loop
vertex 1506.95055115633 -1074.5917718641 0.0
vertex 1506.95055115633 -1074.6177511496 72.0
vertex 1506.95055115633 -1074.6177511496 0.0
endloop
endfacet
facet normal 1.0 0.0 0.0
outer loop
vertex 1506.95055115633 -1074.6177511496 72.0
vertex 1506.95055115633 -1074.5917718641 0.0
vertex 1506.95055115633 -1074.5917718641 72.0
endloop
endfacet
facet normal 0.0 -1.0 0.0
outer loop
vertex 1517.82690859614 -1074.5917718641 72.0
vertex 1506.95055115633 -1074.5917718641 0.0
vertex 1517.82690859614 -1074.5917718641 0.0
endloop
endfacet
facet normal 0.0 -1.0 0.0
outer loop
vertex 1506.95055115633 -1074.5917718641 0.0
vertex 1517.82690859614 -1074.5917718641 72.0
vertex 1506.95055115633 -1074.5917718641 72.0
endloop
endfacet
facet normal -1.0 -0.0 -0.0
outer loop
vertex 1517.82690859614 -1074.5917718641 72.0
vertex 1517.82690859614 -1274.89659631763 0.0
vertex 1517.82690859614 -1274.89659631763 72.0
endloop
endfacet
facet normal -1.0 -0.0 -0.0
outer loop
vertex 1517.82690859614 -1274.89659631763 0.0
vertex 1517.82690859614 -1074.5917718641 72.0
vertex 1517.82690859614 -1074.5917718641 0.0
endloop
endfacet
facet normal -1.0 -0.0 -0.0
outer loop
vertex 1517.82690859614 -1274.89659631763 72.0
vertex 1517.82690859614 -1279.42841191755 0.0
vertex 1517.82690859614 -1279.42841191755 72.0
endloop
endfacet
facet normal -1.0 -0.0 -0.0
outer loop
vertex 1517.82690859614 -1279.42841191755 0.0
vertex 1517.82690859614 -1274.89659631763 72.0
vertex 1517.82690859614 -1274.89659631763 0.0
endloop
endfacet
facet normal 0.0 1.0 0.0
outer loop
vertex 1329.85783644729 -1279.42841191755 72.0
vertex 1517.82690859614 -1279.42841191755 0.0
vertex 1329.85783644729 -1279.42841191755 0.0
endloop
endfacet
facet normal 0.0 1.0 0.0
outer loop
vertex 1517.82690859614 -1279.42841191755 0.0
vertex 1329.85783644729 -1279.42841191755 72.0
vertex 1517.82690859614 -1279.42841191755 72.0
endloop
endfacet
facet normal 0.0 1.0 0.0
outer loop
vertex 1325.32602084737 -1279.42841191755 72.0
vertex 1329.85783644729 -1279.42841191755 0.0
vertex 1325.32602084737 -1279.42841191755 0.0
endloop
endfacet
facet normal 0.0 1.0 0.0
outer loop
vertex 1329.85783644729 -1279.42841191755 0.0
vertex 1325.32602084737 -1279.42841191755 72.0
vertex 1329.85783644729 -1279.42841191755 72.0
endloop
endfacet
facet normal 1.0 0.0 0.0
outer loop
vertex 1325.32602084737 -1274.89659631763 0.0
vertex 1325.32602084737 -1279.42841191755 72.0
vertex 1325.32602084737 -1279.42841191755 0.0
endloop
endfacet
facet normal 1.0 0.0 0.0
outer loop
vertex 1325.32602084737 -1279.42841191755 72.0
vertex 1325.32602084737 -1274.89659631763 0.0
vertex 1325.32602084737 -1274.89659631763 72.0
endloop
endfacet
facet normal 0.0 -1.0 0.0
outer loop
vertex 1513.29509299622 -1274.89659631763 72.0
vertex 1325.32602084737 -1274.89659631763 0.0
vertex 1513.29509299622 -1274.89659631763 0.0
endloop
endfacet
facet normal 0.0 -1.0 0.0
outer loop
vertex 1325.32602084737 -1274.89659631763 0.0
vertex 1513.29509299622 -1274.89659631763 72.0
vertex 1325.32602084737 -1274.89659631763 72.0
endloop
endfacet
facet normal 1.0 0.0 0.0
outer loop
vertex 1513.29509299622 -1219.28621565485 0.0
vertex 1513.29509299622 -1274.89659631763 72.0
vertex 1513.29509299622 -1274.89659631763 0.0
endloop
endfacet
facet normal 1.0 0.0 0.0
outer loop
vertex 1513.29509299622 -1274.89659631763 72.0
vertex 1513.29509299622 -1219.28621565485 0.0
vertex 1513.29509299622 -1219.28621565485 72.0
endloop
endfacet
facet normal 0.0 1.0 0.0
outer loop
vertex 1506.95055115633 -1219.28621565485 72.0
vertex 1513.29509299622 -1219.28621565485 0.0
vertex 1506.95055115633 -1219.28621565485 0.0
endloop
endfacet
facet normal 0.0 1.0 0.0
outer loop
vertex 1513.29509299622 -1219.28621565485 0.0
vertex 1506.95055115633 -1219.28621565485 72.0
vertex 1513.29509299622 -1219.28621565485 72.0
endloop
endfacet
facet normal 1.0 0.0 0.0
outer loop
vertex 1506.95055115633 -1085.49410858941 0.0
vertex 1506.95055115633 -1219.28621565485 72.0
vertex 1506.95055115633 -1219.28621565485 0.0
endloop
endfacet
facet normal 1.0 0.0 0.0
outer loop
vertex 1506.95055115633 -1219.28621565485 72.0
vertex 1506.95055115633 -1085.49410858941 0.0
vertex 1506.95055115633 -1085.49410858941 72.0
endloop
endfacet
facet normal 0.0 1.0 0.0
outer loop
vertex 1344.3656564381 -1085.49410858941 72.0
vertex 1506.95055115633 -1085.49410858941 0.0
vertex 1344.3656564381 -1085.49410858941 0.0
endloop
endfacet
facet normal 0.0 1.0 0.0
outer loop
vertex 1506.95055115633 -1085.49410858941 0.0
vertex 1344.3656564381 -1085.49410858941 72.0
vertex 1506.95055115633 -1085.49410858941 72.0
endloop
endfacet
facet normal 0.000154577907137604 0.999999988052835 0.0
outer loop
vertex 1302.72960061383 -1085.48767257496 72.0
vertex 1344.3656564381 -1085.49410858941 0.0
vertex 1302.72960061383 -1085.48767257496 0.0
endloop
endfacet
facet normal 0.000154577907137604 0.999999988052835 0.0
outer loop
vertex 1344.3656564381 -1085.49410858941 0.0
vertex 1302.72960061383 -1085.48767257496 72.0
vertex 1344.3656564381 -1085.49410858941 72.0
endloop
endfacet
facet normal -1.0 0.0 0.0
outer loop
vertex 1302.72960061383 -1085.48767257496 72.0
vertex 1302.72960061383 -1186.10133440669 0.0
vertex 1302.72960061383 -1186.10133440669 72.0
endloop
endfacet
facet normal -1.0 0.0 0.0
outer loop
vertex 1302.72960061383 -1186.10133440669 0.0
vertex 1302.72960061383 -1085.48767257496 72.0
vertex 1302.72960061383 -1085.48767257496 0.0
endloop
endfacet
facet normal 0.0 -1.0 0.0
outer loop
vertex 1325.33203091844 -1186.10133440669 72.0
vertex 1302.72960061383 -1186.10133440669 0.0
vertex 1325.33203091844 -1186.10133440669 0.0
endloop
endfacet
facet normal 0.0 -1.0 0.0
outer loop
vertex 1302.72960061383 -1186.10133440669 0.0
vertex 1325.33203091844 -1186.10133440669 72.0
vertex 1302.72960061383 -1186.10133440669 72.0
endloop
endfacet
facet normal 0.0 -1.0 0.0
outer loop
vertex 1329.86384651836 -1186.10133440669 72.0
vertex 1325.33203091844 -1186.10133440669 0.0
vertex 1329.86384651836 -1186.10133440669 0.0
endloop
endfacet
facet normal 0.0 -1.0 0.0
outer loop
vertex 1325.33203091844 -1186.10133440669 0.0
vertex 1329.86384651836 -1186.10133440669 72.0
vertex 1325.33203091844 -1186.10133440669 72.0
endloop
endfacet
facet normal -1.0 -0.0 -0.0
outer loop
vertex 1329.86384651836 -1186.10133440669 72.0
vertex 1329.86384651836 -1223.23389847854 0.0
vertex 1329.86384651836 -1223.23389847854 72.0
endloop
endfacet
facet normal -1.0 -0.0 -0.0
outer loop
vertex 1329.86384651836 -1223.23389847854 0.0
vertex 1329.86384651836 -1186.10133440669 72.0
vertex 1329.86384651836 -1186.10133440669 0.0
endloop
endfacet
facet normal 0.0 1.0 0.0
outer loop
vertex 1220.87368134026 -1223.23389847854 72.0
vertex 1329.86384651836 -1223.23389847854 0.0
vertex 1220.87368134026 -1223.23389847854 0.0
endloop
endfacet
facet normal 0.0 1.0 0.0
outer loop
vertex 1329.86384651836 -1223.23389847854 0.0
vertex 1220.87368134026 -1223.23389847854 72.0
vertex 1329.86384651836 -1223.23389847854 72.0
endloop
endfacet
facet normal -1.0 -0.0 -0.0
outer loop
vertex 1220.87368134026 -1223.23389847854 72.0
vertex 1220.87368134026 -1223.68708003853 0.0
vertex 1220.87368134026 -1223.68708003853 72.0
endloop
endfacet
facet normal -1.0 -0.0 -0.0
outer loop
vertex 1220.87368134026 -1223.68708003853 0.0
vertex 1220.87368134026 -1223.23389847854 72.0
vertex 1220.87368134026 -1223.23389847854 0.0
endloop
endfacet
facet normal 0.0 1.0 0.0
outer loop
vertex 1216.34186574034 -1223.68708003853 72.0
vertex 1220.87368134026 -1223.68708003853 0.0
vertex 1216.34186574034 -1223.68708003853 0.0
endloop
endfacet
facet normal 0.0 1.0 0.0
outer loop
vertex 1220.87368134026 -1223.68708003853 0.0
vertex 1216.34186574034 -1223.68708003853 72.0
vertex 1220.87368134026 -1223.68708003853 72.0
endloop
endfacet
facet normal 1.0 0.0 0.0
outer loop
vertex 1216.34186574034 -1218.70208287862 0.0
vertex 1216.34186574034 -1223.68708003853 72.0
vertex 1216.34186574034 -1223.68708003853 0.0
endloop
endfacet
facet normal 1.0 0.0 0.0
outer loop
vertex 1216.34186574034 -1223.68708003853 72.0
vertex 1216.34186574034 -1218.70208287862 0.0
vertex 1216.34186574034 -1218.70208287862 72.0
endloop
endfacet
facet normal 0.0 -1.0 0.0
outer loop
vertex 1220.87368134026 -1218.70208287862 72.0
vertex 1216.34186574034 -1218.70208287862 0.0
vertex 1220.87368134026 -1218.70208287862 0.0
endloop
endfacet
facet normal 0.0 -1.0 0.0
outer loop
vertex 1216.34186574034 -1218.70208287862 0.0
vertex 1220.87368134026 -1218.70208287862 72.0
vertex 1216.34186574034 -1218.70208287862 72.0
endloop
endfacet
facet normal 0.0 -1.0 0.0
outer loop
vertex 1271.06353910938 -1218.70208287862 72.0
vertex 1220.87368134026 -1218.70208287862 0.0
vertex 1271.06353910938 -1218.70208287862 0.0
endloop
endfacet
facet normal 0.0 -1.0 0.0
outer loop
vertex 1220.87368134026 -1218.70208287862 0.0
vertex 1271.06353910938 -1218.70208287862 72.0
vertex 1220.87368134026 -1218.70208287862 72.0
endloop
endfacet
facet normal 1.0 0.0 0.0
outer loop
vertex 1271.06353910938 -1186.10133440669 0.0
vertex 1271.06353910938 -1218.70208287862 72.0
vertex 1271.06353910938 -1218.70208287862 0.0
endloop
endfacet
facet normal 1.0 0.0 0.0
outer loop
vertex 1271.06353910938 -1218.70208287862 72.0
vertex 1271.06353910938 -1186.10133440669 0.0
vertex 1271.06353910938 -1186.10133440669 72.0
endloop
endfacet
facet normal 0.0 -1.0 0.0
outer loop
vertex 1275.5953547093 -1186.10133440669 72.0
vertex 1271.06353910938 -1186.10133440669 0.0
vertex 1275.5953547093 -1186.10133440669 0.0
endloop
endfacet
facet normal 0.0 -1.0 0.0
outer loop
vertex 1271.06353910938 -1186.10133440669 0.0
vertex 1275.5953547093 -1186.10133440669 72.0
vertex 1271.06353910938 -1186.10133440669 72.0
endloop
endfacet
facet normal 0.0 -1.0 0.0
outer loop
vertex 1298.19778501391 -1186.10133440669 72.0
vertex 1275.5953547093 -1186.10133440669 0.0
vertex 1298.19778501391 -1186.10133440669 0.0
endloop
endfacet
facet normal 0.0 -1.0 0.0
outer loop
vertex 1275.5953547093 -1186.10133440669 0.0
vertex 1298.19778501391 -1186.10133440669 72.0
vertex 1275.5953547093 -1186.10133440669 72.0
endloop
endfacet
facet normal 1.0 0.0 0.0
outer loop
vertex 1298.19778501391 -1085.48697205638 0.0
vertex 1298.19778501391 -1186.10133440669 72.0
vertex 1298.19778501391 -1186.10133440669 0.0
endloop
endfacet
facet normal 1.0 0.0 0.0
outer loop
vertex 1298.19778501391 -1186.10133440669 72.0
vertex 1298.19778501391 -1085.48697205638 0.0
vertex 1298.19778501391 -1085.48697205638 72.0
endloop
endfacet
facet normal 0.000154577907151643 0.999999988052835 0.0
outer loop
vertex 1167.08063135473 -1085.46670424094 72.0
vertex 1298.19778501391 -1085.48697205638 0.0
vertex 1167.08063135473 -1085.46670424094 0.0
endloop
endfacet
facet normal 0.000154577907151643 0.999999988052835 0.0
outer loop
vertex 1298.19778501391 -1085.48697205638 0.0
vertex 1167.08063135473 -1085.46670424094 72.0
vertex 1298.19778501391 -1085.48697205638 72.0
endloop
endfacet
facet normal 1.06736971068604e-14 1.0 0.0
outer loop
vertex 1039.2671812445 -1085.46670424093 72.0
vertex 1167.08063135473 -1085.46670424094 0.0
vertex 1039.2671812445 -1085.46670424093 0.0
endloop
endfacet
facet normal 1.06736971068604e-14 1.0 0.0
outer loop
vertex 1167.08063135473 -1085.46670424094 0.0
vertex 1039.2671812445 -1085.46670424093 72.0
vertex 1167.08063135473 -1085.46670424094 72.0
endloop
endfacet
facet normal -1.0 -0.0 -0.0
outer loop
vertex 1039.2671812445 -1085.46670424093 72.0
vertex 1039.2671812445 -1219.28621565485 0.0
vertex 1039.2671812445 -1219.28621565485 72.0
endloop
endfacet
facet normal -1.0 -0.0 -0.0
outer loop
vertex 1039.2671812445 -1219.28621565485 0.0
vertex 1039.2671812445 -1085.46670424093 72.0
vertex 1039.2671812445 -1085.46670424093 0.0
endloop
endfacet
facet normal 0.0 1.0 0.0
outer loop
vertex 1032.92263940461 -1219.28621565485 72.0
vertex 1039.2671812445 -1219.28621565485 0.0
vertex 1032.92263940461 -1219.28621565485 0.0
endloop
endfacet
facet normal 0.0 1.0 0.0
outer loop
vertex 1039.2671812445 -1219.28621565485 0.0
vertex 1032.92263940461 -1219.28621565485 72.0
vertex 1039.2671812445 -1219.28621565485 72.0
endloop
endfacet
facet normal -1.0 -0.0 -0.0
outer loop
vertex 1032.92263940461 -1219.28621565485 72.0
vertex 1032.92263940461 -1274.89659631762 0.0
vertex 1032.92263940461 -1274.89659631762 72.0
endloop
endfacet
facet normal -1.0 -0.0 -0.0
outer loop
vertex 1032.92263940461 -1274.89659631762 0.0
vertex 1032.92263940461 -1219.28621565485 72.0
vertex 1032.92263940461 -1219.28621565485 0.0
endloop
endfacet
facet normal 0.0 0.0 -1.0
outer loop
vertex 1325.32602084737 -1506.91562037432 72.0
vertex 1329.85783644729 -1511.44743597424 72.0
vertex 1325.32602084737 -1578.60803627235 72.0
endloop
endfacet
facet normal 0.0 0.0 -1.0
outer loop
vertex 1329.85783644729 -1511.44743597424 72.0
vertex 1325.32602084737 -1506.91562037432 72.0
vertex 1439.86428296557 -1506.91562037432 72.0
endloop
endfacet
facet normal 0.0 0.0 -1.0
outer loop
vertex 1329.85783644729 -1511.44743597424 72.0
vertex 1439.86428296557 -1506.91562037432 72.0
vertex 1416.49877988456 -1511.44743597424 72.0
endloop
endfacet
facet normal 0.0 0.0 -1.0
outer loop
vertex 1416.49877988456 -1511.44743597424 72.0
vertex 1439.86428296557 -1506.91562037432 72.0
vertex 1416.49877988456 -1578.5992015009 72.0
endloop
endfacet
facet normal 0.0 0.0 -1.0
outer loop
vertex 1416.49877988456 -1578.5992015009 72.0
vertex 1439.86428296557 -1506.91562037432 72.0
vertex 1439.86428296557 -1506.91816923451 72.0
endloop
endfacet
facet normal 0.0 0.0 -1.0
outer loop
vertex 1416.49877988456 -1578.5992015009 72.0
vertex 1439.86428296557 -1506.91816923451 72.0
vertex 1457.21132805863 -1578.5992015009 72.0
endloop
endfacet
facet normal 0.0 0.0 -1.0
outer loop
vertex 1457.21132805863 -1578.5992015009 72.0
vertex 1439.86428296557 -1506.91816923451 72.0
vertex 1439.86568955959 -1506.92273374161 72.0
endloop
endfacet
facet normal 0.0 0.0 -1.0
outer loop
vertex 1457.21132805863 -1578.5992015009 72.0
vertex 1439.86568955959 -1506.92273374161 72.0
vertex 1478.28289747955 -1631.58956417194 72.0
endloop
endfacet
facet normal 0.0 0.0 -1.0
outer loop
vertex 1457.21132805863 -1578.5992015009 72.0
vertex 1478.28289747955 -1631.58956417194 72.0
vertex 1474.93730594314 -1636.12137977186 72.0
endloop
endfacet
facet normal 0.0 0.0 -1.0
outer loop
vertex 1474.93730594314 -1636.12137977186 72.0
vertex 1478.28289747955 -1631.58956417194 72.0
vertex 1506.95055115633 -1636.12137977186 72.0
endloop
endfacet
facet normal 0.0 0.0 -1.0
outer loop
vertex 1506.95055115633 -1636.12137977186 72.0
vertex 1478.28289747955 -1631.58956417194 72.0
vertex 1506.95055115633 -1631.58956417194 72.0
endloop
endfacet
facet normal 0.0 0.0 -1.0
outer loop
vertex 1329.85783644729 -1578.60803627235 72.0
vertex 1325.32602084737 -1578.60803627235 72.0
vertex 1329.85783644729 -1511.44743597424 72.0
endloop
endfacet
facet normal 0.0 1.0 0.0
outer loop
vertex 1474.93730594314 -1636.12137977186 72.0
vertex 1506.95055115633 -1636.12137977186 0.0
vertex 1474.93730594314 -1636.12137977186 0.0
endloop
endfacet
facet normal 0.0 1.0 0.0
outer loop
vertex 1506.95055115633 -1636.12137977186 0.0
vertex 1474.93730594314 -1636.12137977186 72.0
vertex 1506.95055115633 -1636.12137977186 72.0
endloop
endfacet
facet normal 0.955653556355387 0.2944932600677 0.0
outer loop
vertex 1457.21132805863 -1578.5992015009 0.0
vertex 1474.93730594314 -1636.12137977186 72.0
vertex 1474.93730594314 -1636.12137977186 0.0
endloop
endfacet
facet normal 0.955653556355387 0.2944932600677 0.0
outer loop
vertex 1474.93730594314 -1636.12137977186 72.0
vertex 1457.21132805863 -1578.5992015009 0.0
vertex 1457.21132805863 -1578.5992015009 72.0
endloop
endfacet
facet normal -1.67545647944524e-14 1.0 0.0
outer loop
vertex 1416.49877988456 -1578.5992015009 72.0
vertex 1457.21132805863 -1578.5992015009 0.0
vertex 1416.49877988456 -1578.5992015009 0.0
endloop
endfacet
facet normal -1.67545647944524e-14 1.0 0.0
outer loop
vertex 1457.21132805863 -1578.5992015009 0.0
vertex 1416.49877988456 -1578.5992015009 72.0
vertex 1457.21132805863 -1578.5992015009 72.0
endloop
endfacet
facet normal 1.0 0.0 0.0
outer loop
vertex 1416.49877988456 -1511.44743597424 0.0
vertex 1416.49877988456 -1578.5992015009 72.0
vertex 1416.49877988456 -1578.5992015009 0.0
endloop
endfacet
facet normal 1.0 0.0 0.0
outer loop
vertex 1416.49877988456 -1578.5992015009 72.0
vertex 1416.49877988456 -1511.44743597424 0.0
vertex 1416.49877988456 -1511.44743597424 72.0
endloop
endfacet
facet normal 0.0 1.0 0.0
outer loop
vertex 1329.85783644729 -1511.44743597424 72.0
vertex 1416.49877988456 -1511.44743597424 0.0
vertex 1329.85783644729 -1511.44743597424 0.0
endloop
endfacet
facet normal 0.0 1.0 0.0
outer loop
vertex 1416.49877988456 -1511.44743597424 0.0
vertex 1329.85783644729 -1511.44743597424 72.0
vertex 1416.49877988456 -1511.44743597424 72.0
endloop
endfacet
facet normal -1.0 -0.0 -0.0
outer loop
vertex 1329.85783644729 -1511.44743597424 72.0
vertex 1329.85783644729 -1578.60803627235 0.0
vertex 1329.85783644729 -1578.60803627235 72.0
endloop
endfacet
facet normal -1.0 -0.0 -0.0
outer loop
vertex 1329.85783644729 -1578.60803627235 0.0
vertex 1329.85783644729 -1511.44743597424 72.0
vertex 1329.85783644729 -1511.44743597424 0.0
endloop
endfacet
facet normal 0.0 1.0 0.0
outer loop
vertex 1325.32602084737 -1578.60803627235 72.0
vertex 1329.85783644729 -1578.60803627235 0.0
vertex 1325.32602084737 -1578.60803627235 0.0
endloop
endfacet
facet normal 0.0 1.0 0.0
outer loop
vertex 1329.85783644729 -1578.60803627235 0.0
vertex 1325.32602084737 -1578.60803627235 72.0
vertex 1329.85783644729 -1578.60803627235 72.0
endloop
endfacet
facet normal 1.0 0.0 0.0
outer loop
vertex 1325.32602084737 -1506.91562037432 0.0
vertex 1325.32602084737 -1578.60803627235 72.0
vertex 1325.32602084737 -1578.60803627235 0.0
endloop
endfacet
facet normal 1.0 0.0 0.0
outer loop
vertex 1325.32602084737 -1578.60803627235 72.0
vertex 1325.32602084737 -1506.91562037432 0.0
vertex 1325.32602084737 -1506.91562037432 72.0
endloop
endfacet
facet normal 0.0 -1.0 0.0
outer loop
vertex 1439.86428296557 -1506.91562037432 72.0
vertex 1325.32602084737 -1506.91562037432 0.0
vertex 1439.86428296557 -1506.91562037432 0.0
endloop
endfacet
facet normal 0.0 -1.0 0.0
outer loop
vertex 1325.32602084737 -1506.91562037432 0.0
vertex 1439.86428296557 -1506.91562037432 72.0
vertex 1325.32602084737 -1506.91562037432 72.0
endloop
endfacet
facet normal -1.0 -0.0 -0.0
outer loop
vertex 1439.86428296557 -1506.91562037432 72.0
vertex 1439.86428296557 -1506.91816923451 0.0
vertex 1439.86428296557 -1506.91816923451 72.0
endloop
endfacet
facet normal -1.0 -0.0 -0.0
outer loop
vertex 1439.86428296557 -1506.91816923451 0.0
vertex 1439.86428296557 -1506.91562037432 72.0
vertex 1439.86428296557 -1506.91562037432 0.0
endloop
endfacet
facet normal -0.955653556200389 -0.294493260570679 -0.0
outer loop
vertex 1439.86428296557 -1506.91816923451 72.0
vertex 1439.86568955959 -1506.92273374161 0.0
vertex 1439.86568955959 -1506.92273374161 72.0
endloop
endfacet
facet normal -0.955653556200389 -0.294493260570679 -0.0
outer loop
vertex 1439.86568955959 -1506.92273374161 0.0
vertex 1439.86428296557 -1506.91816923451 72.0
vertex 1439.86428296557 -1506.91816923451 0.0
endloop
endfacet
facet normal -0.955653556223966 -0.29449326049417 -0.0
outer loop
vertex 1439.86568955959 -1506.92273374161 72.0
vertex 1478.28289747955 -1631.58956417194 0.0
vertex 1478.28289747955 -1631.58956417194 72.0
endloop
endfacet
facet normal -0.955653556223966 -0.29449326049417 -0.0
outer loop
vertex 1478.28289747955 -1631.58956417194 0.0
vertex 1439.86568955959 -1506.92273374161 72.0
vertex 1439.86568955959 -1506.92273374161 0.0
endloop
endfacet
facet normal 0.0 -1.0 0.0
outer loop
vertex 1506.95055115633 -1631.58956417194 72.0
vertex 1478.28289747955 -1631.58956417194 0.0
vertex 1506.95055115633 -1631.58956417194 0.0
endloop
endfacet
facet normal 0.0 -1.0 0.0
outer loop
vertex 1478.28289747955 -1631.58956417194 0.0
vertex 1506.95055115633 -1631.58956417194 72.0
vertex 1478.28289747955 -1631.58956417194 72.0
endloop
endfacet
facet normal 0.0 0.0 1.0
outer loop
vertex 1028.39082380469 -1134.09713400017 72.0
vertex 919.627249406594 -1124.44031840025 72.0
vertex 919.627249406594 -1134.09713400017 72.0
endloop
endfacet
facet normal 0.0 0.0 1.0
outer loop
vertex 919.627249406594 -1124.44031840025 72.0
vertex 1028.39082380469 -1134.09713400017 72.0
vertex 1028.39082380469 -1124.44031840025 72.0
endloop
endfacet
facet normal -1.0 0.0 0.0
outer loop
vertex 919.627249406594 -1124.44031840025 72.0
vertex 919.627249406594 -1134.09713400017 0.0
vertex 919.627249406594 -1134.09713400017 72.0
endloop
endfacet
facet normal -1.0 0.0 0.0
outer loop
vertex 919.627249406594 -1134.09713400017 0.0
vertex 919.627249406594 -1124.44031840025 72.0
vertex 919.627249406594 -1124.44031840025 0.0
endloop
endfacet
facet normal 0.0 1.0 0.0
outer loop
vertex 919.627249406594 -1124.44031840025 72.0
vertex 1028.39082380469 -1124.44031840025 0.0
vertex 919.627249406594 -1124.44031840025 0.0
endloop
endfacet
facet normal 0.0 1.0 0.0
outer loop
vertex 1028.39082380469 -1124.44031840025 0.0
vertex 919.627249406594 -1124.44031840025 72.0
vertex 1028.39082380469 -1124.44031840025 72.0
endloop
endfacet
facet normal 0.0 -1.0 0.0
outer loop
vertex 1028.39082380469 -1134.09713400017 72.0
vertex 919.627249406594 -1134.09713400017 0.0
vertex 1028.39082380469 -1134.09713400017 0.0
endloop
endfacet
facet normal 0.0 -1.0 0.0
outer loop
vertex 919.627249406594 -1134.09713400017 0.0
vertex 1028.39082380469 -1134.09713400017 72.0
vertex 919.627249406594 -1134.09713400017 72.0
endloop
endfacet
facet normal 0.0 0.0 -1.0
outer loop
vertex 1028.39082380469 -1569.44187981237 72.0
vertex 992.136299005326 -1579.6611954123 72.0
vertex 992.136299005326 -1569.44187981237 72.0
endloop
endfacet
facet normal 0.0 0.0 -1.0
outer loop
vertex 992.136299005326 -1579.6611954123 72.0
vertex 1028.39082380469 -1569.44187981237 72.0
vertex 1028.39082380469 -1579.6611954123 72.0
endloop
endfacet
facet normal 1.0 0.0 0.0
outer loop
vertex 992.136299005326 -1569.44187981237 0.0
vertex 992.136299005326 -1579.6611954123 72.0
vertex 992.136299005326 -1579.6611954123 0.0
endloop
endfacet
facet normal 1.0 0.0 0.0
outer loop
vertex 992.136299005326 -1579.6611954123 72.0
vertex 992.136299005326 -1569.44187981237 0.0
vertex 992.136299005326 -1569.44187981237 72.0
endloop
endfacet
facet normal 0.0 -1.0 0.0
outer loop
vertex 1028.39082380469 -1569.44187981237 72.0
vertex 992.136299005326 -1569.44187981237 0.0
vertex 1028.39082380469 -1569.44187981237 0.0
endloop
endfacet
facet normal 0.0 -1.0 0.0
outer loop
vertex 992.136299005326 -1569.44187981237 0.0
vertex 1028.39082380469 -1569.44187981237 72.0
vertex 992.136299005326 -1569.44187981237 72.0
endloop
endfacet
facet normal 0.0 1.0 0.0
outer loop
vertex 992.136299005326 -1579.6611954123 72.0
vertex 1028.39082380469 -1579.6611954123 0.0
vertex 992.136299005326 -1579.6611954123 0.0
endloop
endfacet
facet normal 0.0 1.0 0.0
outer loop
vertex 1028.39082380469 -1579.6611954123 0.0
vertex 992.136299005326 -1579.6611954123 72.0
vertex 1028.39082380469 -1579.6611954123 72.0
endloop
endfacet
facet normal 0.0 0.0 -1.0
outer loop
vertex 955.881774205959 -1569.44187981237 72.0
vertex 919.627249406594 -1579.6611954123 72.0
vertex 919.627249406594 -1569.44187981237 72.0
endloop
endfacet
facet normal 0.0 0.0 -1.0
outer loop
vertex 919.627249406594 -1579.6611954123 72.0
vertex 955.881774205959 -1569.44187981237 72.0
vertex 955.881774205959 -1579.6611954123 72.0
endloop
endfacet
facet normal 1.0 0.0 0.0
outer loop
vertex 919.627249406594 -1569.44187981237 0.0
vertex 919.627249406594 -1579.6611954123 72.0
vertex 919.627249406594 -1579.6611954123 0.0
endloop
endfacet
facet normal 1.0 0.0 0.0
outer loop
vertex 919.627249406594 -1579.6611954123 72.0
vertex 919.627249406594 -1569.44187981237 0.0
vertex 919.627249406594 -1569.44187981237 72.0
endloop
endfacet
facet normal 0.0 -1.0 0.0
outer loop
vertex 955.881774205959 -1569.44187981237 72.0
vertex 919.627249406594 -1569.44187981237 0.0
vertex 955.881774205959 -1569.44187981237 0.0
endloop
endfacet
facet normal 0.0 -1.0 0.0
outer loop
vertex 919.627249406594 -1569.44187981237 0.0
vertex 955.881774205959 -1569.44187981237 72.0
vertex 919.627249406594 -1569.44187981237 72.0
endloop
endfacet
facet normal -1.0 -0.0 -0.0
outer loop
vertex 955.881774205959 -1569.44187981237 72.0
vertex 955.881774205959 -1579.6611954123 0.0
vertex 955.881774205959 -1579.6611954123 72.0
endloop
endfacet
facet normal -1.0 -0.0 -0.0
outer loop
vertex 955.881774205959 -1579.6611954123 0.0
vertex 955.881774205959 -1569.44187981237 72.0
vertex 955.881774205959 -1569.44187981237 0.0
endloop
endfacet
facet normal 0.0 1.0 0.0
outer loop
vertex 919.627249406594 -1579.6611954123 72.0
vertex 955.881774205959 -1579.6611954123 0.0
vertex 919.627249406594 -1579.6611954123 0.0
endloop
endfacet
facet normal 0.0 1.0 0.0
outer loop
vertex 955.881774205959 -1579.6611954123 0.0
vertex 919.627249406594 -1579.6611954123 72.0
vertex 955.881774205959 -1579.6611954123 72.0
endloop
endfacet
facet normal 0.0 0.0 -1.0
outer loop
vertex 1554.0814333955 -1575.12937981243 72.0
vertex 1517.82690859614 -1585.34869541235 72.0
vertex 1517.82690859614 -1575.12937981243 72.0
endloop
endfacet
facet normal 0.0 0.0 -1.0
outer loop
vertex 1517.82690859614 -1585.34869541235 72.0
vertex 1554.0814333955 -1575.12937981243 72.0
vertex 1554.0814333955 -1585.34869541235 72.0
endloop
endfacet
facet normal 0.0 -1.0 0.0
outer loop
vertex 1554.0814333955 -1575.12937981243 72.0
vertex 1517.82690859614 -1575.12937981243 0.0
vertex 1554.0814333955 -1575.12937981243 0.0
endloop
endfacet
facet normal 0.0 -1.0 0.0
outer loop
vertex 1517.82690859614 -1575.12937981243 0.0
vertex 1554.0814333955 -1575.12937981243 72.0
vertex 1517.82690859614 -1575.12937981243 72.0
endloop
endfacet
facet normal -1.0 -0.0 -0.0
outer loop
vertex 1554.0814333955 -1575.12937981243 72.0
vertex 1554.0814333955 -1585.34869541235 0.0
vertex 1554.0814333955 -1585.34869541235 72.0
endloop
endfacet
facet normal -1.0 -0.0 -0.0
outer loop
vertex 1554.0814333955 -1585.34869541235 0.0
vertex 1554.0814333955 -1575.12937981243 72.0
vertex 1554.0814333955 -1579.66119541235 0.0
endloop
endfacet
facet normal -1.0 -0.0 -0.0
outer loop
vertex 1554.0814333955 -1579.66119541235 0.0
vertex 1554.0814333955 -1575.12937981243 72.0
vertex 1554.0814333955 -1575.12937981243 0.0
endloop
endfacet
facet normal 0.0 -1.0 0.0
outer loop
vertex 1413.24925355691 -1074.6177511496 72.0
vertex 1344.3656564381 -1074.6177511496 0.0
vertex 1413.24925355691 -1074.6177511496 0.0
endloop
endfacet
facet normal 0.0 -1.0 0.0
outer loop
vertex 1344.3656564381 -1074.6177511496 0.0
vertex 1413.24925355691 -1074.6177511496 72.0
vertex 1344.3656564381 -1074.6177511496 72.0
endloop
endfacet
facet normal -9.41453406506823e-06 -0.999999999955683 -0.0
outer loop
vertex 1176.0753238316 -1074.59173718188 72.0
vertex 1028.39082380469 -1074.59034680112 0.0
vertex 1176.0753238316 -1074.59173718188 0.0
endloop
endfacet
facet normal -9.41453406506823e-06 -0.999999999955683 -0.0
outer loop
vertex 1028.39082380469 -1074.59034680112 0.0
vertex 1176.0753238316 -1074.59173718188 72.0
vertex 1028.39082380469 -1074.59034680112 72.0
endloop
endfacet
facet normal -0.000154577907148473 -0.999999988052835 -0.0
outer loop
vertex 1344.3656564381 -1074.6177511496 72.0
vertex 1176.0753238316 -1074.59173718188 0.0
vertex 1344.3656564381 -1074.6177511496 0.0
endloop
endfacet
facet normal -0.000154577907148473 -0.999999988052835 -0.0
outer loop
vertex 1176.0753238316 -1074.59173718188 0.0
vertex 1344.3656564381 -1074.6177511496 72.0
vertex 1176.0753238316 -1074.59173718188 72.0
endloop
endfacet
facet normal 1.0 -6.5371668224886e-15 0.0
outer loop
vertex 1028.39082380469 -1366.43927143603 0.0
vertex 1028.39082380469 -1569.44187981237 72.0
vertex 1028.39082380469 -1569.44187981237 0.0
endloop
endfacet
facet normal 1.0 -6.5371668224886e-15 0.0
outer loop
vertex 1028.39082380469 -1569.44187981237 72.0
vertex 1028.39082380469 -1366.43927143603 0.0
vertex 1028.39082380469 -1366.43927143603 72.0
endloop
endfacet
facet normal 0.0 1.0 0.0
outer loop
vertex 1517.82690859614 -1585.34869541235 72.0
vertex 1554.0814333955 -1585.34869541235 0.0
vertex 1517.82690859614 -1585.34869541235 0.0
endloop
endfacet
facet normal 0.0 1.0 0.0
outer loop
vertex 1554.0814333955 -1585.34869541235 0.0
vertex 1517.82690859614 -1585.34869541235 72.0
vertex 1554.0814333955 -1585.34869541235 72.0
endloop
endfacet
facet normal 0.0 0.0 -1.0
outer loop
vertex 1626.59048299424 -1575.12937981243 0.0
vertex 1590.33595819487 -1579.66119541235 0.0
vertex 1590.33595819487 -1575.12937981243 0.0
endloop
endfacet
facet normal 0.0 0.0 -1.0
outer loop
vertex 1590.33595819487 -1579.66119541235 0.0
vertex 1626.59048299424 -1575.12937981243 0.0
vertex 1590.33595819487 -1585.34869541235 0.0
endloop
endfacet
facet normal 0.0 0.0 -1.0
outer loop
vertex 1590.33595819487 -1585.34869541235 0.0
vertex 1626.59048299424 -1575.12937981243 0.0
vertex 1626.59048299424 -1585.34869541235 0.0
endloop
endfacet
facet normal 1.0 0.0 0.0
outer loop
vertex 1626.59048299424 -1575.12937981243 0.0
vertex 1626.59048299424 -1585.34869541235 72.0
vertex 1626.59048299424 -1585.34869541235 0.0
endloop
endfacet
facet normal 1.0 0.0 0.0
outer loop
vertex 1626.59048299424 -1585.34869541235 72.0
vertex 1626.59048299424 -1575.12937981243 0.0
vertex 1626.59048299424 -1575.12937981243 72.0
endloop
endfacet
facet normal 0.0 0.0 1.0
outer loop
vertex 1626.59048299424 -1585.34869541235 72.0
vertex 1590.33595819487 -1575.12937981243 72.0
vertex 1590.33595819487 -1585.34869541235 72.0
endloop
endfacet
facet normal 0.0 0.0 1.0
outer loop
vertex 1590.33595819487 -1575.12937981243 72.0
vertex 1626.59048299424 -1585.34869541235 72.0
vertex 1626.59048299424 -1575.12937981243 72.0
endloop
endfacet
facet normal -1.0 0.0 0.0
outer loop
vertex 1590.33595819487 -1575.12937981243 72.0
vertex 1590.33595819487 -1585.34869541235 0.0
vertex 1590.33595819487 -1585.34869541235 72.0
endloop
endfacet
facet normal -1.0 0.0 0.0
outer loop
vertex 1590.33595819487 -1585.34869541235 0.0
vertex 1590.33595819487 -1575.12937981243 72.0
vertex 1590.33595819487 -1579.66119541235 0.0
endloop
endfacet
facet normal -1.0 0.0 0.0
outer loop
vertex 1590.33595819487 -1579.66119541235 0.0
vertex 1590.33595819487 -1575.12937981243 72.0
vertex 1590.33595819487 -1575.12937981243 0.0
endloop
endfacet
facet normal 0.0 1.0 0.0
outer loop
vertex 1590.33595819487 -1575.12937981243 72.0
vertex 1626.59048299424 -1575.12937981243 0.0
vertex 1590.33595819487 -1575.12937981243 0.0
endloop
endfacet
facet normal 0.0 1.0 0.0
outer loop
vertex 1626.59048299424 -1575.12937981243 0.0
vertex 1590.33595819487 -1575.12937981243 72.0
vertex 1626.59048299424 -1575.12937981243 72.0
endloop
endfacet
facet normal -0.0 -1.0 -0.0
outer loop
vertex 1626.59048299424 -1585.34869541235 72.0
vertex 1590.33595819487 -1585.34869541235 0.0
vertex 1626.59048299424 -1585.34869541235 0.0
endloop
endfacet
facet normal -0.0 -1.0 -0.0
outer loop
vertex 1590.33595819487 -1585.34869541235 0.0
vertex 1626.59048299424 -1585.34869541235 72.0
vertex 1590.33595819487 -1585.34869541235 72.0
endloop
endfacet
facet normal 0.0 -1.0 0.0
outer loop
vertex 1517.82690859614 -1279.42841191755 0.0
vertex 1325.32602084737 -1279.42841191755 -5.0
vertex 1517.82690859614 -1279.42841191755 -5.0
endloop
endfacet
facet normal 0.0 -1.0 0.0
outer loop
vertex 1325.32602084737 -1279.42841191755 -5.0
vertex 1517.82690859614 -1279.42841191755 0.0
vertex 1325.32602084737 -1279.42841191755 0.0
endloop
endfacet
facet normal 1.0 0.0 0.0
outer loop
vertex 1325.32602084737 -1279.42841191755 -5.0
vertex 1325.32602084737 -1366.43927143602 0.0
vertex 1325.32602084737 -1366.43927143602 -5.0
endloop
endfacet
facet normal 1.0 0.0 0.0
outer loop
vertex 1325.32602084737 -1366.43927143602 0.0
vertex 1325.32602084737 -1279.42841191755 -5.0
vertex 1325.32602084737 -1279.42841191755 0.0
endloop
endfacet
facet normal -0.0 1.0 -0.0
outer loop
vertex 1325.32602084737 -1366.43927143602 0.0
vertex 1517.82690859614 -1366.43927143602 -5.0
vertex 1325.32602084737 -1366.43927143602 -5.0
endloop
endfacet
facet normal -0.0 1.0 -0.0
outer loop
vertex 1517.82690859614 -1366.43927143602 -5.0
vertex 1325.32602084737 -1366.43927143602 0.0
vertex 1517.82690859614 -1366.43927143602 0.0
endloop
endfacet
facet normal 1.0 -0.0 -0.0
outer loop
vertex 1517.82690859614 -1074.58530018536 -5.0
vertex 1517.82690859614 -1279.42841191755 0.0
vertex 1517.82690859614 -1279.42841191755 -5.0
endloop
endfacet
facet normal 1.0 -0.0 -0.0
outer loop
vertex 1517.82690859614 -1279.42841191755 0.0
vertex 1517.82690859614 -1074.58530018536 -5.0
vertex 1517.82690859614 -1074.58530018536 0.0
endloop
endfacet
endsolid AnchorCenter4_v1_Jeeeun
